<svg width="30" height="20" viewBox="0 0 30 20" fill="none" xmlns="http://www.w3.org/2000/svg">
<g id="Frame 2629">
<g id="Vector">
<path d="M5.49146 19.7126C5.11228 19.3295 5.11228 18.7083 5.49146 18.3251L23.3425 0.287364C23.7216 -0.0957884 24.3364 -0.095788 24.7156 0.287365C25.0948 0.670518 25.0948 1.29173 24.7156 1.67488L6.86461 19.7126C6.48543 20.0958 5.87065 20.0958 5.49146 19.7126Z" fill="#333333"/>
<path d="M24.5085 19.7126C24.8877 19.3295 24.8877 18.7083 24.5085 18.3251L6.65754 0.287364C6.27836 -0.0957884 5.66358 -0.095788 5.28439 0.287365C4.9052 0.670518 4.9052 1.29173 5.28439 1.67488L23.1354 19.7126C23.5146 20.0958 24.1294 20.0958 24.5085 19.7126Z" fill="#333333"/>
</g>
</g>
</svg>
