<svg width="56" height="56" viewBox="0 0 56 56" fill="none" xmlns="http://www.w3.org/2000/svg">
<g id="Frame" clip-path="url(#clip0_2154_38554)">
<g id="Group">
<path id="Vector" d="M53.209 39.7322V18.4788C53.209 18.2312 53.1106 17.9937 52.9355 17.8186C52.7604 17.6435 52.5229 17.5451 52.2753 17.5451C52.0277 17.5451 51.7902 17.6435 51.6151 17.8186C51.44 17.9937 51.3417 18.2312 51.3417 18.4788V39.7322C51.3417 40.9719 51.7489 42.2035 52.5192 43.294C53.355 44.4769 53.3425 47.3737 53.3293 50.4407C53.3274 50.8605 53.3257 51.2887 53.3257 51.7238C53.3257 52.1164 53.2201 52.4143 53.0116 52.6094C52.4735 53.1131 51.2249 52.894 51.2249 51.8122C51.2249 51.5646 51.1266 51.3271 50.9515 51.152C50.7764 50.9769 50.5389 50.8786 50.2913 50.8786C50.0437 50.8786 49.8062 50.9769 49.6311 51.152C49.456 51.3271 49.3576 51.5646 49.3576 51.8122V53.0006C49.3576 53.7279 48.7279 53.7845 48.5349 53.7845C48.3446 53.7845 47.7235 53.728 47.7235 53.0006V51.6918C47.7235 51.4442 47.6251 51.2067 47.45 51.0316C47.2749 50.8565 47.0374 50.7581 46.7898 50.7581C46.5422 50.7581 46.3047 50.8565 46.1296 51.0316C45.9545 51.2067 45.8561 51.4442 45.8561 51.6918C45.8561 53.4459 45.8559 52.8287 45.8559 52.9646C45.8554 54.078 44.808 54.1291 44.6886 54.1312C44.502 54.1353 43.571 54.0986 43.5241 53.0594V42.355C43.5241 42.1074 43.4257 41.8699 43.2506 41.6948C43.0755 41.5197 42.838 41.4213 42.5904 41.4213H39.5926C39.8488 40.8851 40.2364 40.4318 40.7234 40.1152C42.3057 39.0866 43.2887 37.2154 43.2887 35.2322V14.3432C43.2887 14.3432 53.1008 14.343 53.1121 14.3426C55.9941 14.2375 56.827 10.8569 55.1193 9.12856C56.0646 7.84512 55.7097 5.92854 54.3771 5.1355C55.3661 3.26186 54.2686 0.806783 51.7235 0.806783C47.5763 0.806783 44.0965 0.626935 42.2162 1.95543C41.4427 2.50197 40.5836 2.79083 39.732 2.79083H18.8402C18.5926 2.79083 18.3551 2.8892 18.18 3.06429C18.0049 3.23939 17.9065 3.47687 17.9065 3.7245C17.9065 3.97212 18.0049 4.2096 18.18 4.3847C18.3551 4.55979 18.5926 4.65816 18.8402 4.65816H39.7322C40.9719 4.65816 42.2035 4.25097 43.294 3.48046C44.4769 2.64482 47.3738 2.65801 50.4408 2.6705C50.8605 2.67237 51.2887 2.67412 51.7239 2.67412C52.7844 2.67412 52.8668 3.45712 52.8668 3.69707C52.8668 4.0975 52.6447 4.77487 51.8123 4.77487C51.5647 4.77487 51.3272 4.87324 51.1521 5.04834C50.977 5.22343 50.8787 5.46092 50.8787 5.70854C50.8787 5.95616 50.977 6.19365 51.1521 6.36874C51.3272 6.54384 51.5647 6.64221 51.8123 6.64221H53.0007C53.728 6.64221 53.7846 7.27197 53.7846 7.46489C53.7846 7.65524 53.7281 8.27636 53.0007 8.27636H51.692C51.4444 8.27636 51.2069 8.37473 51.0318 8.54982C50.8567 8.72492 50.7583 8.9624 50.7583 9.21003C50.7583 9.45765 50.8567 9.69513 51.0318 9.87023C51.2069 10.0453 51.4444 10.1437 51.692 10.1437C53.4459 10.1437 52.8288 10.1439 52.9647 10.1439C54.0782 10.1444 54.1292 11.192 54.1315 11.3115C54.1348 11.4983 54.0987 12.429 53.0596 12.4759H42.3553C42.1077 12.4759 41.8702 12.5742 41.6951 12.7493C41.52 12.9244 41.4217 13.1619 41.4217 13.4095V16.4072C40.8853 16.1511 40.4321 15.7636 40.1156 15.2765C39.0869 13.6941 37.2158 12.7112 35.2326 12.7112H14.3432C14.3432 12.7112 14.343 2.89902 14.3426 2.88758C14.2376 0.00709639 10.8577 -0.827836 9.12866 0.880426C7.84522 -0.0647959 5.92863 0.289998 5.1356 1.62258C3.24411 0.623784 0.806883 1.74734 0.806883 4.27606C0.806883 8.40287 0.627035 11.9032 1.95553 13.7834C2.50207 14.5569 2.79093 15.4159 2.79093 16.2676V36.6929C2.79093 36.9405 2.8893 37.178 3.06439 37.3531C3.23949 37.5282 3.47697 37.6266 3.7246 37.6266C3.97222 37.6266 4.2097 37.5282 4.3848 37.3531C4.55989 37.178 4.65826 36.9405 4.65826 36.6929V16.2676C4.65826 15.0279 4.25107 13.7963 3.48067 12.7058C2.64492 11.523 2.65741 8.62613 2.6706 5.55915C2.67247 5.13935 2.67422 4.71115 2.67422 4.27606C2.67422 3.88345 2.77984 3.5855 2.98828 3.39048C3.52642 2.88676 4.77497 3.10582 4.77497 4.18759C4.77497 4.43522 4.87334 4.6727 5.04844 4.8478C5.22353 5.02289 5.46102 5.12126 5.70864 5.12126C5.95626 5.12126 6.19375 5.02289 6.36884 4.8478C6.54394 4.6727 6.64231 4.43522 6.64231 4.18759V2.99939C6.64231 2.27206 7.27207 2.21545 7.46498 2.21545C7.65534 2.21545 8.27646 2.27194 8.27646 2.99939V4.30815C8.27646 4.55578 8.37483 4.79326 8.54992 4.96836C8.72502 5.14345 8.9625 5.24182 9.21013 5.24182C9.45775 5.24182 9.69523 5.14345 9.87033 4.96836C10.0454 4.79326 10.1438 4.55578 10.1438 4.30815C10.1438 2.55403 10.144 3.1713 10.144 3.03533C10.1445 1.92193 11.192 1.87081 11.3113 1.86871C11.4984 1.86696 12.4289 1.90139 12.4759 2.94056V13.6449C12.4759 13.8926 12.5742 14.1301 12.7493 14.3052C12.9244 14.4802 13.1619 14.5786 13.4095 14.5786H16.4073C16.1511 15.1149 15.7635 15.5682 15.2765 15.8847C13.6942 16.9134 12.7113 18.7846 12.7113 20.7678V33.0259C12.7113 33.2735 12.8096 33.511 12.9847 33.6861C13.1598 33.8612 13.3973 33.9596 13.6449 33.9596C13.8926 33.9596 14.13 33.8612 14.3051 33.6861C14.4802 33.511 14.5786 33.2735 14.5786 33.0259V20.7677C14.5786 19.4094 15.236 18.1382 16.2944 17.4501C17.3103 16.7897 18.0506 15.7692 18.3993 14.5785H35.2325C36.5908 14.5785 37.8618 15.236 38.5499 16.2943C39.2104 17.3102 40.2309 18.0503 41.4217 18.3991V35.2322C41.4217 36.5904 40.7642 37.8616 39.7058 38.5497C38.69 39.2102 37.9497 40.2307 37.601 41.4213H20.7677C19.4094 41.4213 18.1383 40.7638 17.4502 39.7055C16.6446 38.4663 15.3032 37.6362 13.7704 37.428C13.2062 37.3523 12.7111 37.7912 12.7111 38.3533V41.6566C12.7111 41.6566 2.899 41.6569 2.88768 41.6572C0.00567929 41.7624 -0.827152 45.1429 0.880526 46.8713C-0.0646959 48.1547 0.290098 50.0713 1.62268 50.8643C0.618399 52.7672 1.75526 55.1931 4.27628 55.1931C8.36294 55.1931 11.898 55.3766 13.7836 54.0444C14.5571 53.4979 15.4162 53.209 16.2678 53.209H37.6341C37.8818 53.209 38.1192 53.1106 38.2943 52.9355C38.4694 52.7604 38.5678 52.523 38.5678 52.2753C38.5678 52.0277 38.4694 51.7902 38.2943 51.6151C38.1192 51.44 37.8818 51.3417 37.6341 51.3417H16.2677C15.028 51.3417 13.7964 51.7489 12.7059 52.5194C11.5232 53.3551 8.62647 53.3428 5.55925 53.3293C5.13957 53.3275 4.71136 53.3257 4.27616 53.3257C3.21563 53.3257 3.13323 52.5427 3.13323 52.3028C3.13323 51.9023 3.35533 51.225 4.18769 51.225C4.43532 51.225 4.6728 51.1266 4.8479 50.9515C5.02299 50.7764 5.12136 50.5389 5.12136 50.2913C5.12136 50.0437 5.02299 49.8062 4.8479 49.6311C4.6728 49.456 4.43532 49.3576 4.18769 49.3576H2.99937C2.27204 49.3576 2.21544 48.7279 2.21544 48.535C2.21544 48.3446 2.27192 47.7235 2.99937 47.7235H4.30802C4.55564 47.7235 4.79313 47.6251 4.96822 47.45C5.14332 47.2749 5.24169 47.0374 5.24169 46.7898C5.24169 46.5422 5.14332 46.3047 4.96822 46.1296C4.79313 45.9545 4.55564 45.8561 4.30802 45.8561C2.55413 45.8561 3.17128 45.8559 3.03531 45.8559C1.9218 45.8554 1.8708 44.8079 1.86858 44.6884C1.8652 44.5015 1.90126 43.5709 2.94031 43.524H13.6447C13.8923 43.524 14.1298 43.4256 14.3049 43.2505C14.48 43.0754 14.5784 42.8379 14.5784 42.5903V39.5923C15.1148 39.8483 15.5679 40.2363 15.8845 40.7232C16.9131 42.3056 18.7842 43.2886 20.7674 43.2886H41.6567C41.6567 43.2886 41.657 53.1007 41.6573 53.1121C41.7622 55.9887 45.1409 56.8288 46.8713 55.1193C48.1547 56.0645 50.0713 55.7097 50.8643 54.3771C52.7441 55.3699 55.1929 54.265 55.1929 51.7237C55.1929 47.5968 55.3728 44.0965 54.0443 42.2164C53.4978 41.4429 53.209 40.584 53.209 39.7322Z" fill="#333333"/>
</g>
</g>
<defs>
<clipPath id="clip0_2154_38554">
<rect width="56" height="56" fill="white"/>
</clipPath>
</defs>
</svg>
