<svg width="56" height="56" viewBox="0 0 56 56" fill="none" xmlns="http://www.w3.org/2000/svg">
<g id="Frame">
<g id="Group">
<path id="Vector" d="M35.4742 30.5613C35.5422 30.4592 35.5893 30.3448 35.613 30.2245C35.6367 30.1043 35.6364 29.9805 35.6123 29.8604C35.5881 29.7402 35.5405 29.626 35.4722 29.5242C35.4039 29.4224 35.3163 29.3351 35.2142 29.2672C35.1122 29.1992 34.9978 29.1521 34.8775 29.1283C34.7572 29.1046 34.6334 29.1049 34.5133 29.129C34.3931 29.1532 34.2788 29.2008 34.1771 29.2691C34.0753 29.3374 33.988 29.4252 33.9201 29.5272C32.0532 32.3332 28.5225 33.4302 25.4467 32.2917C25.3155 32.1905 25.1595 32.1262 24.995 32.1057C22.4813 30.9704 20.7667 28.413 20.7667 25.4674V21.6251C22.0328 21.1055 23.0838 20.1936 23.7923 19.0075C27.1344 21.2539 31.0857 22.2971 35.1167 21.9963C35.1167 25.4936 35.0882 25.3795 35.1899 25.6198C35.2615 25.7887 35.3811 25.9328 35.5339 26.0342C35.6867 26.1356 35.866 26.1898 36.0494 26.1901C37.7246 26.1901 39.077 24.83 39.0782 23.1669V15.5292C39.0806 11.4415 35.759 8.11378 31.673 8.11133H26.1624C23.3075 8.11133 20.7571 9.71444 19.5152 12.2423C18.091 12.5357 17.0156 13.7987 17.0147 15.3086V18.3962C17.0143 18.9116 17.431 19.3299 17.9466 19.3301C18.4618 19.3302 18.8809 18.9127 18.8812 18.3974V15.3097C18.8816 14.612 19.4503 14.0446 20.148 14.0446C20.3346 14.0449 20.5171 13.9892 20.6717 13.8847C20.8264 13.7802 20.9462 13.6318 21.0156 13.4585C21.8631 11.3437 23.8829 9.97799 26.1631 9.97799H31.6725C34.7286 9.97986 37.2134 12.4695 37.2116 15.5286V23.1662C37.2113 23.4135 37.1313 23.6541 36.9834 23.8522V20.9618C36.9834 20.3987 36.4873 19.9624 35.9274 20.0365C31.6497 20.604 27.4156 19.477 24.0049 16.8631C23.5075 16.4819 22.7849 16.6901 22.5641 17.2737C22.0412 18.6567 20.953 19.6737 19.5785 20.0641C19.3832 20.1195 19.2113 20.2372 19.0889 20.3992C18.9665 20.5612 18.9002 20.7588 18.9002 20.9618V25.4674C18.9002 29.0325 20.9076 32.1457 23.8894 33.646C23.6693 34.8751 22.8026 35.9143 21.5924 36.3316C17.7044 37.6722 17.8666 37.6019 17.4653 37.7984L17.254 37.7256C16.2857 37.3917 15.5864 36.571 15.3872 35.5944C16.4031 35.061 17.305 34.3029 18.021 33.3515C18.166 33.1534 18.2272 32.9062 18.1913 32.6634C18.1554 32.4206 18.0253 32.2018 17.8291 32.0542C17.633 31.9066 17.3867 31.8422 17.1434 31.8749C16.9002 31.9076 16.6796 32.0348 16.5294 32.229C15.2559 33.9214 13.2441 34.7642 11.2469 34.6099C8.14578 34.3715 5.71667 31.7019 5.71667 28.5325V25.3419C6.74777 24.8991 7.61087 24.1571 8.21427 23.2008C9.59642 24.1131 11.117 24.7958 12.7171 25.2227C13.2151 25.3561 13.7266 25.0601 13.8599 24.5621C13.8915 24.4437 13.8996 24.3203 13.8835 24.1987C13.8674 24.0772 13.8276 23.9601 13.7663 23.854C13.7049 23.7478 13.6233 23.6549 13.526 23.5803C13.4287 23.5057 13.3177 23.4511 13.1993 23.4194C11.4707 22.9573 9.86813 22.1665 8.4364 21.069C7.94045 20.6888 7.21688 20.8946 6.99557 21.4798C6.56308 22.6236 5.66382 23.4644 4.52842 23.7869C4.34067 23.8407 4.1747 23.9524 4.05417 24.1061V19.891C4.05452 19.3729 4.47592 18.9423 5.00477 18.9423C5.19142 18.9426 5.37386 18.8869 5.52853 18.7824C5.6832 18.6779 5.80298 18.5294 5.87242 18.3562C6.57743 16.5966 8.25767 15.4604 10.1547 15.4604H13.6352C13.8827 15.4604 14.1201 15.3621 14.2951 15.187C14.4702 15.012 14.5685 14.7746 14.5685 14.5271C14.5685 14.2795 14.4702 14.0421 14.2951 13.8671C14.1201 13.6921 13.8827 13.5937 13.6352 13.5937H10.1538C7.68052 13.5937 5.46828 14.9706 4.37208 17.1467C3.14685 17.4265 2.18715 18.532 2.18668 19.89V26.6855C2.18598 27.8097 2.88027 28.7646 3.8759 29.1489C4.08963 31.9209 5.7288 34.3303 8.06575 35.5807C7.87022 36.5633 7.16905 37.39 6.1964 37.7254L3.1822 38.7647C1.27878 39.4222 0 41.2165 0 43.2306V46.9577C0 47.2052 0.0983331 47.4426 0.273367 47.6177C0.448401 47.7927 0.685798 47.891 0.933333 47.891C1.18087 47.891 1.41827 47.7927 1.5933 47.6177C1.76833 47.4426 1.86667 47.2052 1.86667 46.9577V43.2306C1.86682 42.6358 2.05248 42.0558 2.39778 41.5715C2.74307 41.0872 3.23081 40.7227 3.79307 40.5287C3.79307 40.517 3.76273 40.5387 6.62597 39.5518C7.6482 41.1653 9.3779 42.2125 11.3216 42.3452C11.5664 42.3583 11.8065 42.2745 11.9901 42.112C12.1737 41.9495 12.286 41.7213 12.3027 41.4767C12.3194 41.2321 12.2392 40.9908 12.0794 40.8048C11.9197 40.6188 11.6932 40.5032 11.4488 40.4828C10.8166 40.4403 10.2024 40.2542 9.65283 39.9388C9.10324 39.6234 8.63274 39.187 8.27703 38.6626C9.02779 38.0404 9.56807 37.2015 9.82403 36.2607C11.0847 36.5773 12.3924 36.568 13.6265 36.2628C13.9501 37.4506 14.7239 38.4656 15.7837 39.0922C14.9543 40.0459 14.4667 41.285 14.4667 42.6084V46.9577C14.4667 47.2052 14.565 47.4426 14.74 47.6177C14.9151 47.7927 15.1525 47.891 15.4 47.891C15.6475 47.891 15.8849 47.7927 16.06 47.6177C16.235 47.4426 16.3333 47.2052 16.3333 46.9577V42.6084C16.3335 41.8825 16.5599 41.1747 16.981 40.5834C17.4021 39.9921 17.997 39.5468 18.683 39.3093L22.201 38.0963C23.9462 37.4945 25.2282 36.0501 25.6565 34.3123C29.3357 35.2628 33.2977 33.8327 35.4742 30.5613Z" fill="#333333"/>
<path id="Vector_2" d="M52.8121 38.7643L49.7987 37.7254C48.8307 37.3916 48.1316 36.5712 47.932 35.595C50.4153 34.2842 51.9329 31.817 52.1224 29.179C53.1684 28.8017 53.8898 27.8141 53.8905 26.6655V20.079C53.8929 16.4994 50.9988 13.5939 47.417 13.5933C42.4619 13.5925 42.4862 13.5833 42.086 13.6216C41.8396 13.645 41.6126 13.7653 41.4549 13.9561C41.2972 14.1469 41.2217 14.3925 41.2451 14.6389C41.2565 14.761 41.2919 14.8797 41.3493 14.988C41.4066 15.0964 41.4848 15.1924 41.5793 15.2706C41.6738 15.3487 41.7828 15.4074 41.9001 15.4433C42.0173 15.4792 42.1405 15.4916 42.2626 15.4798C42.5386 15.4535 42.3943 15.4592 47.4165 15.4601C49.958 15.4606 52.0256 17.5215 52.024 20.0785V24.2263C51.9327 24.0639 51.7949 23.9326 51.6282 23.8493C51.4615 23.7661 51.2737 23.7348 51.089 23.7594C48.2104 24.1411 45.3511 23.6221 42.8199 22.2584C42.712 22.2003 42.5937 22.1639 42.4718 22.1515C42.3498 22.1391 42.2266 22.1508 42.1092 22.186C41.9918 22.2212 41.8825 22.2791 41.7874 22.3566C41.6924 22.434 41.6136 22.5294 41.5555 22.6373C41.4973 22.7453 41.461 22.8636 41.4486 22.9855C41.4361 23.1074 41.4479 23.2306 41.483 23.348C41.5182 23.4655 41.5762 23.5748 41.6537 23.6698C41.7311 23.7648 41.8265 23.8436 41.9344 23.9018C44.5035 25.2859 47.3677 25.9055 50.2784 25.7145V28.62C50.2784 30.2883 49.576 31.8955 48.3511 33.0298C45.7463 35.4416 41.5739 35.1118 39.4269 32.1389C39.3552 32.0395 39.2645 31.9552 39.1602 31.8909C39.0559 31.8265 38.9399 31.7833 38.8189 31.7638C38.6979 31.7443 38.5742 31.7488 38.455 31.7771C38.3357 31.8054 38.2232 31.8569 38.1238 31.9287C37.9232 32.0736 37.7883 32.2923 37.7489 32.5367C37.7094 32.781 37.7687 33.0311 37.9136 33.2317C38.6204 34.2121 39.5429 35.0172 40.61 35.5848C40.4133 36.5655 39.7127 37.3904 38.7415 37.7254L38.5298 37.7983C38.1292 37.6019 38.2845 37.6695 34.4025 36.3313C33.8861 36.1528 33.4186 35.856 33.0373 35.4646C32.864 35.2907 32.6292 35.1921 32.3837 35.1902C32.1382 35.1882 31.9018 35.283 31.7257 35.454C31.5497 35.6251 31.448 35.8586 31.4429 36.104C31.4378 36.3495 31.5295 36.5871 31.6983 36.7653C31.8664 36.9374 32.0461 37.0979 32.236 37.2455C31.0062 39.155 28.5741 40.0508 26.3756 39.2999C26.2596 39.2602 26.137 39.2438 26.0147 39.2516C25.8923 39.2593 25.7727 39.2911 25.6627 39.3451C25.5526 39.3991 25.4543 39.4743 25.3734 39.5663C25.2924 39.6583 25.2303 39.7654 25.1908 39.8814C25.1511 39.9974 25.1347 40.12 25.1425 40.2423C25.1503 40.3646 25.1821 40.4842 25.2361 40.5943C25.2901 40.7043 25.3652 40.8026 25.4572 40.8836C25.5492 40.9646 25.6562 41.0266 25.7722 41.0662C28.869 42.1241 32.2277 40.8438 33.8869 38.1279L37.3086 39.3078C37.9954 39.5449 38.5911 39.9902 39.0129 40.5817C39.4347 41.1733 39.6615 41.8817 39.6617 42.6082V46.9576C39.6617 47.2051 39.7601 47.4425 39.9351 47.6175C40.1101 47.7926 40.3475 47.8909 40.5951 47.8909C40.8426 47.8909 41.08 47.7926 41.255 47.6175C41.4301 47.4425 41.5284 47.2051 41.5284 46.9576V42.6082C41.5284 41.2848 41.0409 40.0458 40.2114 39.092C41.2711 38.4655 42.0449 37.4507 42.3685 36.263C43.6069 36.572 44.9257 36.5732 46.1723 36.2656C46.4289 37.2045 46.9686 38.0414 47.718 38.6624C47.3623 39.1868 46.8918 39.6233 46.3422 39.9387C45.7926 40.2541 45.1784 40.4401 44.5462 40.4827C44.2993 40.4995 44.0691 40.6138 43.9064 40.8003C43.7437 40.9869 43.6617 41.2304 43.6786 41.4774C43.6954 41.7243 43.8097 41.9545 43.9962 42.1172C44.1828 42.2799 44.4263 42.3619 44.6733 42.345C46.6168 42.2123 48.3466 41.1652 49.3689 39.5518L52.2019 40.5285C52.7641 40.7225 53.2519 41.087 53.5972 41.5713C53.9425 42.0556 54.1281 42.6355 54.1283 43.2303V46.9575C54.1283 47.205 54.2266 47.4424 54.4017 47.6174C54.5767 47.7924 54.8141 47.8908 55.0616 47.8908C55.3092 47.8908 55.5466 47.7924 55.7216 47.6174C55.8966 47.4424 55.995 47.205 55.995 46.9575V43.2303C55.995 41.216 54.7158 39.4216 52.8121 38.7643Z" fill="#333333"/>
</g>
</g>
</svg>
