<svg width="56" height="56" viewBox="0 0 56 56" fill="none" xmlns="http://www.w3.org/2000/svg">
<g id="Frame">
<g id="Group">
<path id="Vector" d="M12.5865 25.2148C11.719 25.172 10.9222 25.482 10.2841 26.1114C7.47633 28.8811 11.008 35.9204 12.6569 38.8184C12.7175 38.925 12.7984 39.0185 12.8952 39.0938C12.992 39.169 13.1026 39.2245 13.2208 39.2569C13.339 39.2894 13.4624 39.2983 13.584 39.283C13.7056 39.2678 13.8231 39.2287 13.9296 39.1681C14.0361 39.1075 14.1297 39.0265 14.2049 38.9297C14.2801 38.8329 14.3356 38.7223 14.368 38.6041C14.4005 38.4859 14.4094 38.3625 14.3941 38.2409C14.3789 38.1193 14.3398 38.0019 14.2792 37.8954C11.9795 33.8532 10.1586 28.8573 11.595 27.4404C11.8656 27.1732 12.1435 27.0618 12.4944 27.0793C13.159 27.1122 14.692 27.67 17.4901 31.0366C21.6344 36.0229 20.8934 38.4424 20.1764 40.7821C19.5332 42.8816 19.157 45.0254 19.0582 47.1538L18.7965 52.7899C18.7896 52.9131 18.8071 53.0364 18.8481 53.1527C18.8891 53.2691 18.9528 53.3761 19.0354 53.4677C19.118 53.5593 19.218 53.6336 19.3295 53.6863C19.441 53.739 19.5619 53.7691 19.6851 53.7748C19.8083 53.7805 19.9314 53.7617 20.0473 53.7196C20.1633 53.6774 20.2697 53.6127 20.3604 53.5292C20.4512 53.4457 20.5245 53.345 20.5761 53.2329C20.6277 53.1209 20.6566 52.9998 20.6611 52.8765L20.9228 47.2404C21.0142 45.268 21.3636 43.2791 21.9612 41.3289C22.9205 38.1975 23.3541 35.1719 18.9254 29.8434C16.409 26.8153 14.3353 25.3013 12.5865 25.2148Z" fill="#333333"/>
<path id="Vector_2" d="M8.71885 19.8309L10.3321 7.9682C10.5482 6.3805 9.60177 4.85976 8.08197 4.35227C6.24903 3.74036 4.27633 4.81146 3.79252 6.68325L0.35905 19.9708C-0.167295 22.0072 -0.114037 24.1502 0.512815 26.158L5.72894 42.5004C6.04744 43.5232 6.01617 44.6276 5.63841 45.694L3.21969 52.5217C3.141 52.754 3.15694 53.008 3.26406 53.2287C3.37118 53.4494 3.56087 53.619 3.79211 53.7009C4.02334 53.7829 4.27752 53.7705 4.49968 53.6664C4.72184 53.5624 4.89412 53.3751 4.97924 53.145L7.39796 46.3174C7.9114 44.8679 7.95049 43.3562 7.50914 41.9392L2.29302 25.5967C1.77112 23.9225 1.72724 22.1357 2.16632 20.4378L5.59991 7.15014C5.64955 6.9544 5.73937 6.77112 5.86366 6.61195C5.98794 6.45278 6.14397 6.3212 6.32183 6.22557C7.38092 5.65006 8.6443 6.52692 8.4826 7.71667L6.86923 19.5795C6.70834 20.7562 6.89467 21.9542 7.40531 23.0265C7.45793 23.1372 7.53183 23.2364 7.62281 23.3186C7.71379 23.4007 7.82005 23.4641 7.93554 23.5052C8.05102 23.5463 8.17346 23.5642 8.29587 23.5579C8.41828 23.5517 8.53826 23.5214 8.64896 23.4688C8.75966 23.4161 8.85892 23.3422 8.94105 23.2513C9.02319 23.1603 9.0866 23.054 9.12767 22.9385C9.16874 22.823 9.18666 22.7006 9.18041 22.5782C9.17416 22.4558 9.14386 22.3358 9.09124 22.2251C8.7366 21.4803 8.60717 20.6482 8.71885 19.8309ZM43.4128 25.215C41.664 25.3015 39.5903 26.8155 37.0736 29.8436C32.645 35.172 33.0786 38.1976 34.0379 41.3291C34.6354 43.2793 34.9848 45.2681 35.0763 47.2406L35.338 52.8767C35.3425 52.9999 35.3715 53.121 35.4231 53.233C35.4747 53.345 35.548 53.4457 35.6388 53.5292C35.7295 53.6127 35.8359 53.6773 35.9518 53.7195C36.0677 53.7616 36.1908 53.7803 36.314 53.7746C36.4372 53.7689 36.558 53.7388 36.6695 53.6861C36.781 53.6334 36.881 53.5591 36.9636 53.4676C37.0462 53.376 37.1099 53.269 37.1509 53.1527C37.1919 53.0364 37.2094 52.9131 37.2025 52.79L36.9409 47.1539C36.842 45.0254 36.4659 42.8817 35.8226 40.7822C35.1057 38.4424 34.3646 36.023 38.509 31.0366C41.3071 27.67 42.8401 27.1122 43.5047 27.0793C43.8573 27.0619 44.1333 27.1732 44.4041 27.4404C45.8406 28.8574 44.0196 33.8533 41.7198 37.8954C41.6592 38.0019 41.6201 38.1193 41.6049 38.241C41.5897 38.3626 41.5985 38.486 41.631 38.6042C41.6635 38.7224 41.7189 38.833 41.7941 38.9298C41.8694 39.0265 41.9629 39.1075 42.0695 39.1681C42.176 39.2287 42.2934 39.2678 42.415 39.283C42.5367 39.2983 42.6601 39.2894 42.7783 39.2569C42.8965 39.2245 43.0071 39.169 43.1039 39.0938C43.2006 39.0186 43.2816 38.925 43.3422 38.8185C44.991 35.9205 48.5227 28.8811 45.7149 26.1115C45.0769 25.4821 44.2809 25.1722 43.4128 25.215Z" fill="#333333"/>
<path id="Vector_3" d="M55.4866 26.1519C56.112 24.1459 56.1645 22.0051 55.6384 19.9709L52.2049 6.68333C51.7213 4.81213 49.7491 3.74009 47.9155 4.35224C46.3957 4.85985 45.4493 6.38058 45.6653 7.96817L47.2786 19.8309C47.3782 20.5666 47.2835 21.3157 47.0039 22.0035C46.9141 22.2321 46.918 22.4868 47.0147 22.7125C47.1115 22.9382 47.2932 23.1166 47.5206 23.2093C47.748 23.3019 48.0028 23.3011 48.2296 23.2072C48.4565 23.1133 48.6373 22.9338 48.7327 22.7076C49.1355 21.7173 49.2719 20.6388 49.1283 19.5794L47.5148 7.71664C47.4689 7.37706 47.5429 7.03211 47.7239 6.74118C47.905 6.45025 48.1818 6.23155 48.5067 6.12275C49.3166 5.85244 50.1838 6.32318 50.3975 7.15023L53.831 20.4377C54.2699 22.1335 54.2268 23.918 53.7064 25.5905L48.4864 41.9454C48.047 43.3563 48.086 44.868 48.5996 46.3175L51.0183 53.1451C51.0827 53.327 51.2019 53.4844 51.3594 53.5958C51.517 53.7071 51.7052 53.767 51.8981 53.767C52.5385 53.767 52.9939 53.1317 52.7779 52.5217L50.3592 45.6941C49.9814 44.6277 49.95 43.5234 50.2666 42.5068L55.4866 26.1519ZM43.0279 14.21C44.0184 9.12911 42.426 6.23965 40.9157 4.71028C38.9265 2.69628 35.8414 1.83902 32.6642 2.41768C32.4207 2.46201 32.2048 2.60126 32.0639 2.8048C31.9231 3.00834 31.8688 3.2595 31.9131 3.50303C31.935 3.62365 31.9805 3.73877 32.0469 3.84181C32.1133 3.94485 32.1994 4.0338 32.3002 4.10355C32.401 4.17331 32.5146 4.22251 32.6344 4.24835C32.7543 4.27418 32.878 4.27614 32.9986 4.25412C35.5692 3.78629 38.0323 4.44708 39.5876 6.02195C41.3004 7.75619 41.8564 10.464 41.1958 13.8528C40.2988 18.4531 36.6722 24.4717 29.4021 26.2936C28.4799 26.5238 27.5153 26.5238 26.5931 26.2936C19.3232 24.4717 15.6964 18.4531 14.7995 13.8528C12.7872 3.53138 22.528 2.10537 27.3834 6.34862C27.5698 6.51149 27.8132 6.59365 28.0602 6.57702C28.3072 6.5604 28.5374 6.44634 28.7003 6.25995C28.8632 6.07357 28.9454 5.83012 28.9287 5.58315C28.9121 5.33618 28.7981 5.10593 28.6117 4.94303C22.2749 -0.59439 10.6404 2.27454 12.9671 14.21C14.2328 20.702 19.1164 26.3444 26.1392 28.1043C27.3593 28.409 28.6356 28.409 29.8556 28.1043C36.8573 26.3498 41.7579 20.7242 43.0279 14.21Z" fill="#333333"/>
<path id="Vector_4" d="M19.9557 10.4843C20.0851 10.4844 20.2132 10.4576 20.3317 10.4055C20.4502 10.3534 20.5565 10.2772 20.6438 10.1816C20.6739 10.1488 20.7046 10.1169 20.736 10.0856C20.9115 9.91111 21.0106 9.67402 21.0114 9.42648C21.0121 9.17894 20.9145 8.94123 20.7401 8.76565C20.5656 8.59007 20.3285 8.491 20.0809 8.49024C19.8334 8.48947 19.5957 8.58707 19.4201 8.76157C19.3684 8.81302 19.3177 8.86587 19.268 8.92012C18.7179 9.52013 19.1513 10.4843 19.9557 10.4843ZM18.3376 14.0443C18.8104 16.4696 20.1873 18.7463 22.1152 20.2907C22.2805 20.4235 22.4862 20.4958 22.6982 20.4957C23.576 20.4957 23.9702 19.385 23.2823 18.8339C21.6939 17.5614 20.5593 15.6854 20.1698 13.6872C20.1224 13.4442 19.9805 13.23 19.7752 13.0917C19.5699 12.9534 19.3181 12.9023 19.0751 12.9496C18.8321 12.997 18.6179 13.1389 18.4796 13.3442C18.3413 13.5495 18.2902 13.8013 18.3376 14.0443Z" fill="#333333"/>
</g>
</g>
</svg>
