<svg width="56" height="56" viewBox="0 0 56 56" fill="none" xmlns="http://www.w3.org/2000/svg">
<g id="Frame">
<g id="Group">
<path id="Vector" d="M36.956 22.9364L36.1103 18.006C36.0843 17.8542 36.0955 17.6984 36.1431 17.552C36.1907 17.4055 36.2731 17.2728 36.3834 17.1653L39.9656 13.6735C41.6367 12.0447 40.7132 9.20539 38.4048 8.86998L33.4543 8.15062C33.3019 8.12847 33.1572 8.06961 33.0326 7.97911C32.9081 7.88861 32.8074 7.76918 32.7392 7.63111L30.5253 3.14524C29.4926 1.05262 26.5068 1.05367 25.4745 3.14524L23.2606 7.63111C23.1924 7.76917 23.0918 7.8886 22.9672 7.9791C22.8427 8.0696 22.698 8.12847 22.5457 8.15062L21.0176 8.37264C20.8963 8.39025 20.7797 8.43159 20.6743 8.49429C20.569 8.55698 20.4771 8.63981 20.4038 8.73803C20.2557 8.93641 20.1925 9.18547 20.2281 9.43043C20.2637 9.6754 20.3951 9.89619 20.5935 10.0442C20.7919 10.1923 21.0409 10.2555 21.2859 10.2199L22.8141 9.99789C23.266 9.93225 23.6951 9.7577 24.0645 9.4893C24.4339 9.2209 24.7325 8.8667 24.9345 8.45722L27.1484 3.97134C27.4962 3.26669 28.5014 3.26202 28.8515 3.97134L31.0655 8.45733C31.2676 8.86677 31.5662 9.22093 31.9356 9.48931C32.305 9.75768 32.7341 9.93222 33.1859 9.99789L38.1365 10.7172C38.9163 10.8305 39.228 11.7859 38.6628 12.3369L35.0806 15.8287C34.7536 16.1474 34.5091 16.5408 34.368 16.9751C34.2269 17.4094 34.1935 17.8714 34.2707 18.3215L35.1164 23.2518C35.2494 24.0282 34.4372 24.6203 33.7385 24.2529L29.3107 21.925C28.9065 21.7125 28.4568 21.6015 28.0002 21.6015C27.5436 21.6015 27.0939 21.7125 26.6897 21.925L22.2618 24.2528C21.5664 24.6185 20.7503 24.0314 20.884 23.2518L21.7297 18.3213C21.8069 17.8713 21.7736 17.4093 21.6325 16.975C21.4913 16.5407 21.2467 16.1473 20.9197 15.8287L17.3375 12.3368C16.9826 11.991 17.003 11.5502 17.1405 11.253C17.2443 11.0283 17.2547 10.7715 17.1693 10.5392C17.0838 10.3069 16.9096 10.118 16.6849 10.0141C16.4602 9.91024 16.2034 9.89988 15.9711 9.98532C15.7388 10.0708 15.5499 10.245 15.446 10.4697C14.9368 11.5711 15.1678 12.8288 16.0345 13.6734L19.6167 17.1653C19.7269 17.2728 19.8094 17.4054 19.8569 17.5518C19.9045 17.6982 19.9158 17.854 19.8898 18.0058L19.0441 22.9362C18.6495 25.2362 21.0656 26.9907 23.1303 25.905L27.5582 23.5772C27.6944 23.5055 27.8461 23.4681 28.0001 23.4681C28.1541 23.4681 28.3057 23.5055 28.442 23.5772L32.8698 25.905C34.9348 26.9909 37.3502 25.2358 36.956 22.9364ZM19.2678 30.8951L15.2013 30.3042C15.1028 30.2899 15.0094 30.2519 14.9289 30.1935C14.8484 30.135 14.7834 30.0579 14.7394 29.9687L12.9207 26.2837C12.0111 24.4408 9.3818 24.4418 8.47274 26.2837L6.65406 29.9687C6.61006 30.0579 6.54502 30.135 6.46456 30.1935C6.38409 30.2519 6.29061 30.2899 6.19218 30.3042L2.1256 30.8951C0.091902 31.1907 -0.719851 33.6917 0.751058 35.1254L3.69369 37.9937C3.76492 38.0631 3.8182 38.1488 3.84895 38.2434C3.8797 38.338 3.887 38.4386 3.87021 38.5366L3.17547 42.5869C2.82804 44.6123 4.95577 46.1572 6.77387 45.2014L10.4112 43.2891C10.4993 43.2428 10.5972 43.2186 10.6967 43.2186C10.7961 43.2186 10.8941 43.2428 10.9821 43.2891L14.6195 45.2014C16.4384 46.1577 18.5652 44.6115 18.2179 42.5869L17.5231 38.5368C17.5063 38.4387 17.5136 38.338 17.5444 38.2434C17.5751 38.1488 17.6284 38.0631 17.6996 37.9937C17.7874 37.9081 17.8575 37.8061 17.9058 37.6935C17.9541 37.5809 17.9798 37.4598 17.9814 37.3373C17.9829 37.2147 17.9604 37.093 17.9149 36.9792C17.8694 36.8654 17.802 36.7616 17.7164 36.6739C17.6309 36.5861 17.5289 36.516 17.4162 36.4677C17.3036 36.4194 17.1826 36.3937 17.06 36.3921C16.9374 36.3906 16.8158 36.4132 16.702 36.4586C16.5881 36.5041 16.4844 36.5715 16.3966 36.6571C16.1087 36.9377 15.8933 37.2842 15.7691 37.6666C15.6448 38.049 15.6154 38.4559 15.6834 38.8522L16.3782 42.9024C16.4643 43.4044 15.9392 43.7862 15.4881 43.549L11.8509 41.6368C11.495 41.4496 11.0989 41.3518 10.6968 41.3518C10.2947 41.3518 9.89858 41.4496 9.54268 41.6368L5.9053 43.549C5.4544 43.7862 4.92917 43.4044 5.01527 42.9024L5.71001 38.852C5.77801 38.4557 5.74862 38.0488 5.62436 37.6664C5.50009 37.284 5.28469 36.9376 4.99672 36.6569L2.05397 33.7887C1.68916 33.4332 1.88994 32.8155 2.39405 32.7424L6.46063 32.1515C6.85856 32.0937 7.23646 31.94 7.56177 31.7036C7.88708 31.4673 8.15003 31.1554 8.32796 30.7948L10.1466 27.1098C10.3716 26.654 11.0211 26.6521 11.2469 27.1098L13.0656 30.7948C13.2435 31.1554 13.5065 31.4673 13.8318 31.7036C14.1571 31.94 14.535 32.0937 14.9329 32.1515L18.9995 32.7424C19.3362 32.7913 19.5058 33.0632 19.5246 33.3109C19.5333 33.4335 19.5662 33.5532 19.6213 33.6631C19.6764 33.773 19.7527 33.8709 19.8458 33.9513C19.9388 34.0316 20.0468 34.0927 20.1636 34.1312C20.2804 34.1697 20.4036 34.1847 20.5262 34.1754C20.6488 34.1661 20.7683 34.1327 20.8779 34.077C20.9876 34.0214 21.0851 33.9446 21.165 33.8512C21.2449 33.7578 21.3055 33.6494 21.3434 33.5325C21.3813 33.4155 21.3958 33.2923 21.3859 33.1697C21.2971 31.9988 20.4261 31.0633 19.2678 30.8951ZM55.2488 35.1254C56.7204 33.691 55.9073 31.1905 53.8743 30.8951C53.6294 30.8595 53.3803 30.9227 53.1819 31.0708C52.9836 31.2188 52.8521 31.4396 52.8165 31.6846C52.781 31.9295 52.8441 32.1786 52.9922 32.377C53.1402 32.5754 53.361 32.7068 53.606 32.7424C54.1103 32.8155 54.3107 33.4332 53.946 33.7887L51.0033 36.6571C50.7153 36.9377 50.4999 37.2842 50.3757 37.6666C50.2514 38.0491 50.222 38.456 50.29 38.8523L50.9848 42.9025C51.0709 43.4052 50.5448 43.7861 50.0946 43.5492L46.4573 41.6369C46.1014 41.4497 45.7053 41.352 45.3032 41.352C44.9011 41.352 44.5051 41.4497 44.1492 41.6369L40.5118 43.5492C40.0611 43.7864 39.5357 43.4045 39.6216 42.9025L40.3164 38.8521C40.3844 38.4558 40.355 38.0489 40.2307 37.6665C40.1064 37.2841 39.891 36.9377 39.6031 36.6571L36.6605 33.7886C36.2955 33.4329 36.4963 32.8155 37.0004 32.7424L41.067 32.1515C41.4649 32.0937 41.8429 31.94 42.1682 31.7037C42.4935 31.4673 42.7564 31.1554 42.9343 30.7948L44.753 27.1098C44.9789 26.6521 45.6282 26.654 45.8533 27.1098L47.672 30.7948C47.7815 31.0168 47.9748 31.1861 48.2092 31.2656C48.3253 31.305 48.4479 31.3211 48.5702 31.313C48.6925 31.305 48.8121 31.2729 48.922 31.2187C49.0319 31.1644 49.13 31.0891 49.2108 30.9969C49.2916 30.9047 49.3534 30.7975 49.3928 30.6815C49.4322 30.5654 49.4483 30.4427 49.4402 30.3204C49.4322 30.1981 49.4001 30.0786 49.3459 29.9687L47.5272 26.2837C46.6176 24.4408 43.9883 24.4418 43.0792 26.2837L41.2605 29.9688C41.2165 30.058 41.1515 30.1351 41.071 30.1935C40.9906 30.252 40.8971 30.2899 40.7987 30.3042L36.7321 30.8951C34.6982 31.1907 33.8866 33.6917 35.3577 35.1254L38.3003 37.9938C38.3715 38.0632 38.4248 38.1489 38.4555 38.2435C38.4863 38.3381 38.4936 38.4387 38.4768 38.5368L37.7821 42.587C37.4346 44.6123 39.5621 46.1573 41.3806 45.2015L45.018 43.2892C45.106 43.2429 45.204 43.2187 45.3034 43.2187C45.4029 43.2187 45.5009 43.2429 45.5889 43.2892L49.2263 45.2015C51.0405 46.1554 53.1725 44.6141 52.8248 42.587L52.1301 38.5369C52.1133 38.4388 52.1206 38.3382 52.1513 38.2436C52.1821 38.1489 52.2353 38.0632 52.3066 37.9938L55.2488 35.1254ZM47.7563 10.8686C47.843 10.9552 47.9459 11.024 48.0591 11.0709C48.1724 11.1178 48.2937 11.1419 48.4163 11.1419C48.5389 11.1419 48.6602 11.1178 48.7735 11.0709C48.8867 11.024 48.9896 10.9552 49.0763 10.8686L50.0496 9.89523L51.0229 10.8686C51.1094 10.9561 51.2123 11.0257 51.3258 11.0733C51.4392 11.1209 51.561 11.1456 51.684 11.146C51.8071 11.1463 51.929 11.1224 52.0427 11.0755C52.1565 11.0286 52.2598 10.9596 52.3468 10.8726C52.4338 10.7856 52.5028 10.6823 52.5497 10.5685C52.5966 10.4548 52.6206 10.3329 52.6202 10.2099C52.6199 10.0868 52.5952 9.96507 52.5476 9.8516C52.5 9.73814 52.4304 9.63521 52.3429 9.54873L51.3695 8.5754L52.3429 7.60206C52.4304 7.51559 52.5 7.41266 52.5476 7.29919C52.5952 7.18573 52.6199 7.06398 52.6202 6.94094C52.6206 6.8179 52.5966 6.696 52.5497 6.58225C52.5028 6.4685 52.4338 6.36516 52.3468 6.27816C52.2598 6.19116 52.1565 6.12222 52.0427 6.07531C51.929 6.02841 51.8071 6.00445 51.684 6.00483C51.561 6.00521 51.4392 6.02991 51.3258 6.07752C51.2123 6.12513 51.1094 6.1947 51.0229 6.28224L50.0496 7.25557L49.0763 6.28224C48.9009 6.10895 48.6641 6.01211 48.4175 6.01284C48.171 6.01358 47.9347 6.11184 47.7604 6.28617C47.586 6.4605 47.4877 6.69673 47.487 6.94328C47.4862 7.18983 47.583 7.42666 47.7563 7.60206L48.7297 8.5754L47.7563 9.54873C47.5813 9.72376 47.483 9.96114 47.483 10.2086C47.483 10.4562 47.5813 10.6935 47.7563 10.8686ZM6.80701 20.2017C6.89366 20.2884 6.99654 20.3572 7.10977 20.4041C7.223 20.451 7.34436 20.4751 7.46692 20.4751C7.58948 20.4751 7.71084 20.451 7.82407 20.4041C7.93729 20.3572 8.04018 20.2884 8.12683 20.2017L9.10017 19.2284L10.0735 20.2017C10.1602 20.2884 10.263 20.3572 10.3763 20.4041C10.4895 20.451 10.6109 20.4751 10.7334 20.4751C10.856 20.4751 10.9773 20.451 11.0906 20.4041C11.2038 20.3572 11.3067 20.2884 11.3933 20.2017C11.48 20.1151 11.5488 20.0122 11.5957 19.899C11.6426 19.7858 11.6667 19.6644 11.6667 19.5418C11.6667 19.4193 11.6426 19.2979 11.5957 19.1847C11.5488 19.0714 11.48 18.9686 11.3933 18.8819L10.42 17.9086L11.3933 16.9352C11.48 16.8486 11.5488 16.7457 11.5957 16.6325C11.6426 16.5193 11.6667 16.3979 11.6667 16.2753C11.6667 16.1528 11.6426 16.0314 11.5957 15.9182C11.5488 15.8049 11.48 15.7021 11.3933 15.6154C11.2183 15.4404 10.9809 15.3421 10.7334 15.3421C10.4859 15.3421 10.2485 15.4404 10.0735 15.6154L9.10017 16.5887L8.12683 15.6154C7.95181 15.4404 7.71443 15.3421 7.46692 15.3421C7.21941 15.3421 6.98203 15.4404 6.80701 15.6154C6.72032 15.7021 6.65156 15.8049 6.60465 15.9182C6.55773 16.0314 6.53359 16.1528 6.53359 16.2753C6.53359 16.3979 6.55773 16.5193 6.60465 16.6325C6.65156 16.7457 6.72032 16.8486 6.80701 16.9352L7.78034 17.9086L6.80701 18.8819C6.632 19.0569 6.53368 19.2943 6.53368 19.5418C6.53368 19.7893 6.632 20.0267 6.80701 20.2017ZM44.8763 48.048C44.7897 47.9613 44.6868 47.8926 44.5735 47.8456C44.4603 47.7987 44.3389 47.7746 44.2164 47.7746C44.0938 47.7746 43.9724 47.7987 43.8592 47.8456C43.7459 47.8926 43.6431 47.9613 43.5564 48.048L42.5831 49.0213L41.6097 48.048C41.4343 47.8747 41.1975 47.7778 40.951 47.7786C40.7044 47.7793 40.4682 47.8776 40.2938 48.0519C40.1195 48.2262 40.0212 48.4625 40.0204 48.709C40.0197 48.9556 40.1165 49.1924 40.2898 49.3678L41.2631 50.3411L40.2898 51.3145C40.2023 51.4009 40.1327 51.5039 40.0851 51.6173C40.0375 51.7308 40.0128 51.8526 40.0124 51.9756C40.0121 52.0986 40.036 52.2205 40.0829 52.3343C40.1299 52.448 40.1988 52.5514 40.2858 52.6384C40.3728 52.7254 40.4762 52.7943 40.5899 52.8412C40.7037 52.8881 40.8256 52.9121 40.9486 52.9117C41.0717 52.9113 41.1934 52.8866 41.3069 52.839C41.4203 52.7914 41.5233 52.7218 41.6097 52.6343L42.5831 51.661L43.5564 52.6343C43.6429 52.7218 43.7458 52.7914 43.8592 52.839C43.9727 52.8866 44.0945 52.9113 44.2175 52.9117C44.3405 52.9121 44.4624 52.8881 44.5762 52.8412C44.6899 52.7943 44.7933 52.7254 44.8803 52.6384C44.9673 52.5514 45.0362 52.448 45.0832 52.3343C45.1301 52.2205 45.154 52.0986 45.1537 51.9756C45.1533 51.8526 45.1286 51.7308 45.081 51.6173C45.0334 51.5039 44.9639 51.4009 44.8763 51.3145L43.903 50.3411L44.8763 49.3678C45.0513 49.1928 45.1497 48.9554 45.1497 48.7079C45.1497 48.4604 45.0513 48.223 44.8763 48.048ZM27.9599 40.3481C27.7849 40.1731 27.5475 40.0748 27.3 40.0748C27.0525 40.0748 26.8152 40.1731 26.6401 40.3481L25.6668 41.3214L24.6935 40.3481C24.5184 40.1731 24.2811 40.0748 24.0335 40.0748C23.786 40.0748 23.5487 40.1731 23.3736 40.3481C23.2869 40.4347 23.2182 40.5376 23.1713 40.6509C23.1244 40.7641 23.1002 40.8855 23.1002 41.008C23.1002 41.1306 23.1244 41.2519 23.1713 41.3652C23.2182 41.4784 23.2869 41.5813 23.3736 41.6679L24.347 42.6413L23.3736 43.6146C23.2869 43.7012 23.2182 43.8041 23.1713 43.9174C23.1244 44.0306 23.1002 44.152 23.1002 44.2745C23.1002 44.3971 23.1244 44.5184 23.1713 44.6317C23.2182 44.7449 23.2869 44.8478 23.3736 44.9344C23.4603 45.0211 23.5632 45.0898 23.6764 45.1367C23.7896 45.1837 23.911 45.2078 24.0335 45.2078C24.1561 45.2078 24.2775 45.1837 24.3907 45.1367C24.5039 45.0898 24.6068 45.0211 24.6935 44.9344L25.6668 43.9611L26.6401 44.9344C26.7268 45.0211 26.8297 45.0898 26.9429 45.1367C27.0561 45.1837 27.1775 45.2078 27.3 45.2078C27.4226 45.2078 27.544 45.1837 27.6572 45.1367C27.7704 45.0898 27.8733 45.0211 27.9599 44.9344C28.0466 44.8478 28.1154 44.7449 28.1623 44.6317C28.2092 44.5184 28.2334 44.3971 28.2334 44.2745C28.2334 44.152 28.2092 44.0306 28.1623 43.9174C28.1154 43.8041 28.0466 43.7012 27.9599 43.6146L26.9866 42.6413L27.9599 41.6679C28.135 41.4929 28.2333 41.2555 28.2333 41.008C28.2333 40.7605 28.135 40.5231 27.9599 40.3481ZM9.06027 49.5646C8.88524 49.3896 8.64787 49.2913 8.40035 49.2913C8.15284 49.2913 7.91547 49.3896 7.74044 49.5646L6.76711 50.538L5.79377 49.5646C5.61875 49.3896 5.38137 49.2913 5.13386 49.2913C4.88635 49.2913 4.64897 49.3896 4.47395 49.5646C4.38726 49.6513 4.3185 49.7541 4.27159 49.8674C4.22467 49.9806 4.20053 50.102 4.20053 50.2245C4.20053 50.3471 4.22467 50.4685 4.27159 50.5817C4.3185 50.6949 4.38726 50.7978 4.47395 50.8844L5.44728 51.8578L4.47395 52.8311C4.38726 52.9178 4.3185 53.0206 4.27159 53.1339C4.22467 53.2471 4.20053 53.3685 4.20053 53.491C4.20053 53.6136 4.22467 53.735 4.27159 53.8482C4.3185 53.9614 4.38726 54.0643 4.47395 54.1509C4.5606 54.2376 4.66348 54.3064 4.77671 54.3533C4.88994 54.4002 5.0113 54.4243 5.13386 54.4243C5.25642 54.4243 5.37778 54.4002 5.49101 54.3533C5.60424 54.3064 5.70712 54.2376 5.79377 54.1509L6.76711 53.1776L7.74044 54.1509C7.8271 54.2376 7.92998 54.3064 8.04321 54.3533C8.15644 54.4002 8.27779 54.4243 8.40035 54.4243C8.52291 54.4243 8.64427 54.4002 8.7575 54.3533C8.87073 54.3064 8.97361 54.2376 9.06027 54.1509C9.14695 54.0643 9.21571 53.9614 9.26263 53.8482C9.30954 53.735 9.33369 53.6136 9.33369 53.491C9.33369 53.3685 9.30954 53.2471 9.26263 53.1339C9.21571 53.0206 9.14695 52.9178 9.06027 52.8311L8.08693 51.8578L9.06027 50.8844C9.23527 50.7094 9.33359 50.472 9.33359 50.2245C9.33359 49.977 9.23527 49.7396 9.06027 49.5646Z" fill="#333333"/>
</g>
</g>
</svg>
