<svg width="56" height="56" viewBox="0 0 56 56" fill="none" xmlns="http://www.w3.org/2000/svg">
<g id="Frame" clip-path="url(#clip0_2154_38534)">
<g id="Group">
<path id="Vector" d="M28.1682 46.7255L19.484 39.4987C18.4842 38.7423 17.3627 40.0933 18.2913 40.9333C18.2946 40.9359 26.9742 48.1604 26.9742 48.1604C27.864 48.9008 27.5358 49.8395 27.2016 50.2773C26.7789 50.8308 25.9923 51.1884 25.0515 50.5312C19.2805 46.4986 5.92168 39.5931 2.51197 24.3353C0.550168 15.5569 3.35778 10.8651 6.05841 8.47499C9.89873 5.07636 16.0602 4.18937 21.7555 6.21476C21.9879 6.29439 22.2424 6.27919 22.4636 6.17245C22.6849 6.06572 22.8551 5.87605 22.9374 5.64459C23.0198 5.41313 23.0075 5.15855 22.9033 4.93608C22.7991 4.7136 22.6115 4.54117 22.381 4.45618C10.836 0.349757 -3.30309 6.87274 0.69028 24.7425C3.84741 38.8698 14.9252 46.1099 21.5438 50.4356C22.4365 51.0192 23.2796 51.5703 23.9823 52.0612C27.6861 54.649 31.448 49.4547 28.1682 46.7255Z" fill="#333333"/>
<path id="Vector_2" d="M34.293 43.9182C34.018 43.6603 23.9024 35.6728 23.55 35.384C22.9234 34.9303 22.3869 35.3302 22.23 35.5279C22.0731 35.7255 21.807 36.3373 22.3906 36.8452C22.3943 36.848 33.0586 45.3196 33.0586 45.3196C33.4576 45.7087 33.6586 46.1641 33.6566 46.6763C33.654 47.35 33.2921 48.0495 32.7123 48.5017C32.5171 48.6539 32.3904 48.8774 32.3601 49.1231C32.3297 49.3688 32.3982 49.6164 32.5504 49.8116C32.7027 50.0068 32.9262 50.1335 33.1719 50.1638C33.4176 50.1942 33.6652 50.1257 33.8604 49.9735C35.9027 48.3804 36.0797 45.5049 34.293 43.9182ZM39.7319 28.255C39.5898 28.0523 39.3731 27.9144 39.1293 27.8715C38.8855 27.8287 38.6346 27.8844 38.432 28.0265C38.2293 28.1686 38.0913 28.3853 38.0485 28.6291C38.0056 28.8729 38.0613 29.1238 38.2034 29.3265L44.6263 38.4896C46.0623 40.5384 43.4208 43.0734 41.5585 41.4987L28.51 30.4659C27.7676 29.8924 27.1894 30.5583 27.1834 30.5654C27.1776 30.5724 26.6002 31.27 27.3045 31.8895L38.5304 41.4117C39.0997 41.8946 39.3902 42.4584 39.3936 43.0874C39.3972 43.7481 39.0709 44.4272 38.521 44.9041C38.3339 45.0663 38.219 45.2961 38.2014 45.543C38.1838 45.7899 38.265 46.0336 38.4272 46.2207C38.7658 46.6114 39.3552 46.6512 39.7437 46.3146C40.5882 45.5824 41.1291 44.5527 41.2393 43.4967C44.7456 45.1529 48.5776 40.8747 46.1548 37.4183L39.7319 28.255Z" fill="#333333"/>
<path id="Vector_3" d="M54.8275 12.5233C50.6481 1.68028 36.1647 0.499886 27.4514 8.11472C27.4514 8.11472 18.1644 16.218 18.1495 16.2329C15.9925 18.3899 15.8351 21.8581 17.7912 24.1285C19.5918 26.2183 22.6338 26.7413 25.0247 25.3721L32.4526 21.1184L34.9017 24.6125C35.039 24.8085 35.2463 24.9442 35.4808 24.9915C39.1949 25.7427 42.3143 25.057 44.5012 23.0077C44.5916 22.9241 44.6646 22.8235 44.7159 22.7116C44.7673 22.5997 44.796 22.4788 44.8004 22.3558C44.8048 22.2327 44.7848 22.1101 44.7416 21.9948C44.6984 21.8795 44.6329 21.7739 44.5487 21.6841C44.4645 21.5943 44.3634 21.522 44.2511 21.4714C44.1389 21.4208 44.0178 21.393 43.8947 21.3894C43.7717 21.3858 43.6491 21.4067 43.5341 21.4507C43.4192 21.4946 43.314 21.561 43.2248 21.6458C41.5409 23.2236 39.183 23.756 36.2126 23.2306L33.4923 19.3495C33.3587 19.1588 33.1587 19.025 32.9315 18.9742C32.7043 18.9235 32.4663 18.9595 32.2643 19.0752L24.0972 23.7521C22.4808 24.6777 20.4235 24.3235 19.2054 22.9099C17.89 21.3832 17.9984 19.0452 19.4483 17.5741L28.6792 9.52062C34.0995 4.78399 42.1445 3.7136 47.8085 6.97597C53.1371 10.0453 55.1976 16.2191 53.6104 24.3606C52.9205 27.8988 51.5283 31.4455 49.5839 34.6168C49.5198 34.7213 49.4769 34.8374 49.4577 34.9585C49.4385 35.0795 49.4434 35.2032 49.472 35.3223C49.5005 35.4415 49.5523 35.5539 49.6244 35.6531C49.6964 35.7523 49.7872 35.8363 49.8917 35.9004C49.9962 35.9644 50.1123 36.0073 50.2334 36.0265C50.3544 36.0457 50.4781 36.0408 50.5972 36.0122C50.7164 35.9837 50.8288 35.9319 50.928 35.8598C51.0272 35.7878 51.1112 35.697 51.1753 35.5925C55.1727 29.0722 57.5668 19.6299 54.8275 12.5233Z" fill="#333333"/>
</g>
</g>
<defs>
<clipPath id="clip0_2154_38534">
<rect width="56" height="56" fill="white"/>
</clipPath>
</defs>
</svg>
