<svg width="96" height="96" viewBox="0 0 96 96" fill="none" xmlns="http://www.w3.org/2000/svg">
<g clip-path="url(#clip0_3263_43433)">
<rect x="6.75" y="49.272" width="3.75" height="41.8623" rx="1.875" transform="rotate(-8 6.75 49.272)" fill="#42434D"/>
<path d="M96.0025 61.3402C96.0523 64.9003 93.1739 67.9107 89.5099 67.9107H63.8794C60.6482 67.9107 57.8889 65.528 57.4474 62.3055C57.4201 62.1083 52.5686 26.9391 52.3118 25.0813C51.775 21.1793 54.8049 17.7014 58.7437 17.7014H84.3743C87.6184 17.7014 90.3648 20.095 90.8063 23.3067C92.5411 35.8952 95.9965 60.6706 96.0025 61.3402Z" fill="#5567EA"/>
<path d="M96.0025 61.3402C96.0523 64.9003 93.1739 67.9107 89.5099 67.9107H63.8794C60.6476 67.9107 57.8885 65.5269 57.4474 62.3055C57.2429 60.8317 56.7347 57.1337 52.3118 25.0813C51.775 21.1793 54.8049 17.7014 58.7437 17.7014H75.6656C75.7242 18.1265 80.129 50.0862 80.9116 55.735C81.3509 58.9531 84.1081 61.3402 87.3436 61.3402H96.0025Z" fill="#4F5BB2"/>
<path d="M71.6662 51.2183C71.6428 51.2261 60.8887 66.9226 60.7586 67.1121C59.0095 66.1543 57.7348 64.4047 57.4474 62.3055C57.1323 60.035 58.0168 66.4302 52.3118 25.0813C51.775 21.1793 54.8049 17.7014 58.7437 17.7014H68.7233C70.5068 30.6271 69.6918 24.7184 72.6535 46.1887C72.8958 47.9417 72.56 49.87 71.6662 51.2183Z" fill="#42434D"/>
<path d="M66.0685 54.0599H6.92542C6.21319 48.8972 0.732363 9.15784 0 3.85059H61.0541C64.5125 3.85059 67.4428 6.40217 67.9146 9.83026C67.9176 9.85211 72.9219 46.1671 72.929 46.1887C73.509 50.3764 70.2433 54.0599 66.0685 54.0599Z" fill="#5567EA"/>
<path d="M31.5531 37.6182L24.7698 35.8021C24.6756 35.9913 24.3552 35.8021 24.3176 35.8967L24.2422 35.9535L24.3176 36.0102C24.3364 36.0481 24.3552 36.067 24.3929 36.0859C26.2772 36.7669 31.8923 38.0911 31.9488 38.0911L32.759 38.2803L31.7604 37.675L31.5531 37.6182Z" fill="white"/>
<path d="M31.941 34.384L31.7337 33.9678L24.8562 34.3083L25.1011 34.2894L24.5547 34.7245L31.9033 34.384H31.941Z" fill="white"/>
<path d="M36.0558 26.5335C36.0558 26.5335 36.0746 26.5335 36.0746 26.5146C36.3007 26.4389 36.7153 26.3254 36.6587 26.1741C36.6022 26.0227 36.0746 26.1741 35.9427 26.2119C35.8108 26.2497 35.3209 26.3065 35.2079 26.3254C35.5282 26.3632 35.9804 26.2497 35.9804 26.2497C35.9804 26.2497 35.6789 26.42 35.3209 26.4389C35.2644 26.4389 35.2079 26.4389 35.1325 26.4389C34.9817 26.4389 34.8122 26.42 34.6426 26.3821C34.6237 26.3821 34.6049 26.3821 34.5672 26.3821C34.3976 26.3443 34.2469 26.3254 34.1904 26.2876C34.0773 26.2308 33.7005 26.0984 33.6062 26.0795H33.5874C33.5874 26.0795 33.5874 26.0795 33.6062 26.0795C33.6816 26.0984 34.0396 26.0984 34.3599 26.2119C34.718 26.3254 35.0948 26.3443 35.7355 26.1362C35.7355 26.1362 35.7543 26.1362 35.7543 26.1173C36.0935 26.0227 36.3949 25.966 36.5834 25.9849C36.5834 25.9849 36.5834 25.9849 36.6022 25.9849C36.753 26.0038 36.8472 26.0606 36.8283 26.2119C36.7906 26.3821 36.5645 26.4578 36.3761 26.4957C36.3384 26.4957 36.3196 26.5146 36.3007 26.5146C36.1688 26.5335 36.0558 26.5335 36.0558 26.5335ZM34.6803 26.8929C34.6426 26.8929 34.6049 26.8929 34.5484 26.8929C34.4918 26.8929 34.4165 26.8929 34.3599 26.874C34.3223 26.874 34.2846 26.8551 34.2469 26.8551C34.228 26.8362 34.2092 26.8362 34.1715 26.8173C34.1715 26.8173 34.0396 26.6848 34.2657 26.6281C34.4918 26.5713 35.0571 26.6848 35.1702 26.6848C35.0948 26.7227 34.9252 26.8551 34.6803 26.8929ZM35.1513 26.193C35.1325 26.193 35.1325 26.193 35.1136 26.193C34.8875 26.2119 34.5861 26.193 34.4542 26.1551C34.2469 26.1173 33.6251 26.0038 33.5497 26.0227C33.5497 26.0227 33.5686 26.0038 33.6062 26.0038C33.6062 25.9849 33.6251 25.9849 33.6251 25.9849C33.7193 25.966 33.8889 25.947 34.1527 26.0227C34.5672 26.1362 35.189 26.193 35.3398 26.1551C35.3021 26.1741 35.2455 26.193 35.1513 26.193ZM37.0167 25.7957C36.8283 25.6633 36.4703 25.72 35.8108 25.8525C35.7355 25.8714 35.6601 25.8903 35.6036 25.9092C34.9629 26.0227 34.1904 25.8335 34.0961 25.7957C34.0208 25.7579 33.6816 25.6822 33.4555 25.7768C33.3236 25.8146 33.2671 25.8903 33.2294 25.947C33.1917 26.0416 33.1917 26.1362 33.2482 26.2308C33.3236 26.3632 33.4932 26.4578 33.6816 26.5146C33.6251 26.5902 33.5874 26.6848 33.5874 26.7983C33.5874 26.874 33.6062 26.9686 33.7193 27.0443C33.8324 27.1199 34.0019 27.1767 34.1715 27.1956C34.228 27.328 34.3223 27.5361 34.3411 27.5929L34.3976 27.7064H34.5107C34.5484 27.7253 34.5861 27.7253 34.6426 27.7253C34.718 27.7253 34.7745 27.7253 34.7745 27.7253L34.9817 27.7064L34.9629 27.5929H35.0571L34.9441 27.5172V27.4983C34.9441 27.4794 34.9252 27.328 34.8687 27.1578C34.8875 27.1578 34.9064 27.1578 34.9064 27.1578H34.9252C35.1513 27.0821 35.5093 26.9497 35.7166 26.7794C36.1123 26.7983 36.7718 26.7794 36.9602 26.4957C37.0544 26.3632 37.2994 26.0227 37.0167 25.7957Z" fill="white"/>
<path d="M30.7745 26.5335C30.7934 26.5335 30.7934 26.5335 30.7934 26.5146C31.0383 26.4389 31.4529 26.3254 31.3775 26.1741C31.321 26.0227 30.7934 26.1741 30.6615 26.2119C30.5296 26.2497 30.0585 26.3065 29.9266 26.3254C30.2469 26.3632 30.6992 26.2497 30.6992 26.2497C30.6992 26.2497 30.3977 26.42 30.0585 26.4389C30.002 26.4389 29.9266 26.4389 29.8701 26.4389H29.8512C29.7005 26.4389 29.5309 26.42 29.3613 26.3821C29.3425 26.3821 29.3236 26.3821 29.286 26.3821C29.1164 26.3443 28.9845 26.3254 28.928 26.2876C28.7961 26.2308 28.4192 26.0984 28.325 26.0795C28.4004 26.0984 28.7772 26.0984 29.0787 26.2119C29.4367 26.3254 29.8136 26.3443 30.4542 26.1362C30.473 26.1362 30.473 26.1362 30.4919 26.1173C30.8122 26.0227 31.1137 25.966 31.3021 25.9849H31.321C31.4905 26.0038 31.5659 26.0606 31.5471 26.2119C31.5094 26.3821 31.2833 26.4578 31.0949 26.4957C31.076 26.4957 31.0383 26.5146 31.0195 26.5146C30.8876 26.5335 30.7934 26.5335 30.7745 26.5335ZM29.399 26.8929C29.3613 26.8929 29.3236 26.8929 29.2671 26.8929C29.2106 26.8929 29.1541 26.8929 29.0787 26.874C29.041 26.874 29.0033 26.8551 28.9845 26.8551C28.9468 26.8362 28.928 26.8362 28.8903 26.8173C28.8903 26.8173 28.7584 26.6848 28.9845 26.6281C29.2106 26.5713 29.7759 26.6848 29.8889 26.6848C29.8324 26.7227 29.6628 26.8551 29.399 26.8929ZM29.8701 26.193C29.8701 26.193 29.8512 26.193 29.8324 26.193C29.6063 26.2119 29.3048 26.193 29.1729 26.1551C28.9656 26.1173 28.3627 26.0038 28.2685 26.0227C28.2685 26.0227 28.2873 26.0038 28.325 26.0038C28.3438 25.9849 28.3438 25.9849 28.3438 25.9849C28.438 25.966 28.6265 25.947 28.8714 26.0227C29.286 26.1362 29.9078 26.193 30.0774 26.1551C30.0397 26.1741 29.9643 26.193 29.8701 26.193ZM31.7355 25.7957C31.5659 25.6633 31.1891 25.72 30.5296 25.8525C30.4542 25.8714 30.3977 25.8903 30.3223 25.9092C29.6817 26.0227 28.9091 25.8335 28.8149 25.7957C28.7395 25.7579 28.4004 25.6822 28.1743 25.7768C28.0424 25.8146 27.9858 25.8903 27.9481 25.947C27.9105 26.0416 27.9105 26.1362 27.967 26.2308C28.0424 26.3632 28.2119 26.4578 28.4004 26.5146C28.3438 26.5902 28.3061 26.6848 28.3061 26.7983C28.3061 26.874 28.325 26.9686 28.4569 27.0443C28.5511 27.1199 28.7207 27.1767 28.9091 27.1956C28.9468 27.328 29.041 27.5361 29.0787 27.5929L29.1164 27.7064H29.2294C29.2671 27.7253 29.3048 27.7253 29.3613 27.7253C29.4367 27.7253 29.4932 27.7253 29.4932 27.7253L29.7005 27.7064L29.6817 27.5929H29.7759L29.6817 27.5172L29.6628 27.4983C29.6628 27.4794 29.644 27.328 29.5874 27.1578C29.6063 27.1578 29.6251 27.1578 29.644 27.1578C29.8701 27.0821 30.2281 26.9497 30.4354 26.7794C30.8499 26.7983 31.4905 26.7794 31.679 26.4957C31.7732 26.3632 32.0181 26.0227 31.7355 25.7957Z" fill="white"/>
<path d="M42.4283 26.2873C42.4094 26.4575 42.1833 26.5332 41.976 26.571C41.9572 26.571 41.9384 26.5899 41.9007 26.5899C41.7688 26.6089 41.6746 26.6089 41.6557 26.6089H41.6746C41.9195 26.5143 42.3341 26.4008 42.2775 26.2683C42.221 26.117 41.6746 26.2494 41.5427 26.2873C41.4108 26.3251 40.9397 26.3818 40.8266 26.4197C41.1281 26.4386 41.5992 26.3251 41.5992 26.3251C41.5992 26.3251 41.2789 26.4954 40.9397 26.5143C40.8832 26.5143 40.8078 26.5143 40.7513 26.5143C40.5817 26.5143 40.4121 26.4954 40.2614 26.4575C40.2237 26.4575 40.2048 26.4575 40.186 26.4575C39.9976 26.4197 39.8657 26.4008 39.8091 26.3629C39.6961 26.3062 39.3192 26.1738 39.2062 26.1548C39.2816 26.1738 39.6584 26.1927 39.9787 26.2873C40.3179 26.4008 40.6947 26.4197 41.3354 26.2116C41.3542 26.2116 41.3542 26.2116 41.3731 26.2116C41.6934 26.0981 41.9949 26.0413 42.1833 26.0602C42.2022 26.0602 42.2022 26.0602 42.2022 26.0602C42.3717 26.0792 42.466 26.1548 42.4283 26.2873ZM40.2991 26.9683C40.2425 26.9683 40.2048 26.9683 40.1672 26.9683C40.0918 26.9683 40.0353 26.9683 39.9599 26.9494C39.941 26.9494 39.9034 26.9305 39.8657 26.9305C39.828 26.9305 39.8091 26.9115 39.7903 26.9115C39.7903 26.9115 39.6396 26.7602 39.8657 26.7034C40.1106 26.6467 40.6571 26.7602 40.7701 26.7602C40.7136 26.8169 40.544 26.9305 40.2991 26.9683ZM39.1497 26.0981C39.1497 26.0981 39.1685 26.0792 39.225 26.0792C39.225 26.0792 39.225 26.0602 39.2439 26.0602C39.3381 26.0413 39.5077 26.0224 39.7715 26.0981C40.1672 26.2116 40.789 26.2683 40.9585 26.2305C40.9209 26.2494 40.8455 26.2683 40.7701 26.2683C40.7513 26.2683 40.7324 26.2683 40.7324 26.2683C40.5063 26.2873 40.2048 26.2683 40.0541 26.2305C39.8468 26.1927 39.2439 26.0792 39.1497 26.0981ZM42.6167 25.8711C42.4471 25.7387 42.0703 25.8143 41.4108 25.9467C41.3542 25.9467 41.2789 25.9657 41.2035 25.9846C40.5629 26.0981 39.7903 25.9089 39.7149 25.8711C39.6207 25.8332 39.2816 25.7765 39.0554 25.8522C38.9235 25.89 38.867 25.9657 38.8482 26.0224C38.7916 26.117 38.8105 26.2305 38.8482 26.3062C38.9235 26.4386 39.112 26.5332 39.3004 26.5899C39.225 26.6656 39.1873 26.7602 39.1873 26.8737C39.1873 26.9494 39.225 27.044 39.3381 27.1196C39.4511 27.2142 39.6207 27.252 39.7903 27.271C39.8468 27.4034 39.941 27.6115 39.9599 27.6682L39.9976 27.7817L40.1106 27.8007C40.1483 27.8007 40.2048 27.8007 40.2425 27.8007C40.3179 27.8007 40.3933 27.8007 40.3933 27.8007L40.5817 27.7817C40.5817 27.7628 40.5629 27.7628 40.5629 27.7439C40.5629 27.725 40.5629 27.7061 40.5629 27.6872C40.544 27.6872 40.5252 27.6872 40.5063 27.6493C40.5063 27.6682 40.4875 27.6872 40.4686 27.6872C40.4121 27.6493 40.3744 27.6115 40.3556 27.5547C40.3367 27.5736 40.2991 27.5736 40.2802 27.5358C40.2802 27.5358 40.2614 27.5358 40.2614 27.5169C40.2425 27.5358 40.2048 27.5169 40.2048 27.498C40.2237 27.4601 40.2237 27.4412 40.2425 27.4034L40.2614 27.3845C40.2802 27.3845 40.2991 27.3656 40.3179 27.3656C40.3367 27.3466 40.3556 27.3656 40.3556 27.4034C40.3556 27.4223 40.3556 27.4223 40.3556 27.4223C40.3556 27.4034 40.3556 27.4034 40.3556 27.3845C40.3744 27.3656 40.3933 27.3656 40.4121 27.3656C40.431 27.3656 40.4498 27.3656 40.4686 27.3656H40.4875C40.4875 27.3466 40.5063 27.3466 40.5063 27.3466C40.5063 27.3088 40.4875 27.271 40.4875 27.2331C40.4875 27.2331 40.5063 27.2331 40.5252 27.2331C40.7513 27.1575 41.1281 27.044 41.3166 26.8548C41.7311 26.8737 42.3906 26.8548 42.579 26.5899C42.6544 26.4386 42.8993 26.0981 42.6167 25.8711Z" fill="white"/>
<path d="M52.2883 29.8254C51.3085 29.8254 50.5548 30.0714 50.0838 30.2984C50.0649 30.2984 50.0649 30.2984 50.0461 30.2984C50.0461 30.3362 50.0649 30.374 50.0649 30.393C50.0649 30.4119 50.0649 30.4308 50.0838 30.4497C50.0838 30.4686 50.0838 30.4876 50.1026 30.5065L50.1214 30.5254C50.1403 30.5821 50.1403 30.6389 50.1591 30.6956C50.178 30.7335 50.178 30.7902 50.1968 30.847C50.2157 30.8848 50.1403 30.9037 50.1214 30.8659C50.1214 30.847 50.1214 30.8281 50.1214 30.8091C50.1214 30.847 50.1214 30.8659 50.1214 30.9037C50.1214 30.9227 50.1026 30.9416 50.0838 30.9416V30.9605C50.0838 30.9983 50.0461 31.0172 50.0272 30.9794C50.0272 30.9983 50.0272 30.9983 50.0272 31.0172C50.0272 31.0362 49.9895 31.0551 49.9707 31.0362V31.074C49.9707 31.0929 49.9519 31.0929 49.933 31.0929C49.933 31.1497 49.933 31.1875 49.933 31.2253C49.933 31.2442 49.933 31.2632 49.9519 31.2821C50.291 31.0551 51.1201 30.6389 52.3072 30.6389C54.606 30.6389 57.1686 32.7198 57.1686 35.5196C57.1686 38.2815 55.0205 40.4571 52.2507 40.4571C49.6504 40.4571 47.5212 38.2248 47.5212 35.5007C47.5212 34.1197 48.1241 33.0982 48.6329 32.4739C49.0474 31.9442 49.4808 31.6226 49.6504 31.4902C49.6315 31.4145 49.6127 31.3388 49.6127 31.2442C49.575 31.2821 49.5373 31.3388 49.5373 31.3388C49.5562 31.3578 49.5939 31.3767 49.5939 31.3767C49.5373 31.6983 49.5373 31.4713 49.5373 31.3578V31.3388C49.5373 31.301 49.5373 31.2821 49.5373 31.2821C49.5185 31.2821 49.4808 31.2064 49.4808 31.1875C49.462 31.1497 49.4431 31.0929 49.4431 31.0551C49.3866 30.9605 49.2924 30.8659 49.2924 30.7524C49.217 30.8091 48.614 31.2064 48.0111 31.9442C47.427 32.682 46.7109 33.8738 46.7109 35.5007C46.7109 35.9736 46.7863 36.4655 46.8994 36.9195C47.1255 37.8275 47.5589 38.6977 48.1807 39.3977C48.8025 40.0976 49.575 40.6273 50.4229 40.9489C51.007 41.157 51.61 41.2705 52.2318 41.2705C52.6087 41.2705 53.0044 41.2327 53.3624 41.157C54.9263 40.8543 56.283 39.9084 57.1309 38.5842V38.5653C57.1309 38.5653 57.1497 38.5464 57.1497 38.5275L57.1686 38.5086C57.6962 37.6194 57.9788 36.579 57.9788 35.5196C57.9788 32.2658 54.9828 29.8254 52.2883 29.8254Z" fill="white"/>
<path d="M49.1437 30.1459C49.1814 30.1459 49.2002 30.1838 49.2379 30.2027C49.2756 30.2216 49.2945 30.2216 49.3133 30.1838C49.3321 30.127 49.4075 29.9946 49.464 29.9C49.4829 29.8811 49.5017 29.8622 49.5017 29.8433C49.5206 29.8243 49.5394 29.8054 49.5394 29.8054C49.5394 29.8054 49.5394 29.8243 49.5394 29.8433C49.5394 29.8622 49.5206 29.8811 49.5206 29.9189C49.5206 30.1081 49.5583 30.5432 49.9163 31.1864C49.8032 31.0918 49.6148 30.7891 49.6148 30.7891C49.6713 30.9216 49.7278 31.0918 49.7655 31.1486C49.6525 31.1296 49.5394 30.7891 49.5206 30.7135C49.5583 30.7324 49.5959 30.7513 49.5959 30.7513C49.5959 30.7513 49.4075 30.2594 49.4264 30.1838C49.351 30.354 49.351 30.4297 49.3133 30.3729C49.2945 30.3729 49.2756 30.354 49.2756 30.3351C49.2379 30.3162 49.2191 30.2784 49.1814 30.2405C49.1626 30.2027 49.1437 30.1838 49.1437 30.1459ZM49.0307 29.8243L49.0684 29.7487L49.0872 29.7108L48.5031 28.1785L48.2393 27.4975L48.2204 27.4407V27.4218C48.2393 27.4029 48.2581 27.384 48.2581 27.384C48.277 27.3651 48.2958 27.3651 48.2958 27.3651L48.6538 28.3299L49.1814 29.673L49.2191 29.6919H49.2756L49.3133 29.7108H49.2945L49.2379 29.7487L49.0872 29.8243L49.0307 29.8433L48.993 29.8622L49.0307 29.8243ZM49.6525 29.9378H49.7278H49.8221H49.8409L49.8974 30.1459L50.0858 30.7135C50.0858 30.7135 49.9163 30.2405 49.8221 30.0892C49.8221 30.127 49.9916 30.581 50.0293 30.8081C50.0293 30.827 50.0293 30.8459 50.0293 30.8459C49.9728 30.6378 49.7467 30.127 49.6713 29.9946C49.6525 29.9568 49.6525 29.9378 49.6525 29.9378ZM47.9755 27.0246C47.9566 27.0056 47.9566 27.0056 47.9378 26.9867C47.9566 27.0056 47.9566 27.0056 47.9566 27.0246C47.9566 27.0624 47.9566 27.0813 47.9755 27.1191C47.9755 27.1381 47.9755 27.1759 47.9566 27.1948C47.9566 27.1948 47.9566 27.2137 47.9378 27.2137V27.1948C47.9378 27.1759 47.919 27.157 47.919 27.1381C47.9001 27.1191 47.8813 27.1002 47.8813 27.0813C47.8624 27.0624 47.8436 27.0624 47.8247 27.0435C47.8059 27.0246 47.7871 27.0246 47.7871 27.0246L47.8813 26.93H47.9001L48.0132 26.8921C48.0132 26.8921 48.032 26.8921 48.0508 26.9111C48.0697 26.93 48.0885 26.9489 48.1262 26.9867C48.1451 27.0056 48.1451 27.0246 48.1451 27.0435C48.1451 27.0813 48.1451 27.1002 48.1451 27.1191C48.1262 27.1381 48.1262 27.157 48.1074 27.1759C48.0885 27.1759 48.0885 27.1948 48.0697 27.1948C48.0509 27.1948 48.032 27.1002 47.9755 27.0246ZM47.8813 27.6488C47.919 27.6488 47.9378 27.6488 47.9566 27.6488H47.9755V27.6678V27.7056V27.7245V27.7813C47.9755 27.7813 47.9566 27.7813 47.9378 27.7813C47.919 27.7813 47.9001 27.7813 47.8624 27.7813C47.8247 27.7813 47.7682 27.7813 47.6928 27.7813C47.316 27.7623 46.5811 27.7434 45.6955 27.7245C43.3214 27.6488 41.211 27.5353 40.9095 27.5353C40.4384 27.5164 40.2877 27.5164 40.2689 27.4786C40.2689 27.4597 40.25 27.4407 40.2312 27.4407C40.2123 27.4218 40.1747 27.4218 40.1747 27.4218C40.4196 27.4218 40.9095 27.4407 41.5502 27.4597C42.8126 27.4786 43.3214 27.5353 44.8664 27.5732C45.8839 27.5921 46.7696 27.6299 47.3348 27.6299C47.5421 27.6488 47.7117 27.6488 47.8059 27.6488C47.8436 27.6488 47.8624 27.6488 47.8813 27.6488ZM46.1477 25.6814L46.1101 25.6436C46.3927 25.5112 46.6 25.5112 46.7507 25.549C46.7696 25.549 46.7884 25.549 46.8072 25.5679C46.8261 25.5679 46.8449 25.5679 46.8449 25.5868C46.8638 25.5868 46.8638 25.5868 46.8638 25.5868C46.8826 25.5868 46.9015 25.6057 46.9015 25.6057L46.9203 25.6247C46.9391 25.6247 46.9391 25.6436 46.958 25.6625C46.9768 25.6625 46.9768 25.6814 46.9957 25.6814C46.9768 25.6814 46.958 25.6814 46.958 25.6625H46.9391C46.9203 25.6625 46.9015 25.6625 46.9015 25.6625C46.8826 25.6436 46.8638 25.6436 46.8261 25.6436C46.8072 25.6247 46.7884 25.6247 46.7696 25.6247C46.7507 25.6247 46.7319 25.6057 46.713 25.6057C46.3362 25.549 46.1477 25.7003 46.1477 25.7003V25.6814ZM45.4129 26.1922C45.6202 26.0976 45.9593 25.9273 46.0347 25.8328C46.0347 25.9652 45.7144 26.1544 45.2621 26.2679C45.2621 26.2679 45.3375 26.23 45.4129 26.1922ZM46.6 24.7545C46.5811 24.7545 46.5623 24.7545 46.5434 24.7734C46.5246 24.7734 46.5246 24.7734 46.5246 24.7734C46.5058 24.7734 46.4869 24.7923 46.4681 24.7923C46.4115 24.8112 46.3362 24.849 46.2796 24.868C46.0724 24.9626 45.8651 25.0571 45.7144 25.1328C45.639 25.1706 45.5825 25.1896 45.5636 25.2085L45.5259 25.1706C45.5259 25.1706 45.9593 24.8112 46.4304 24.7545C46.4681 24.7545 46.4869 24.7545 46.5246 24.7545C46.5434 24.7545 46.5623 24.7545 46.6 24.7545ZM47.7871 26.0976C47.7682 26.003 47.8436 25.9273 47.8436 25.9273H47.8247L47.8059 25.8706C47.8059 25.8706 47.8059 25.8517 47.8247 25.8328C47.8436 25.8138 47.8624 25.776 47.8813 25.7571C47.919 25.7003 47.9378 25.6247 47.9566 25.5679C48.0132 25.6625 47.919 25.8706 47.9001 25.8706C47.919 25.8706 47.9378 25.9084 47.919 25.9273C47.919 25.9463 47.919 25.9652 47.919 25.9841C47.9001 26.0408 47.8624 26.0976 47.8059 26.1544C47.7871 26.1354 47.7871 26.1165 47.7871 26.0976ZM46.9203 25.0761C46.9957 25.0571 47.1087 25.0382 47.3348 25.0382C47.5421 25.0382 47.6175 25.2085 47.6363 25.2842L47.6552 25.3409L47.674 25.4733C47.674 25.549 47.674 25.6247 47.6363 25.6625C47.6175 25.6247 47.5609 25.6057 47.5233 25.5679V25.549L47.2783 25.4166L47.2406 25.3977C47.2406 25.3977 47.2218 25.3787 47.2029 25.3787C47.0522 25.3031 46.9015 25.2652 46.7507 25.2463C46.8449 25.1896 46.9015 25.1139 46.9203 25.0761ZM45.6578 25.2274C45.8086 25.1517 46.3173 24.9247 46.5058 24.849C46.5246 24.849 46.5246 24.8301 46.5434 24.8301C46.5434 24.8301 46.5623 24.8301 46.5811 24.8301C46.5811 24.8112 46.6 24.8112 46.6 24.8112C46.6 24.8112 46.6188 24.8112 46.6188 24.8301C46.6377 24.8301 46.6377 24.849 46.6377 24.849C46.6377 24.868 46.6188 24.868 46.6188 24.8869C46.6 24.8869 46.6 24.8869 46.5811 24.9058C46.5811 24.9058 46.5811 24.9058 46.5623 24.9058C46.4304 24.9626 45.8651 25.2463 45.6955 25.322L45.6578 25.3409L45.6013 25.2463C45.6013 25.2463 45.6202 25.2463 45.6578 25.2274ZM46.4492 25.1139C46.5246 25.0761 46.5623 25.0382 46.6 24.9815C46.6188 24.9626 46.6377 24.9436 46.6377 24.9436C46.6565 24.9247 46.6565 24.9058 46.6565 24.9058C46.6753 24.9247 46.6942 24.9626 46.6942 24.9815C46.6942 24.9815 46.6942 25.0004 46.6753 25.0004C46.6753 25.0193 46.6565 25.0382 46.6377 25.0382C46.6188 25.0571 46.6 25.0761 46.5811 25.0761C46.5434 25.095 46.5058 25.095 46.4492 25.1139ZM48.0697 25.1706C48.0697 25.1896 48.0885 25.2085 48.0885 25.2274C48.0885 25.2463 48.0885 25.2652 48.0885 25.2842C48.0885 25.2652 48.0697 25.2463 48.0508 25.2274C48.0508 25.2274 48.0508 25.2274 48.0508 25.2085C48.0508 25.2085 48.032 25.1896 48.032 25.1706C48.0132 25.1517 47.9943 25.1328 47.9943 25.095C47.8813 24.9247 47.674 24.7166 47.3725 24.7166C47.1464 24.7166 46.9957 24.7355 46.9203 24.7355C46.9015 24.7355 46.8638 24.7355 46.8638 24.7355C46.8449 24.7355 46.8261 24.7355 46.8261 24.7355C46.8072 24.7545 46.8072 24.7545 46.8072 24.7545L46.7884 24.6977C46.7884 24.6977 46.8072 24.6788 46.8261 24.6788C46.8449 24.6788 46.8638 24.6599 46.9015 24.6599C47.0145 24.622 47.2218 24.5842 47.3914 24.6031C47.6175 24.622 47.9378 24.7355 48.0508 25.095C48.0697 25.1139 48.0697 25.1328 48.0697 25.1706ZM48.0132 26.8165C47.9943 26.8354 47.9755 26.8354 47.9566 26.8354C47.919 26.8543 47.9001 26.8165 47.9001 26.8165L47.5798 26.0976V26.0787L47.5609 26.0409L47.5986 26.0219L47.6363 25.9841V26.0219L47.6552 26.0409L47.6928 26.1354L47.7305 26.1922L48.0132 26.8165ZM45.0549 26.0409C45.0926 26.0219 45.7332 25.7003 45.997 25.7003C45.9782 25.7003 45.9593 25.7003 45.9405 25.7193C45.8651 25.7571 45.7521 25.8138 45.6013 25.8895C45.4506 25.9652 45.2998 26.0408 45.1868 26.0787C45.1679 26.0976 45.1491 26.1165 45.1303 26.1165L45.1114 26.1354C45.0926 26.0976 45.0549 26.0409 45.0549 26.0409ZM52.4977 35.6509C52.5165 35.5942 52.5165 35.5374 52.5165 35.4996C52.4977 35.4428 52.3846 35.3293 52.2527 35.3104C52.2339 35.3104 52.2151 35.3104 52.1774 35.3104C52.1585 35.3104 52.2716 35.2537 52.347 35.2537C52.46 35.2537 52.5731 35.3104 52.5919 35.4617C52.6296 35.632 52.5165 35.7266 52.46 35.7266C52.4789 35.7077 52.4977 35.6698 52.4977 35.6509ZM52.1962 35.4807C52.1962 35.4617 52.1962 35.4617 52.1962 35.4617C52.1962 35.4428 52.2151 35.4428 52.2339 35.4239C52.2716 35.405 52.3093 35.3861 52.347 35.405C52.347 35.405 52.347 35.405 52.3658 35.4239L52.3846 35.4428C52.4035 35.4807 52.4223 35.5185 52.4035 35.5563C52.4035 35.5753 52.3846 35.6131 52.3658 35.6131C52.347 35.632 52.3281 35.6509 52.3281 35.6509C52.3281 35.6509 52.347 35.632 52.347 35.6131C52.347 35.6131 52.347 35.5942 52.347 35.5563C52.347 35.5563 52.347 35.5374 52.3281 35.5374C52.3281 35.5185 52.3281 35.5185 52.3281 35.4996C52.2716 35.4428 52.1774 35.4996 52.1774 35.4996C52.1774 35.4807 52.1774 35.4807 52.1962 35.4807ZM50.0105 31.6215V31.5458C50.0105 31.5458 51.028 33.9294 51.1787 34.1754C51.0845 34.0619 50.9338 33.7213 50.7453 33.3619C50.4062 32.6241 50.0105 31.7161 50.0105 31.7161V31.6215ZM48.2204 27.2705L48.1827 27.3083H48.0885H48.0508H48.0697L48.2016 27.2326L48.2581 27.1948L48.2204 27.2705ZM49.6902 31.3567C49.8032 31.3188 49.9539 31.281 49.9539 31.281V31.3567L49.8974 31.3756L49.709 31.4134H49.6902L49.6525 31.3945L49.5959 31.3756C49.6148 31.3756 49.6148 31.3756 49.6336 31.3756C49.6525 31.3567 49.6713 31.3567 49.6902 31.3567ZM52.7615 35.1969C52.6861 35.1212 52.5731 35.0077 52.3658 34.9888C52.2904 34.9888 52.2339 34.9888 52.1774 35.0077C51.9513 34.7807 51.5367 34.2889 51.4048 34.0429C51.3106 33.8916 50.8961 32.9268 50.2931 31.4891C50.3308 31.4702 50.3496 31.4323 50.3685 31.3945C50.4815 31.3377 50.5192 31.281 50.5381 31.2242C50.5758 31.1486 50.5569 31.054 50.5004 30.9783C50.4815 30.9216 50.312 30.5054 50.2366 30.2973C50.0482 29.8243 50.0482 29.8243 50.0293 29.7865C49.9916 29.7676 49.9728 29.7487 49.9539 29.7298C49.9539 29.5973 49.8597 29.5595 49.8032 29.5406C49.709 29.5027 49.6148 29.5027 49.5583 29.5217C49.4829 29.3892 49.3698 29.0866 49.2568 28.7839C48.635 27.2705 48.5219 27.0246 48.4842 26.9678C48.4465 26.93 48.39 26.8921 48.3523 26.8732C48.3335 26.7975 48.2958 26.6651 48.1827 26.6084C48.1827 26.6084 48.1827 26.6084 48.1639 26.6084C48.1451 26.5327 48.0697 26.4003 48.032 26.3057C48.1262 26.23 48.2393 26.1165 48.277 26.0219C48.2958 25.9652 48.277 25.8895 48.2393 25.8517C48.2393 25.8328 48.2393 25.8328 48.2204 25.8138C48.2958 25.6625 48.39 25.4355 48.3712 25.2463C48.3523 25.0382 48.2581 24.6599 47.8436 24.4329C47.3537 24.1491 46.6942 24.395 46.5434 24.4707C46.0158 24.4329 45.3187 24.9436 45.281 24.9626L45.1679 25.0382L45.2245 25.1706C45.2621 25.322 45.3564 25.4733 45.4129 25.5679C45.281 25.6057 45.1679 25.6814 45.0549 25.7382C45.0172 25.7382 45.0172 25.7571 44.9984 25.7571C44.8476 25.8328 44.7911 25.9841 44.8099 26.0976V26.1165V26.1544C44.9607 26.5138 44.9984 26.5705 45.0926 26.6084C45.1114 26.6084 45.1303 26.6084 45.1679 26.6084C45.2245 26.6084 45.2621 26.5895 45.3752 26.5516C45.4506 26.5138 45.5636 26.476 45.7332 26.4003C46.1289 26.2489 46.2608 26.0787 46.3173 25.9463C46.3739 25.9273 46.4681 25.8895 46.5811 25.8895C46.6942 25.8895 46.7507 25.9084 46.7696 25.9273L46.9015 26.0219L46.9203 26.003C47.071 26.0787 47.1841 26.1544 47.2406 26.1922L47.5421 26.8921C47.4479 27.0246 47.429 27.157 47.4856 27.2894C47.5044 27.3272 47.5233 27.3651 47.5421 27.4029C46.3739 27.3272 43.8678 27.2137 43.2837 27.1759C42.5111 27.157 40.1181 27.1191 40.0804 27.1191C39.9109 27.1191 39.779 27.1759 39.7036 27.2516C39.6282 27.3272 39.6094 27.4029 39.6094 27.4975C39.6094 27.7056 39.779 27.8569 39.9109 27.8758C39.9297 27.8758 39.9862 27.8948 40.4008 27.838C40.5138 27.8191 41.5878 27.8948 42.2285 27.9326H42.2473C42.7372 27.9515 43.1518 27.9704 43.246 27.9704C43.4721 27.9704 46.9015 28.1407 48.032 28.1785C48.2016 28.6325 48.4465 29.219 48.6161 29.6541L48.6727 29.6163L48.7103 29.5595L48.7669 29.5027L48.8045 29.446L48.8234 29.4271L48.8799 29.5595H48.8611L48.8045 29.5973L48.748 29.6352L48.6915 29.673L48.635 29.7108C48.7669 30.0135 48.8611 30.2594 48.8799 30.2784C48.8988 30.3162 48.8988 30.3729 48.8988 30.4108C48.9176 30.4865 48.9365 30.581 48.9741 30.6756C49.0307 30.7891 49.9916 32.9268 50.2366 33.4376C50.2554 33.4376 50.8772 34.705 51.5933 35.3482C50.4627 35.632 47.3537 36.3887 46.713 36.54L46.6188 36.559L46.5623 36.6346C46.5246 36.6914 46.4681 36.8238 46.4869 36.9373C46.5058 37.013 46.5434 37.0508 46.6 37.0887C46.6188 37.0887 46.6565 37.1076 46.6942 37.1076C46.7884 37.1076 47.0522 37.0697 49.4452 36.4644C50.5381 36.1995 51.6121 35.9158 51.9701 35.8212C52.0266 35.9158 52.1397 35.9725 52.3093 35.9914C52.5919 36.0293 52.818 35.859 52.8745 35.5563C52.8934 35.4428 52.8369 35.3104 52.7615 35.1969Z" fill="white"/>
<path d="M43.4252 33.8928C43.3309 33.9306 44.7065 29.0878 44.7065 29.0878L44.8007 28.804C44.8007 28.804 43.6136 33.7793 43.4252 33.8928ZM44.5369 27.7068L42.6149 35.5575C42.6149 35.5575 42.5396 35.8035 42.7468 35.9548C43.1237 36.2007 43.2933 35.8981 43.2933 35.8981L45.2529 27.896C45.1587 27.7257 44.5369 27.7068 44.5369 27.7068Z" fill="white"/>
<path d="M29.7684 27.8382L29.7307 27.7058C29.7307 27.7058 35.2139 33.0216 35.2139 33.2486C35.2139 33.3432 29.7684 27.8382 29.7684 27.8382ZM38.1534 35.6133L29.693 27.4598C29.5046 27.4788 29.2031 28.0274 29.2031 28.0274L37.3243 35.8781C37.3243 35.8781 37.6634 36.1619 37.9084 36.1619C38.4171 36.1619 38.1534 35.6133 38.1534 35.6133Z" fill="white"/>
<path d="M38.8461 31.2428L39.0533 31.4698C39.3736 30.278 39.7128 29.0862 39.7128 29.0862L39.807 28.8025C39.807 28.8025 39.4679 30.2213 39.1287 31.5644L39.2794 31.7536L40.2404 27.7998C40.1273 27.6296 39.6374 27.3458 39.6374 27.3458L38.6953 31.1482C38.7518 31.1672 38.8084 31.1861 38.8461 31.2428Z" fill="white"/>
<path d="M38.996 32.3211L38.9395 32.2454C38.7133 33.1345 38.4872 33.8345 38.4307 33.8912C38.393 33.9101 38.6003 33.0967 38.8641 32.1508L38.5438 31.7725L37.6205 35.556C37.6205 35.556 37.4321 35.8965 37.6582 36.0289C38.035 36.2748 38.28 35.8965 38.28 35.8965L39.1279 32.3967C39.0714 32.3967 39.0337 32.3589 38.996 32.3211Z" fill="white"/>
<path d="M33.7142 32.3595C33.4881 33.1919 33.2997 33.854 33.2243 33.8918C33.1866 33.9108 33.375 33.1541 33.6388 32.246C33.6011 32.2082 33.5635 32.1514 33.5258 32.1136C33.4692 32.0379 33.4127 31.9244 33.3185 31.8488L32.4141 35.5566C32.4141 35.5566 32.5836 35.4052 32.8098 35.5377C33.1866 35.8025 33.0924 35.8971 33.0924 35.8971L33.978 32.3406C33.9215 32.246 33.7707 32.4541 33.7142 32.3595Z" fill="white"/>
<path d="M49.018 30.1848L48.9427 30.1091L48.8484 30.1659C48.8484 30.1659 48.1324 30.5632 47.4164 31.4144C47.3222 31.5279 47.228 31.6414 47.1526 31.755C46.5685 32.4927 46.0974 33.344 46.0032 34.8196C45.9844 35.0277 45.9844 35.2358 45.9844 35.4439C45.9844 36.4654 46.1728 37.1653 46.3424 37.5815C46.512 38.0545 46.7004 38.2815 46.7192 38.2815L46.7381 38.3004C46.7569 38.3004 46.8134 38.3571 46.9077 38.3571C46.9642 38.3571 47.0207 38.3382 47.0772 38.3004L47.0961 38.2815C47.2468 38.168 47.228 38.0734 47.1338 37.8653V37.8464C46.6627 36.8437 46.5685 35.9546 46.5685 35.406C46.5685 34.044 47.228 32.0198 49.1122 30.6956L49.1688 30.6577V30.5821C49.1688 30.374 49.018 30.2037 49.018 30.1848Z" fill="white"/>
<path d="M45.2611 33.1924C45.1104 33.3626 43.6218 35.1409 43.4899 35.2922C43.5088 35.2544 43.5464 35.1976 43.603 35.1409C44.0929 34.5733 45.0727 33.2491 45.5626 32.7762C45.6568 32.6816 45.7133 32.6438 45.7133 32.6438L48.2571 30.1088C48.2571 30.1088 45.4307 33.041 45.2611 33.1924ZM48.6905 29.0116L43.1884 35.0463L42.7739 34.9895L43.0188 35.557C43.0565 35.5949 42.2651 35.5003 42.3594 35.6138C43.0377 36.3894 43.4899 35.8786 43.4899 35.8786L49.0862 29.9386L49.1427 29.8818L49.0108 29.9196L48.6905 29.0116Z" fill="white"/>
<path d="M27.6241 30.4114C27.5299 30.5627 27.4357 30.6951 27.3226 30.8086C27.2661 30.8843 27.2284 30.96 27.1719 31.0167C28.5285 31.9059 29.433 33.476 29.433 35.2542C29.433 35.3488 29.433 35.4623 29.4141 35.5569C29.6591 35.5569 29.904 35.5758 30.149 35.6326C30.1678 35.6326 30.1678 35.6515 30.1678 35.6704C30.1867 35.6515 30.2244 35.6515 30.2244 35.6704C30.2432 35.6704 30.2432 35.6893 30.2432 35.6893C30.2432 35.6893 30.2432 35.6893 30.2432 35.7083H30.2621C30.2621 35.5569 30.2809 35.4056 30.2809 35.2542C30.2809 33.2301 29.2069 31.4329 27.6241 30.4114Z" fill="white"/>
<path d="M30.2026 35.8402C30.1838 35.8591 30.1649 35.8591 30.1461 35.8402C29.9388 35.8969 29.7315 35.8591 29.5243 35.8023C29.5243 35.8023 29.5243 35.8023 29.5054 35.8023C29.5054 35.8023 29.5054 35.8212 29.4866 35.8212H29.4112C29.1474 38.3183 27.0747 40.2858 24.5687 40.2858C22.138 40.2858 20.1218 38.4129 19.7638 36.0104C19.745 35.9915 19.745 35.9726 19.7638 35.9726C19.7261 35.7267 19.7073 35.4996 19.7073 35.2537C19.7073 32.4918 21.893 30.2406 24.5687 30.2406C25.4354 30.2406 26.2457 30.4676 26.9428 30.8838C27.0371 30.7514 27.1501 30.6189 27.2632 30.5244C27.3197 30.4487 27.3762 30.373 27.4516 30.3163C26.6037 29.8055 25.6239 29.5217 24.5687 29.5217C21.422 29.5217 18.8594 32.0945 18.8594 35.2537C18.8594 38.4319 21.422 41.0046 24.5687 41.0046C27.5458 41.0046 29.9765 38.7156 30.2591 35.8212C30.2591 35.8402 30.2591 35.8402 30.2591 35.8402C30.2403 35.8402 30.2215 35.8402 30.2026 35.8402Z" fill="white"/>
<path d="M30.6438 33.1357C30.5119 32.7006 30.3423 32.2844 30.1351 31.8871C29.9278 31.4899 29.664 31.1115 29.3625 30.771C28.8161 30.1278 28.1189 29.6359 27.3464 29.2954C26.4984 28.9171 25.5375 28.7279 24.52 28.7279C23.5025 28.7279 22.5603 28.936 21.7124 29.3333C21.0341 29.6549 20.4311 30.1089 19.8847 30.6575C18.9614 31.6223 18.5657 32.5871 18.5657 32.606L18.5469 32.6627L18.5846 32.7195C18.6222 32.7762 18.6788 32.7952 18.7353 32.8141C18.773 32.833 18.8295 32.8519 18.8672 32.8897C18.9426 32.9465 19.0179 32.9465 19.0556 32.9465C19.1875 32.9087 19.2629 32.7952 19.3383 32.6438C19.3571 32.6249 19.3759 32.5871 19.3948 32.5492C19.5078 32.3411 19.847 31.7358 20.0543 31.4899C20.4688 31.8493 22.3908 33.6464 24.1243 35.2733L24.2373 35.3869L24.4634 35.0842L20.3369 31.1872C20.4877 31.0358 20.8457 30.6764 21.3544 30.317C22.0139 29.8819 23.0691 29.3522 24.4258 29.3522C27.3087 29.3522 30.3989 31.3574 30.3989 35.7841V35.9165L30.8322 35.9544L30.8511 35.822C30.9641 34.9328 30.8888 34.0059 30.6438 33.1357Z" fill="white"/>
<path d="M24.3263 35.7838C24.2886 35.746 24.2321 35.7271 24.1944 35.6892C24.4205 35.7271 24.5524 35.8027 24.6466 35.746C24.6843 35.7081 24.7032 35.6703 24.722 35.6136C24.722 35.5568 24.7032 35.519 24.7032 35.519L24.8916 35.5V35.5568V35.5757L24.9104 35.6514H24.8539L24.8727 35.7081L24.8916 35.746C24.8916 35.746 24.8351 35.7838 24.7408 35.8216C24.7408 35.8216 24.722 35.8406 24.7032 35.8406C24.6089 35.8595 24.477 35.8595 24.364 35.8027C24.3452 35.8027 24.3263 35.7838 24.3263 35.7838ZM25.2873 35.2541C25.325 35.273 25.3626 35.273 25.4192 35.273C26.4744 35.3865 28.7166 35.6514 29.9979 35.7271C31.2039 35.8027 31.543 35.8406 31.6184 35.8406C31.6372 35.8595 31.6561 35.8595 31.6561 35.8595C31.6561 35.8595 31.2227 35.9162 30.7516 35.8595C30.2994 35.7838 27.3034 35.6136 26.6251 35.5379C26.2671 35.519 25.7772 35.4622 25.4003 35.4055C25.3626 35.4055 25.325 35.4055 25.2873 35.3865H25.2684C25.2308 35.3865 25.1931 35.3865 25.1554 35.3865C24.9293 35.3487 24.7974 35.3298 24.7974 35.3298C24.7974 35.3298 24.7408 35.4433 24.5524 35.4433C24.364 35.4433 24.477 35.1974 24.477 35.1974C24.477 35.1974 24.4582 35.3298 24.5713 35.3676C24.5524 35.273 24.5524 35.1595 24.6278 35.1406C24.6843 35.1217 24.7974 35.1595 24.8351 35.2163H24.8539C24.9104 35.2163 25.0046 35.2352 25.1554 35.2541C25.1931 35.2541 25.2496 35.2541 25.2873 35.2541ZM25.1554 35.046C25.1742 35.0839 25.1742 35.1217 25.1931 35.1595C25.1931 35.1785 25.1931 35.1785 25.1931 35.1785C25.1931 35.1785 25.1931 35.1974 25.1931 35.2163C25.1931 35.2163 25.1742 35.2163 25.1554 35.2163C25.0046 35.1974 24.9104 35.1974 24.9104 35.1974L24.8916 35.1028L24.9293 35.0839H24.9481L25.0423 35.0082L25.0612 34.9893H25.0423L24.8916 35.0082H24.8539L24.7974 34.9514C24.7974 34.9514 24.8162 34.9514 24.8351 34.9325C24.8727 34.9136 24.9104 34.8947 24.9293 34.8569C24.9481 34.8569 24.9481 34.8569 24.9481 34.8569C24.9481 34.8569 24.967 34.8379 24.9858 34.8379C25.0046 34.819 25.0046 34.819 25.0235 34.819C25.0423 34.8379 25.0989 34.9325 25.1554 35.0271V35.046ZM32.146 35.6325C32.1271 35.6325 29.6776 35.4622 29.037 35.4244C28.547 35.4244 26.3236 35.1595 25.4003 35.0649C25.3061 34.6866 24.967 34.4218 24.5713 34.4218C24.119 34.4218 23.7422 34.8001 23.7422 35.2541C23.7422 35.7271 24.119 36.1054 24.5713 36.1054C24.8916 36.1054 25.1554 35.9352 25.3061 35.6892C26.6251 35.8216 31.2792 36.2757 32.0141 36.2757C32.0329 36.2757 32.0518 36.2757 32.0706 36.2757L32.1648 36.2567L32.146 35.6514V35.6325Z" fill="white"/>
<path d="M29.4283 27.7067H29.3906C29.3906 27.7256 29.4283 27.7634 29.4848 27.858L29.4283 27.7067Z" fill="white"/>
<path d="M32.0234 34.3278C32.2495 34.971 32.4003 35.4061 32.4003 35.4061C32.4003 35.4061 32.3249 35.2925 32.1177 34.9142L32.3626 35.5196L32.4757 35.4817L32.0234 34.3278Z" fill="white"/>
<path d="M30.6825 31.6225C30.4564 30.9793 30.268 30.4875 30.268 30.4875C30.268 30.4875 30.2868 30.5064 30.3057 30.5632C30.4187 30.8091 30.739 31.5658 31.0594 32.3225C31.2289 32.7765 31.4174 33.2116 31.5493 33.571C31.6812 33.8926 31.7942 34.2142 31.8884 34.498L32.3218 35.652L32.2088 35.6709L31.9826 35.0844C31.9638 35.0655 31.9638 35.0466 31.945 35.0277C31.8696 34.8763 31.6058 34.1953 31.3232 33.4008C31.097 32.8143 30.8709 32.1711 30.6825 31.6225ZM30.0419 29.7119C30.0419 29.7497 30.0042 29.7308 29.9853 29.693C29.9476 29.674 29.91 29.6362 29.91 29.6362L29.2316 27.8769H29.2693L29.3258 28.0093C29.3824 28.1039 29.4766 28.2742 29.5896 28.539C29.665 28.6714 29.7404 28.8417 29.8346 29.0498C30.023 29.4849 30.0607 29.674 30.0419 29.7119ZM29.5331 27.4985L29.0997 27.6499L28.8359 27.9715L32.0203 36.0303L32.4726 35.3682L29.5331 27.4985Z" fill="white"/>
<path d="M33.7952 34.7994L33.4937 34.4967V34.4588C33.9647 34.7615 34.3039 35.1777 34.3604 35.8209C34.3039 35.3858 33.7952 34.7994 33.7952 34.7994ZM33.3618 37.4478C33.4372 37.183 33.2864 36.8235 33.2864 36.8235C33.2864 36.8235 33.3618 36.7289 33.456 36.6154C33.7952 36.6722 34.0778 36.5019 34.1343 36.483C33.8517 37.3154 33.4748 37.4478 33.3618 37.4478ZM33.1168 36.6533C33.0415 36.5776 32.9472 36.5208 32.8719 36.483C32.9284 36.4262 33.0038 36.3506 33.0415 36.2749C33.0415 36.2749 33.0415 36.2749 33.0415 36.2938C33.098 36.3695 33.1734 36.4452 33.2676 36.5019C33.211 36.5398 33.1545 36.5965 33.1168 36.6533ZM32.4762 36.3127C32.3066 36.3127 32.1747 36.1614 32.1747 35.9911C32.1747 35.8209 32.3066 35.6696 32.4762 35.6696C32.6458 35.6696 32.7965 35.8209 32.7965 35.9911C32.7965 36.1614 32.6458 36.3127 32.4762 36.3127ZM31.8732 35.8587L31.779 35.9155C31.6848 35.9533 31.4398 36.0479 31.3268 35.9911C31.3079 35.9722 31.2703 35.9533 31.2514 35.8776C31.1949 35.575 31.2137 35.348 31.3079 35.1966C31.421 35.0453 31.6094 34.9507 31.8921 34.9129L32.0993 34.8939L31.9863 34.5534H32.1559C32.2501 34.5534 32.3443 34.5723 32.4197 34.5723C32.4008 34.6291 32.4008 34.6669 32.4008 34.7048L32.0616 34.5534L32.0805 34.5913H32.0616L32.1747 34.7615L32.2689 34.9129C32.2878 34.9507 32.3631 35.0642 32.4762 35.1399L32.6081 35.1966L32.7588 35.329L32.8153 35.2155C32.853 35.1399 33.1357 34.9507 33.3053 34.8561L32.9849 35.5939C32.9849 35.5939 32.9661 35.5939 32.9661 35.6128C32.853 35.4615 32.6834 35.3669 32.4762 35.3669C32.1747 35.3669 31.9297 35.575 31.8732 35.8587ZM31.6471 36.5587C31.6471 36.5208 31.6471 36.5019 31.6471 36.483C31.7413 36.4262 31.8355 36.3506 31.9297 36.256C31.9486 36.3127 31.9674 36.3506 31.9863 36.3884C31.8732 36.4073 31.7413 36.4452 31.6471 36.5587ZM31.9674 37.9018C31.8167 37.864 31.6659 37.7883 31.534 37.7126V37.6937C31.5717 37.7316 31.6471 37.7694 31.7413 37.8072C31.7979 37.8451 31.8921 37.864 31.9674 37.9018ZM31.1949 36.71C31.1572 36.6343 31.1195 36.5398 31.1007 36.4262C31.1384 36.4452 31.176 36.483 31.2137 36.5019C31.2137 36.5776 31.2137 36.6533 31.1949 36.71ZM30.818 35.2345C30.7427 35.3858 30.705 35.5371 30.705 35.6696C30.705 35.7452 30.705 35.802 30.7238 35.8587L30.6673 35.8776L30.6484 35.9911C30.6484 36.029 30.6296 36.4262 30.7804 36.8424C30.818 36.9559 30.8746 37.0694 30.9311 37.164C30.705 36.8614 30.5919 36.483 30.5919 36.0668C30.5919 35.4236 30.8934 34.8561 31.3833 34.5156H31.4398H31.4964C31.4398 34.5345 31.3833 34.5723 31.3079 34.6102C31.1949 34.6858 31.063 34.7994 30.9499 34.9507C30.8934 35.0453 30.8557 35.1399 30.818 35.2345ZM32.4762 34.1562V34.1751C32.2878 34.1751 32.137 34.2129 32.137 34.2129L31.8167 34.2886C32.024 34.2129 32.2501 34.1562 32.4762 34.1562ZM32.6081 34.9129V34.8939L32.6458 34.6102V34.5534L32.6646 34.4778V34.4399L32.6834 34.3453V34.3075V34.2507V34.2129V34.194L32.7023 34.1751V34.1183V34.0805L32.7211 34.0237V33.9481V33.9102L32.7588 33.6643H32.8342L32.8153 33.9291L32.7965 33.967V34.0427V34.0994L32.7777 34.1372V34.194V34.2129V34.2318L32.7588 34.2697V34.3075V34.3643V34.4021L32.74 34.4399V34.4967L32.7211 34.5723V34.6102L32.7023 34.7994L32.6834 34.875V34.9129H32.6081ZM32.8342 33.3238C32.853 33.3238 32.853 33.3238 32.8719 33.3238C32.9096 33.3238 32.9472 33.3427 32.9849 33.3427C33.0415 33.3616 33.1922 33.3805 33.1922 33.3805C33.1922 33.3805 33.1922 33.3805 33.1922 33.4562C33.1922 33.4562 33.1922 33.4751 33.1734 33.4751C33.1734 33.494 33.1734 33.513 33.1734 33.5319C33.1545 33.3995 33.0226 33.4184 33.0226 33.4184L32.9849 33.5319C32.9661 33.4751 32.9472 33.4373 32.9284 33.3995C32.9096 33.3805 32.8907 33.3616 32.8719 33.3427C32.8719 33.3427 32.8719 33.3427 32.853 33.3427L32.8342 33.3238ZM33.6256 34.7615L33.8328 35.348C33.8517 35.4425 33.9271 35.6696 33.9836 35.9911C33.9082 36.0668 33.7763 36.1236 33.6444 36.1425C33.5314 36.1614 33.456 36.1425 33.4183 36.1047C33.2676 35.9533 33.3053 35.6885 33.3053 35.6885L33.4372 34.7994L33.6256 34.7615ZM33.4937 34.4588L33.4748 34.4778C33.4372 34.4588 33.4183 34.4399 33.3806 34.421C33.2676 34.3643 33.1357 34.2886 32.9849 34.2318C33.1545 34.2697 33.3241 34.3453 33.4937 34.4588ZM33.0038 33.967C33.0226 33.9102 33.0226 33.8724 33.0226 33.8535C33.1357 33.8724 33.2864 33.8913 33.3241 33.8724C33.4372 33.8346 33.4372 33.74 33.4372 33.513C33.4372 33.4751 33.4372 33.4373 33.4372 33.3995C33.4372 33.3427 33.4183 33.286 33.3806 33.2481C33.3053 33.1724 33.1922 33.1535 33.098 33.1535C33.0603 33.0779 33.0038 33.0211 32.9472 33.0022C32.8719 32.9644 32.7965 32.9833 32.7588 33.0211C32.7211 33.0589 32.7023 33.0779 32.6834 33.0968V33.1157C32.5892 33.1346 32.3631 33.1724 32.3254 33.286C32.3066 33.3238 32.2689 33.6265 32.2878 33.7021C32.3254 33.8156 32.4573 33.7967 32.5327 33.7967C32.5327 33.8156 32.5327 33.8535 32.5139 33.8913C32.5139 33.8913 32.495 33.8913 32.4762 33.8913C31.9297 33.8913 31.421 34.0994 31.0441 34.4588L30.8934 34.4778L31.0065 34.4967C30.5731 34.875 30.3281 35.4425 30.3281 36.0668C30.3281 37.1451 31.1007 38.0342 32.1182 38.2045C32.0805 38.1667 32.0428 38.1099 32.0616 38.0153C32.1182 37.8451 32.0993 37.6559 32.0993 37.4856V37.4667C31.9863 37.4289 31.8921 37.41 31.8355 37.391C31.8355 37.2208 31.8921 36.9559 31.9486 36.8992C32.0616 36.7857 32.2312 36.7668 32.3631 36.7857L32.495 36.8046C32.7965 36.8803 32.8719 37.0505 32.9096 37.2019C32.9284 37.2965 32.7965 37.5046 32.7211 37.5802C32.6646 37.5802 32.5892 37.5613 32.4762 37.5424C32.4762 37.6748 32.4762 37.8072 32.4762 37.9397L32.6834 37.9586C32.6269 37.9586 32.5515 37.9775 32.4762 37.9775C32.4762 37.9775 32.4762 37.9775 32.4573 37.9775C32.4573 38.0153 32.4385 38.0721 32.4385 38.1288C32.4197 38.1856 32.382 38.2045 32.3443 38.2423C32.4008 38.2423 32.4385 38.2423 32.4762 38.2423C33.6821 38.2423 34.6431 37.2586 34.6431 36.0668C34.6431 35.0453 33.9459 34.194 33.0038 33.967Z" fill="white"/>
<path d="M32.401 38.3768C32.401 38.3579 32.3256 38.2633 32.3256 38.2633C32.3256 38.2633 32.4952 38.2822 32.5894 38.2822C32.5517 38.3201 32.4952 38.3579 32.401 38.3768ZM32.1372 38.3579C32.0806 38.3768 31.9487 38.4525 31.9299 38.5849C31.9299 38.7173 31.8922 38.7362 31.8922 38.7362C31.8922 38.7362 31.7603 38.6984 31.7603 38.6038C31.7792 38.5281 31.8357 38.3201 31.8545 38.3201C31.8734 38.3201 31.8922 38.3957 31.8922 38.3957L32.1183 38.3201C32.1183 38.3201 32.2314 38.2255 32.2879 38.3579C32.2502 38.339 32.1937 38.3579 32.1372 38.3579ZM32.1937 38.6417C32.2314 38.5849 32.2125 38.5092 32.1372 38.5092C32.043 38.5092 32.0618 38.5849 32.0806 38.6795C32.0618 38.6606 31.9487 38.6417 32.0053 38.5092C32.043 38.3768 32.2125 38.3768 32.2502 38.4336C32.2879 38.4903 32.2879 38.6038 32.1937 38.6417ZM32.401 36.3905L32.4386 36.3526L32.514 36.3905C32.514 36.3905 32.3256 37.8282 32.2879 38.1498C32.2314 38.1309 32.1372 38.1498 32.1372 38.1498L32.401 36.3905ZM32.872 38.1876C32.8343 38.112 32.759 38.0552 32.7401 38.0363L32.6836 37.9985L32.6271 38.0174C32.6082 38.0174 32.5705 38.0363 32.5329 38.0741C32.514 38.0741 32.514 38.0741 32.4952 38.0741C32.514 37.866 32.6082 37.1093 32.6836 36.3905L32.7024 36.2959L32.5517 36.3716L32.4763 36.3148L32.3633 36.3337L32.2502 36.2202L32.2314 36.3148L32.156 36.3337L32.2314 36.3905C32.1748 36.6364 32.0053 37.6769 31.9487 38.0363H31.8734C31.8357 38.0174 31.798 37.9985 31.7603 37.9985C31.7038 37.9985 31.6661 38.0174 31.6473 38.0552C31.5907 38.1309 31.5154 38.5471 31.5342 38.6984C31.5342 38.7741 31.553 38.8308 31.6096 38.8876C31.7038 38.9632 31.8357 38.9822 31.9299 38.9632C31.9864 39.0011 32.0806 39.02 32.1748 39.02C32.2879 39.02 32.4198 38.9822 32.514 38.9254C32.6648 38.9254 32.872 38.9065 32.872 38.7362C32.872 38.7362 32.872 38.6984 32.872 38.6795C32.8909 38.3011 32.872 38.2255 32.872 38.1876Z" fill="white"/>
<path d="M35.0515 27.762C35.0704 27.7431 35.0704 27.7242 35.0704 27.6863C35.0704 27.4972 34.9196 27.3458 34.7124 27.3458C34.5428 27.3458 34.4109 27.4593 34.3732 27.6296L33.4688 31.2428C33.6195 31.3185 33.7325 31.4131 33.8268 31.5266C34.1659 30.3159 34.5051 29.0862 34.5051 29.0862L34.5993 28.8025C34.5993 28.8025 34.2601 30.278 33.9021 31.6212C33.9587 31.7158 34.034 31.7914 34.0906 31.886L35.1081 27.7998C35.0892 27.7809 35.0704 27.762 35.0515 27.762Z" fill="white"/>
<path d="M27.5838 30.3736L27.1504 30.9979L27.0373 31.1681L24.6255 34.6679H24.5313L27.7533 29.9385C27.7533 29.9385 27.7533 29.9385 27.7533 29.9574C27.7722 30.052 27.5838 30.3736 27.5838 30.3736ZM29.7883 27.6684C29.7883 27.4792 29.6188 27.309 29.4303 27.309C29.355 27.309 29.2984 27.3279 29.2607 27.3657C29.1854 27.3657 29.0912 27.3657 28.997 27.4603C28.9027 27.536 28.8462 27.6684 28.8462 27.8576C28.4694 28.444 24.324 34.5922 24.2863 34.63L24.2109 34.7435L24.2675 34.7814L24.324 34.8192C24.3428 34.8192 24.3617 34.8381 24.5878 34.8949L24.6632 34.9138L24.7197 34.8381C26.1706 32.8139 29.5434 28.0846 29.5434 28.0657C29.5622 28.0467 29.5811 28.0278 29.5999 27.99C29.713 27.9332 29.7883 27.8008 29.7883 27.6684Z" fill="white"/>
<path d="M35.0184 27.8382L34.9807 27.7058C34.9807 27.7058 40.4828 33.0216 40.4828 33.2486C40.4828 33.3432 35.0184 27.8382 35.0184 27.8382ZM43.2149 35.443L34.9619 27.4598C34.7734 27.4788 34.4531 28.0274 34.4531 28.0274L42.5931 35.8781C42.5931 35.8781 42.7815 36.0673 43.0265 36.0673C43.5541 36.0673 43.2149 35.443 43.2149 35.443Z" fill="white"/>
<path d="M50.6536 21.8032C50.6347 21.8789 50.5782 21.9546 50.5594 22.0492C50.5217 22.1816 50.5782 22.2383 50.7289 22.2005C50.8797 22.1248 51.0493 22.0492 51.1812 21.9546C51.9349 21.4438 52.8958 20.5925 53.6684 20.1196C53.8568 20.0061 53.9133 19.7223 53.8003 19.5142C53.7249 19.3818 53.5177 19.3061 53.2915 19.4007C52.9901 19.5142 52.6886 19.6466 52.4059 19.8358C51.803 20.2331 51.0116 21.16 50.6536 21.8032ZM40.2713 19.4764C40.2713 19.5331 40.2525 19.6088 40.2525 19.6466C40.2713 19.7223 40.2902 19.8169 40.309 19.8926C40.3844 19.8547 40.4786 19.8358 40.5163 19.7791C40.7047 19.571 40.8743 19.3629 41.025 19.1359C41.4961 18.4738 42.1367 17.6036 42.6266 16.9604C42.7962 16.7523 42.7774 16.4685 42.6078 16.2983C42.4947 16.1848 42.3063 16.2037 42.0802 16.355C42.0237 16.3928 41.9671 16.4118 41.9483 16.4685C41.6845 16.7523 41.4207 17.055 41.2134 17.3766C40.8554 17.963 40.4409 18.7954 40.2713 19.4764ZM43.1731 16.3361C43.3992 16.1091 43.6253 16.2037 43.8326 16.2983C44.021 16.3928 44.1717 16.5253 44.3225 16.6577C44.3413 16.6766 44.3413 16.7901 44.3036 16.8279C43.9456 17.0739 42.6266 19.1359 42.4947 19.7602C42.4571 19.8547 42.4947 19.9682 42.4947 20.0818C42.6078 20.025 42.7209 20.0061 42.7962 19.9304C43.1731 19.4764 43.5688 19.0413 43.9456 18.5873C44.4167 17.963 45.0762 17.1117 45.3777 16.3928C45.4153 16.2793 45.4907 16.2415 45.6038 16.2604C45.9241 16.3361 46.2256 16.4685 46.4328 16.6955C46.5647 16.8469 46.5459 16.9793 46.4328 17.1306C46.056 17.6414 45.3965 18.3603 45.0385 18.89C44.8877 19.098 44.7558 19.3251 44.6428 19.571C44.8501 19.3251 45.0573 19.098 45.2646 18.871C45.8487 18.2657 46.7343 17.5279 47.4315 17.0739C47.9214 16.7712 48.449 16.9225 48.807 17.3198C48.9577 17.4901 48.9201 17.5279 48.7505 17.6603C48.4867 17.8684 47.9402 18.3035 47.733 18.5684C47.375 19.0413 47.0546 19.5142 46.7155 20.0061C46.6966 20.0439 46.6778 20.1007 46.6778 20.1763C46.7155 20.1385 46.772 20.1007 46.8097 20.0628C47.4692 19.4386 48.4302 18.6629 49.1462 18.0954C49.3534 17.9441 49.5795 17.8306 49.7868 17.7171C50.0883 17.5468 50.3709 17.5657 50.6536 17.7549C50.8797 17.9062 51.087 18.0765 51.1246 18.3413C50.3521 18.5494 49.0708 20.2709 48.7316 20.7439C48.6186 20.8952 48.5432 21.1033 48.4867 21.2736C48.4302 21.406 48.5055 21.4816 48.6374 21.4249C48.8258 21.3303 49.0331 21.2168 49.2027 21.0844C49.881 20.5169 50.7666 19.5899 51.4826 19.0602C51.8595 18.7764 52.3117 18.5873 52.8016 18.5873C53.4423 18.5873 54.2525 19.0035 54.3279 19.7223C54.3279 19.7412 54.3279 19.7412 54.3467 19.7602C54.5163 19.7223 54.667 19.7223 54.8178 19.8358C55.0627 20.0061 55.27 20.1953 55.3642 20.479C55.3642 20.5169 55.3265 20.5925 55.3077 20.6114C54.8178 20.7439 53.0089 22.3897 52.7451 22.8815C52.7074 22.9572 52.7074 23.0518 52.6886 23.1464C52.8016 23.1464 52.9147 23.1653 53.0089 23.1275C53.48 22.8626 53.9699 22.5978 54.4409 22.3329C54.8178 22.0681 55.1758 21.8032 55.5338 21.5573C56.1179 21.1411 57.0224 20.7817 56.8151 20.8952C56.9847 20.8195 57.1731 20.8385 57.305 21.0087C57.4746 21.179 57.6442 21.3681 57.7572 21.5573C57.8703 21.7276 57.8138 21.7465 57.6442 21.8222C57.3615 21.9357 57.0789 22.0681 56.8151 22.2194C56.2498 22.6167 55.3265 23.2221 54.8555 23.7517C54.7801 23.8463 54.7047 23.9598 54.667 24.0544C54.5917 24.1868 54.667 24.2814 54.8178 24.2625C54.9308 24.2436 55.0627 24.2058 55.1758 24.149C55.7599 23.8652 56.7774 23.4112 57.3615 23.1275C57.6819 22.9572 57.9457 22.7302 58.266 22.5599C58.4733 22.4464 58.7182 22.3708 58.9443 22.2951C59.0762 22.2383 59.2269 22.2951 59.34 22.4275C59.5473 22.6167 59.7169 22.8248 59.8111 23.0707C59.8676 23.2031 59.8676 23.2788 59.6792 23.2977C59.4342 23.3356 59.1893 23.4491 58.9632 23.5815C58.3225 23.922 57.3427 24.5084 56.8339 25.0381C56.7774 25.1138 56.702 25.1895 56.6644 25.2841C56.6455 25.3408 56.6455 25.4165 56.6455 25.4732C56.702 25.4921 56.7963 25.53 56.8528 25.53C57.0789 25.4732 57.305 25.4165 57.5311 25.3219C58.0587 25.1138 58.6051 24.9057 59.1327 24.6976C59.2458 24.6598 59.3588 24.6409 59.4719 24.6219C59.4907 24.6219 59.5096 24.6409 59.5284 24.6598C59.4907 24.6976 59.4719 24.7544 59.4342 24.7922C59.0762 25.0192 58.7182 25.2462 58.3414 25.4732C57.8514 25.7192 57.3615 25.9273 56.8151 26.0218C56.702 26.0408 56.5701 26.0597 56.4571 26.0408C55.9672 26.0218 55.6092 25.5489 55.6469 25.076C55.6657 24.9057 55.7411 24.7354 55.7976 24.5652C55.8164 24.4895 55.873 24.4328 55.873 24.3382C55.8164 24.376 55.7599 24.4139 55.6845 24.4328C55.3454 24.5463 55.0062 24.6976 54.6482 24.7733C54.1771 24.9057 53.7249 24.4895 53.6684 24.0544C53.6307 23.7896 53.7061 23.5626 53.8003 23.3545C53.8191 23.3166 53.838 23.2788 53.8568 23.2221C53.6307 23.3356 53.4234 23.4491 53.2162 23.5437C53.0654 23.6004 52.9147 23.6572 52.7451 23.7139C52.1798 23.8842 51.6334 23.4301 51.6899 22.8437C51.7276 22.5599 51.8407 22.2951 51.916 22.0303C51.8218 22.0681 51.7276 22.1438 51.6334 22.2005C51.3319 22.3708 51.0304 22.5599 50.7289 22.7113C50.1448 22.995 49.4477 22.541 49.5607 21.86C49.5984 21.6708 49.6549 21.4627 49.7114 21.2546C49.4665 21.4249 49.2215 21.6141 48.9766 21.7654C48.8258 21.86 48.6563 21.9546 48.4867 22.0113C48.0721 22.2005 47.6011 21.8789 47.5069 21.4438C47.488 20.933 47.5634 20.6493 47.7895 20.2142C47.9591 19.8737 48.1852 19.5521 48.3925 19.2305L48.449 19.1359C48.449 19.117 48.4302 19.117 48.4302 19.098C48.0721 19.4196 47.7141 19.7412 47.375 20.0628C46.9793 20.4601 46.6213 20.8574 46.2444 21.2736C46.0183 21.5195 45.9052 21.5195 45.698 21.3114C45.4719 21.1033 45.3777 20.6682 45.4907 20.3844C45.698 19.7602 45.9995 19.1737 46.3386 18.6251C46.3952 18.5305 46.4328 18.4548 46.4894 18.3792L46.4517 18.3413C46.3198 18.4548 46.169 18.5494 46.056 18.6819C45.4719 19.3061 44.8877 19.9682 44.3413 20.6304C44.2659 20.7249 44.1717 20.8385 44.0964 20.933C44.0021 21.0655 43.8891 21.0844 43.7572 21.0087C43.3803 20.8385 43.2673 20.4034 43.3427 20.0061C43.305 20.0628 43.2673 20.1007 43.2296 20.1196C43.0412 20.2898 42.8716 20.4601 42.702 20.6114C42.2498 21.0465 41.5903 20.6682 41.5149 20.1574C41.4584 19.8737 41.4961 19.5521 41.4772 19.2494C41.4019 19.3629 41.2888 19.5331 41.1758 19.6656C40.9496 19.9304 40.7235 20.1953 40.4974 20.4223C40.1206 20.8385 39.5176 20.5547 39.348 20.1196C39.235 19.7791 39.235 19.3251 39.3103 18.9845C39.4611 18.2468 39.9133 17.2252 40.3655 16.6009C40.6105 16.2226 40.9496 15.901 41.3642 15.7118C42.0425 15.4281 42.7962 15.7118 43.1731 16.3361Z" fill="white"/>
<path d="M21.2483 26.5522C21.1352 26.8171 20.8903 26.8549 20.8903 26.5144C20.8903 26.4955 21.0787 25.682 21.3236 25.4928C21.3236 25.4928 21.3425 25.4928 21.3613 25.4928C21.399 25.7577 21.3425 26.3252 21.2483 26.5522ZM32.7988 17.2448C32.7046 17.3394 32.6669 17.4151 32.6292 17.5097C32.5161 17.7745 32.4031 18.0394 32.3089 18.3042C32.0827 18.8717 31.8566 19.4393 31.6305 20.0068C31.5928 20.1203 31.4609 20.2716 31.4044 20.2527C31.2537 20.2338 31.2725 20.0446 31.2725 19.9122C31.2537 19.2122 31.329 18.5312 31.4798 17.8502C31.6117 17.2827 31.7624 16.7908 32.0451 16.28C31.9697 16.2233 31.9132 16.1287 31.8378 16.1098C31.6305 16.0341 31.4233 15.9774 31.216 15.9395C31.0276 15.9206 30.8768 16.0152 30.8203 16.1854C30.6696 16.6016 30.5565 16.9989 30.4434 17.4151C30.3681 17.661 30.3681 17.9259 30.2927 18.1529C30.1231 18.7393 29.9535 19.3068 29.784 19.8744C29.7086 20.1203 29.5955 20.3473 29.5013 20.5743C29.4825 20.6121 29.4071 20.6689 29.3694 20.65C29.3317 20.65 29.294 20.5743 29.2752 20.5175C29.2375 20.3851 29.2187 20.2338 29.2187 20.0824C29.1621 19.2879 29.2564 18.4934 29.4071 17.7178C29.4636 17.3962 29.5578 17.0557 29.6897 16.7719C29.7651 16.6016 29.7274 16.507 29.6144 16.4692C29.3883 16.3935 29.1621 16.3557 28.9549 16.3179C28.7476 16.28 28.5969 16.4125 28.5403 16.6206C28.4461 16.9232 28.3331 17.2448 28.2954 17.5664C28.2389 17.9448 28.22 18.3799 28.1446 18.7582C28.0316 19.3257 27.8809 19.9311 27.7301 20.5175C27.6736 20.7067 27.5982 20.8959 27.5228 21.0851C27.4663 21.1986 27.3721 21.1797 27.3156 21.0472C27.2779 20.9337 27.259 20.8013 27.2402 20.6878C27.146 19.9311 27.1837 19.1744 27.259 18.3988C27.2967 17.9448 27.3533 17.4718 27.5794 17.0557C27.504 16.9989 27.4286 16.9232 27.3533 16.9043C27.146 16.8665 26.9199 16.8286 26.6938 16.8286C26.5242 16.8097 26.3923 16.9043 26.3169 17.0746C26.2039 17.2827 26.072 17.5097 26.0154 17.7556C25.7893 18.588 25.6197 19.4393 25.4502 20.2905C25.3936 20.5554 25.3559 20.8013 25.3183 21.0472C25.2806 20.9905 25.2617 20.9337 25.2617 20.877C25.1675 20.0824 25.1675 19.269 25.2617 18.4555C25.2806 18.2475 25.2994 18.0015 25.3936 17.8123C25.469 17.6232 25.3936 17.5664 25.2806 17.5097C24.8095 17.2637 24.2819 17.5853 24.0746 18.0394C24.0746 18.0772 24.0558 18.115 24.037 18.1529C23.7355 18.9852 23.5847 19.8554 23.4905 20.7635C23.4528 21.0472 23.4152 21.3499 23.3963 21.6526C23.3586 21.4256 23.3209 21.1986 23.3209 20.9716C23.3021 20.2338 23.3021 19.496 23.3021 18.7582C23.3021 18.5123 23.2456 18.3988 23.0572 18.342C22.7745 18.2475 22.473 18.3042 22.1904 18.3988C22.0773 18.4366 22.0397 18.5312 22.0962 18.6636C22.115 18.7393 22.1527 18.8339 22.1527 18.9285C22.2658 19.8365 22.3977 20.7446 22.2846 21.6526C22.2092 22.1634 22.1527 22.6931 22.0773 23.2038C22.0585 23.3741 21.9831 23.5254 21.9266 23.6768C21.8512 23.4498 21.8135 23.2038 21.7759 22.9768C21.6628 22.0309 21.5497 21.104 21.4744 20.1581C21.4555 19.8744 21.4932 19.5906 21.5497 19.3257C21.5874 19.1555 21.5497 19.0987 21.4367 19.0609C21.1729 18.9474 20.9279 18.9852 20.683 19.0609C20.5511 19.1177 20.4569 19.2122 20.438 19.3636C20.4192 19.6095 20.4003 19.8554 20.4003 20.1014C20.4192 20.404 20.4946 20.7067 20.4757 21.0094C20.438 21.8418 20.4003 22.6741 20.3627 23.5065C20.3627 23.6768 20.325 23.847 20.2685 24.0173C20.2308 24.1497 20.1366 24.1497 20.0612 24.0173C20.0047 23.9038 19.9481 23.7524 19.9104 23.62C19.6655 22.8066 19.5336 21.9742 19.4959 21.1229C19.4959 20.8202 19.5336 20.4986 19.5524 20.196C19.5524 20.1392 19.4959 20.0635 19.4394 20.0446C19.1567 19.9311 18.8553 19.9689 18.5915 20.1581C18.3842 20.2905 18.4407 20.5743 18.4219 20.8013C18.4219 20.8202 18.4219 20.8391 18.4219 20.8581C18.4407 21.8039 18.5915 22.7687 18.8553 23.6389C19.006 24.0929 19.1756 24.4335 19.4959 24.7551C19.7974 25.0767 20.5511 25.0199 20.6453 24.4335C20.683 24.1686 20.7395 23.8281 20.7772 23.5254C20.8149 23.3741 20.796 23.2038 20.8149 23.0525C20.9468 23.5443 21.0598 24.0362 21.1917 24.528C21.2294 24.6983 21.1917 24.7929 21.0975 24.8875C20.8714 25.1145 20.4946 25.4928 20.4192 26.0793C20.3815 26.4198 20.3627 26.9117 20.8337 27.1008C21.0787 27.1954 21.399 27.1765 21.644 27.0252C21.9078 26.8738 22.0585 26.5901 22.0773 26.0414C22.0962 25.7577 22.1339 25.0956 22.0962 24.7551C22.0773 24.6037 22.0773 24.4713 22.1527 24.3389C22.2281 24.1875 22.3034 24.0173 22.36 23.847C22.4542 23.5065 22.5296 23.1471 22.6238 22.8066C22.6238 22.8066 22.6426 22.8255 22.6426 22.8444C22.7557 23.1849 23.0572 23.393 23.3963 23.4308C23.6224 23.4498 23.6978 23.393 23.7166 23.1282C23.7166 23.0525 23.7166 22.9768 23.7355 22.9012C23.792 21.9742 23.8674 21.0472 23.9804 20.1392C23.9993 19.9311 24.0746 19.7419 24.1123 19.5528C24.1312 19.5528 24.1312 19.5528 24.15 19.5717C24.1689 19.6663 24.1689 19.7609 24.1689 19.8744C24.2254 20.5743 24.3196 21.1986 24.508 21.8796C24.6022 22.258 24.9414 22.5985 25.3559 22.6363C25.4878 22.6363 25.5632 22.5606 25.5821 22.4093C25.6009 22.258 25.6009 22.1066 25.6197 21.9553C25.7328 21.0283 25.8647 20.1203 26.0154 19.2122C26.0343 19.1555 26.0531 19.0987 26.072 19.042C26.1096 19.2879 26.1096 19.5149 26.1285 19.7609C26.1285 19.9879 26.1473 20.2338 26.185 20.4608C26.2604 20.8959 26.3546 21.2742 26.5807 21.6148C26.8068 22.012 27.5605 22.1823 27.7866 21.6148C27.8243 21.558 27.862 21.5202 27.8809 21.4445C27.9939 21.104 28.107 20.7446 28.2389 20.3851C28.2954 20.5743 28.3519 20.7635 28.4273 20.9337C28.578 21.2553 28.7853 21.4634 29.1056 21.5013C29.4071 21.5391 29.6332 21.3688 29.7651 21.0662C29.9159 20.7446 30.0477 20.3851 30.1796 20.0446C30.1985 19.9879 30.2173 19.9311 30.255 19.8365C30.3115 20.0635 30.3492 20.2527 30.4058 20.423C30.5188 20.7446 30.7449 21.0472 31.1029 21.104C31.4421 21.1418 31.6494 20.9148 31.819 20.6121C32.3465 19.6284 32.6669 18.5123 32.8365 17.3962C32.8365 17.3583 32.8176 17.3016 32.7988 17.2448Z" fill="white"/>
<path d="M19.8155 26.1738C19.8909 26.0792 19.9851 26.0036 20.0416 25.909C20.1359 25.7576 20.1547 25.6252 20.004 25.4928C19.8909 25.3982 19.2503 25.2658 18.7415 24.8874C18.0255 24.3577 17.4979 23.7335 16.9326 23.0714C16.8949 23.0335 16.8761 22.9389 16.8761 22.8633C16.9326 22.5038 16.9891 22.1255 17.0457 21.766C17.2153 20.9337 17.4225 20.1202 17.7429 19.3635C17.8371 19.1744 17.969 19.0041 18.1009 18.8528C18.2139 18.7582 18.2139 18.6825 18.1197 18.6257C17.969 18.5122 17.7994 18.4177 17.6298 18.3609C17.366 18.2852 17.1776 18.3987 17.0268 18.6636C16.9138 18.8528 16.8196 19.0609 16.7442 19.2689C16.3862 20.2905 16.2166 21.3499 16.1224 22.4282C16.0847 22.7498 16.0659 23.0524 16.047 23.374C15.9716 23.0714 15.934 22.7687 15.8963 22.4849C15.8021 21.8985 15.7079 21.312 15.5194 20.7445C15.2745 19.9878 14.4642 20.0446 13.9932 20.5932C13.6729 20.9715 13.4091 21.4445 13.2395 21.9363C13.0134 22.5984 12.9192 23.393 13.1453 24.074C13.3148 24.5658 13.9743 24.9631 14.4642 24.7739C14.5208 24.755 14.5396 24.6983 14.615 24.6226C14.3135 24.5469 14.1816 24.3199 14.0874 24.0551C13.8801 23.4686 13.8424 22.8065 13.9367 22.2201C14.012 21.8039 14.1251 21.3877 14.3323 21.0283C14.4266 20.8958 14.4831 20.8958 14.5396 21.0283C14.5773 21.1607 14.615 21.2742 14.6338 21.4066C14.8599 22.6741 15.0672 23.9605 15.3498 25.209C15.4817 25.7955 15.6325 26.4008 15.8021 26.9873C15.8774 27.271 16.0847 27.3845 16.3485 27.4035C16.4804 27.4224 16.6123 27.4035 16.7442 27.3845C16.9515 27.3467 16.9703 27.2899 16.8949 27.0629C16.7442 26.6089 16.7065 26.1171 16.7065 25.6252C16.7065 25.1901 16.7065 24.7739 16.7254 24.3388C16.7819 24.3956 16.8007 24.4145 16.8384 24.4523C17.0834 24.7172 18.2516 25.9657 18.8357 26.2306C19.1184 26.3441 19.5706 26.4197 19.7967 26.1738C19.8155 26.1738 19.8155 26.1738 19.8155 26.1738Z" fill="white"/>
<path d="M27.1813 15.8072C27.1813 15.618 27.1813 15.4288 27.1059 15.2586C27.0305 14.9937 26.8233 14.8991 26.5406 14.937C26.3145 14.9559 26.0884 14.9748 25.8623 15.0505C24.8448 15.3342 23.865 15.8072 22.9228 16.3558C22.659 16.5071 21.4531 17.3584 21.4531 17.4341C21.4531 17.6043 21.9619 17.7746 22.2068 17.6989C22.4141 17.5665 22.9605 17.2449 23.0171 17.226C23.3374 17.0557 23.6765 16.8855 24.0157 16.7341C24.7883 16.3936 25.5608 16.0909 26.371 15.9207C26.5783 15.8828 26.7856 15.8828 26.9928 15.9207C27.1247 15.9396 27.2001 15.9017 27.1813 15.8072Z" fill="white"/>
<path d="M51.5248 17.263C51.6378 17.1116 51.732 16.9414 51.7886 16.7711C51.8639 16.5063 51.7697 16.3171 51.5059 16.1658C51.3175 16.0523 51.1102 15.9388 50.903 15.8631C49.9043 15.4847 48.8491 15.2956 47.7751 15.1631C47.4548 15.1253 45.985 15.1064 45.9474 15.1631C45.8532 15.2956 46.1546 15.7307 46.3996 15.8252C46.6445 15.8442 47.2663 15.9009 47.3229 15.9198C47.6809 15.9766 48.0577 16.0333 48.4157 16.109C49.2448 16.2982 50.055 16.5063 50.7899 16.8657C50.9783 16.9603 51.1479 17.0927 51.2987 17.2251C51.3929 17.3386 51.4682 17.3386 51.5248 17.263Z" fill="white"/>
<path d="M59.2419 21.4433C59.5434 21.6514 60.3348 21.9919 60.9377 21.8216C61.0131 21.8027 61.032 21.7081 60.9566 21.6703C60.4855 21.3865 60.2217 21.3109 59.713 20.8568C59.5434 20.7055 59.4115 20.4785 59.3361 20.3461C59.2796 20.2326 59.2231 20.2136 59.1477 20.2515C59.0158 20.3461 58.8839 20.4217 58.7897 20.5352C58.6578 20.7055 58.6766 20.8757 58.8462 21.0649C58.9593 21.1973 59.0912 21.3298 59.2419 21.4433Z" fill="white"/>
<path d="M39.021 21.3692C39.1341 21.3313 39.2471 21.2935 39.3413 21.2367C39.4921 21.1611 39.5674 21.0287 39.4921 20.8584C39.4355 20.7071 38.9268 20.3098 38.6442 19.7423C38.2485 18.9477 38.06 18.1532 37.8339 17.3019C37.8151 17.2452 37.8528 17.1506 37.8904 17.0938C38.0977 16.7911 38.305 16.4695 38.5311 16.1858C39.0587 15.5237 39.6051 14.8805 40.2458 14.3508C40.3965 14.2373 40.6038 14.1238 40.7922 14.067C40.9241 14.0103 40.9618 13.9535 40.9053 13.8589C40.811 13.7076 40.7168 13.5373 40.5849 13.4049C40.3777 13.2347 40.1704 13.2347 39.9254 13.4049C39.737 13.5184 39.5486 13.6698 39.379 13.8211C38.6065 14.5589 37.9847 15.448 37.4005 16.356C37.231 16.6209 37.0802 16.8857 36.9106 17.1695C36.986 16.8668 37.0802 16.583 37.1744 16.2993C37.3629 15.7318 37.5513 15.1642 37.6267 14.5778C37.7397 13.8022 37.0048 13.4617 36.3454 13.7454C35.8743 13.9535 35.4409 14.2562 35.0641 14.6156C34.5553 15.1075 34.1219 15.7696 34.0089 16.4695C33.9335 16.9992 34.348 17.6424 34.8756 17.6992C34.9322 17.6992 34.9887 17.6613 35.0829 17.6424C34.8379 17.4343 34.8191 17.1695 34.8568 16.8857C34.9322 16.2804 35.196 15.675 35.554 15.1832C35.7989 14.8426 36.1004 14.521 36.4396 14.313C36.5715 14.2184 36.628 14.2562 36.6092 14.3886C36.6092 14.521 36.5715 14.6535 36.5338 14.7859C36.1758 16.0155 35.7801 17.2452 35.4598 18.4937C35.309 19.0802 35.196 19.6855 35.0829 20.272C35.0075 20.5746 35.1394 20.7638 35.3655 20.8962C35.4786 20.9719 35.6105 21.0287 35.7424 21.0665C35.9497 21.1232 35.9873 21.0854 36.025 20.8584C36.0816 20.3665 36.2888 19.9125 36.4961 19.4774C36.6845 19.0991 36.8918 18.7207 37.0802 18.3424C37.1179 18.418 37.1179 18.437 37.1367 18.4748C37.231 18.8342 37.7209 20.48 38.1354 20.9719C38.3238 21.2178 38.7007 21.4827 39.021 21.3692Z" fill="white"/>
</g>
<defs>
<clipPath id="clip0_3263_43433">
<rect width="96" height="96" fill="white"/>
</clipPath>
</defs>
</svg>
