<?xml version="1.0" encoding="UTF-8" standalone="no"?>
<svg
   xmlns:dc="http://purl.org/dc/elements/1.1/"
   xmlns:cc="http://creativecommons.org/ns#"
   xmlns:rdf="http://www.w3.org/1999/02/22-rdf-syntax-ns#"
   xmlns:svg="http://www.w3.org/2000/svg"
   xmlns="http://www.w3.org/2000/svg"
   viewBox="0 0 264.56668 151.18134"
   height="151.18134"
   width="264.56668"
   xml:space="preserve"
   id="svg2"
   version="1.1"><metadata
     id="metadata8"><rdf:RDF><cc:Work
         rdf:about=""><dc:format>image/svg+xml</dc:format><dc:type
           rdf:resource="http://purl.org/dc/dcmitype/StillImage" /></cc:Work></rdf:RDF></metadata><defs
     id="defs6"><clipPath
       id="clipPath18"
       clipPathUnits="userSpaceOnUse"><path
         id="path16"
         d="M 0,113.386 H 198.425 V 0 H 0 Z" /></clipPath></defs><g
     transform="matrix(1.3333333,0,0,-1.3333333,0,151.18133)"
     id="g10"><g
       id="g12"><g
         clip-path="url(#clipPath18)"
         id="g14"><g
           transform="translate(76.7158,19.4024)"
           id="g20"><path
             id="path22"
             style="fill:#000000;fill-opacity:1;fill-rule:nonzero;stroke:none"
             d="m 0,0 -25.19,6.759 0.966,-0.156 -0.966,0.156 C -25.555,6.02 -26.78,6.712 -26.92,6.403 l -0.265,-0.237 0.287,-0.236 c 0.056,-0.091 0.146,-0.172 0.277,-0.222 6.995,-2.575 27.899,-7.422 28.111,-7.466 l 2.999,-0.695 -3.76,2.223 z" /></g><g
           transform="translate(78.1616,31.4093)"
           id="g24"><path
             id="path26"
             style="fill:#000000;fill-opacity:1;fill-rule:nonzero;stroke:none"
             d="m 0,0 -0.742,1.549 -25.57,-1.284 0.913,0.052 -2.029,-1.589 27.325,1.265 z" /></g><g
           transform="translate(93.4585,60.4688)"
           id="g28"><path
             id="path30"
             style="fill:#000000;fill-opacity:1;fill-rule:nonzero;stroke:none"
             d="m 0,0 c 0.016,0.006 0.031,0.009 0.047,0.015 0.87,0.29 2.419,0.72 2.198,1.256 -0.231,0.562 -2.214,0.06 -2.697,-0.084 -0.48,-0.143 -2.273,-0.395 -2.715,-0.474 1.175,-0.096 2.89,0.29 2.89,0.29 0,0 -1.157,-0.613 -2.444,-0.673 C -2.93,0.324 -3.17,0.324 -3.426,0.333 h -0.018 c -0.571,0.025 -1.223,0.094 -1.811,0.178 -0.094,0.012 -0.184,0.028 -0.272,0.04 -0.651,0.103 -1.187,0.222 -1.39,0.319 -0.449,0.218 -1.852,0.716 -2.213,0.754 h -0.057 c 0.016,0.003 0.032,0.003 0.057,0 0.29,-0.006 1.649,-0.072 2.812,-0.437 1.306,-0.411 2.702,-0.489 5.077,0.253 0.007,0.003 0.013,0.006 0.019,0.006 0.037,0.012 0.075,0.025 0.112,0.034 1.229,0.381 2.319,0.586 3.043,0.534 0.025,0 0.046,0 0.071,-0.004 C 2.609,1.951 2.934,1.695 2.84,1.187 2.721,0.558 1.886,0.249 1.144,0.106 1.057,0.087 0.97,0.071 0.882,0.062 0.399,-0.016 0.006,-0.025 -0.047,-0.016 -0.031,-0.013 -0.016,-0.006 0,0 m -5.115,-1.325 c -0.156,-0.019 -0.324,-0.031 -0.499,-0.031 -0.228,0 -0.468,0.019 -0.723,0.068 -0.122,0.022 -0.246,0.053 -0.377,0.084 -0.1,0.032 -0.197,0.06 -0.297,0.097 0,0 -0.511,0.524 0.337,0.748 0.851,0.225 2.943,-0.24 3.339,-0.224 -0.228,-0.171 -0.852,-0.617 -1.78,-0.742 M -3.37,1.228 C -3.417,1.222 -3.466,1.215 -3.519,1.212 c -0.83,-0.068 -1.949,0.013 -2.475,0.141 -0.767,0.19 -3.021,0.614 -3.345,0.517 0,0 0.071,0.044 0.224,0.093 0.029,0.007 0.056,0.016 0.088,0.026 0.349,0.087 0.988,0.156 1.939,-0.119 C -5.57,1.427 -3.242,1.253 -2.646,1.409 -2.793,1.318 -3.052,1.259 -3.37,1.228 M 3.538,2.706 C 2.883,3.22 1.518,2.952 -0.96,2.465 -1.2,2.419 -1.456,2.369 -1.714,2.319 -4.102,1.854 -6.964,2.55 -7.3,2.699 c -0.284,0.144 -1.556,0.396 -2.41,0.097 -0.477,-0.165 -0.695,-0.455 -0.792,-0.667 -0.162,-0.346 -0.146,-0.714 0.044,-1.045 0.284,-0.495 0.922,-0.838 1.633,-1.05 -0.227,-0.268 -0.377,-0.617 -0.377,-1.051 0,-0.252 0.094,-0.613 0.536,-0.925 0.402,-0.284 1.029,-0.455 1.671,-0.549 0.197,-0.465 0.539,-1.259 0.63,-1.484 l 0.162,-0.386 0.417,-0.037 c 0.147,-0.016 0.309,-0.022 0.487,-0.022 0.299,0 0.536,0.018 0.536,0.018 l 0.733,0.056 -0.056,0.399 0.358,0.004 -0.396,0.261 -0.009,0.069 c -0.01,0.087 -0.097,0.67 -0.278,1.25 0.05,0.015 0.1,0.034 0.159,0.053 l 0.013,0.003 c 0.832,0.274 2.191,0.711 2.933,1.381 1.524,-0.072 3.959,-0.015 4.654,1.007 0.34,0.496 1.231,1.805 0.19,2.625" /></g><g
           transform="translate(73.8696,60.4688)"
           id="g32"><path
             id="path34"
             style="fill:#000000;fill-opacity:1;fill-rule:nonzero;stroke:none"
             d="m 0,0 c 0.016,0.006 0.031,0.009 0.05,0.015 0.867,0.29 2.419,0.72 2.194,1.256 -0.23,0.562 -2.213,0.06 -2.696,-0.084 -0.48,-0.143 -2.273,-0.395 -2.712,-0.474 1.175,-0.096 2.886,0.29 2.886,0.29 0,0 -1.153,-0.613 -2.44,-0.673 C -2.927,0.324 -3.17,0.324 -3.426,0.333 h -0.019 c -0.57,0.025 -1.222,0.094 -1.811,0.178 -0.09,0.012 -0.181,0.028 -0.271,0.04 -0.652,0.103 -1.188,0.222 -1.39,0.319 -0.449,0.218 -1.852,0.716 -2.213,0.754 h -0.057 c 0.016,0.003 0.032,0.003 0.057,0 0.289,-0.006 1.649,-0.072 2.811,-0.437 1.306,-0.411 2.706,-0.489 5.078,0.253 0.007,0.003 0.012,0.006 0.019,0.006 0.037,0.012 0.075,0.025 0.112,0.034 1.228,0.381 2.319,0.586 3.043,0.534 0.025,0 0.049,0 0.071,-0.004 C 2.609,1.951 2.936,1.695 2.839,1.187 2.721,0.558 1.886,0.249 1.147,0.106 1.057,0.087 0.969,0.071 0.882,0.062 0.402,-0.016 0.006,-0.025 -0.047,-0.016 -0.031,-0.013 -0.016,-0.006 0,0 m -5.116,-1.325 c -0.155,-0.019 -0.321,-0.031 -0.498,-0.031 -0.225,0 -0.468,0.019 -0.72,0.068 -0.122,0.022 -0.249,0.053 -0.377,0.084 -0.103,0.032 -0.2,0.06 -0.3,0.097 0,0 -0.508,0.524 0.337,0.748 0.851,0.225 2.943,-0.24 3.339,-0.224 -0.228,-0.171 -0.849,-0.617 -1.781,-0.742 m 1.749,2.553 c -0.05,-0.006 -0.096,-0.013 -0.15,-0.016 -0.829,-0.068 -1.948,0.013 -2.475,0.141 -0.769,0.19 -3.023,0.614 -3.347,0.517 0,0 0.071,0.044 0.224,0.093 0.028,0.007 0.056,0.016 0.087,0.026 0.349,0.087 0.992,0.156 1.939,-0.119 1.522,-0.443 3.85,-0.617 4.445,-0.461 C -2.793,1.318 -3.052,1.259 -3.367,1.228 M 3.541,2.706 C 2.883,3.22 1.518,2.952 -0.957,2.465 -1.2,2.419 -1.453,2.369 -1.715,2.319 -4.103,1.854 -6.961,2.55 -7.301,2.699 -7.584,2.843 -8.853,3.095 -9.71,2.796 c -0.477,-0.165 -0.695,-0.455 -0.792,-0.667 -0.162,-0.346 -0.146,-0.714 0.044,-1.045 0.283,-0.495 0.922,-0.838 1.633,-1.05 -0.228,-0.268 -0.374,-0.617 -0.374,-1.051 0,-0.252 0.09,-0.613 0.533,-0.925 0.405,-0.284 1.029,-0.455 1.671,-0.549 0.199,-0.465 0.542,-1.259 0.633,-1.484 l 0.158,-0.386 0.421,-0.037 c 0.144,-0.016 0.309,-0.022 0.487,-0.022 0.296,0 0.533,0.018 0.533,0.018 l 0.732,0.056 -0.056,0.399 0.358,0.004 -0.392,0.261 -0.009,0.069 c -0.016,0.087 -0.1,0.67 -0.281,1.25 0.05,0.015 0.099,0.034 0.159,0.053 l 0.012,0.003 c 0.836,0.274 2.192,0.711 2.934,1.381 1.527,-0.072 3.962,-0.015 4.654,1.007 0.34,0.496 1.231,1.805 0.193,2.625" /></g><g
           transform="translate(117.1299,61.3697)"
           id="g36"><path
             id="path38"
             style="fill:#000000;fill-opacity:1;fill-rule:nonzero;stroke:none"
             d="m 0,0 c -0.119,-0.63 -0.951,-0.938 -1.693,-1.085 -0.087,-0.016 -0.177,-0.028 -0.262,-0.044 -0.483,-0.075 -0.879,-0.084 -0.932,-0.075 0.016,0.004 0.032,0.01 0.05,0.016 0.016,0.003 0.031,0.009 0.044,0.016 0.872,0.29 2.422,0.716 2.2,1.256 C -0.826,0.642 -2.806,0.143 -3.289,0 c -0.48,-0.147 -2.273,-0.396 -2.715,-0.471 1.175,-0.1 2.887,0.284 2.887,0.284 0,0 -1.154,-0.614 -2.442,-0.67 -0.212,-0.01 -0.451,-0.007 -0.704,0.003 -0.009,0 -0.015,0.003 -0.025,0.003 -0.566,0.021 -1.219,0.09 -1.808,0.174 -0.09,0.013 -0.18,0.025 -0.271,0.041 -0.652,0.103 -1.185,0.221 -1.387,0.318 -0.452,0.218 -1.854,0.717 -2.217,0.757 0.29,-0.009 1.65,-0.075 2.813,-0.439 1.303,-0.415 2.705,-0.49 5.074,0.252 0.01,0.003 0.016,0.003 0.025,0.006 0.038,0.013 0.075,0.025 0.109,0.035 1.231,0.38 2.319,0.586 3.043,0.536 0.024,0 0.05,-0.003 0.071,-0.006 C -0.228,0.76 0.097,0.508 0,0 m -7.952,-2.513 c -0.159,-0.018 -0.324,-0.031 -0.502,-0.031 -0.225,0 -0.465,0.019 -0.72,0.069 -0.122,0.021 -0.25,0.053 -0.378,0.084 -0.099,0.028 -0.196,0.059 -0.299,0.097 0,0 -0.507,0.523 0.34,0.748 0.848,0.224 2.94,-0.241 3.339,-0.225 -0.227,-0.171 -0.851,-0.617 -1.78,-0.742 m -4.227,3.196 c 0,0 0.075,0.043 0.228,0.09 0.024,0.009 0.055,0.019 0.084,0.028 0.348,0.087 0.991,0.159 1.938,-0.118 C -8.407,0.24 -6.079,0.065 -5.483,0.218 -5.63,0.131 -5.892,0.071 -6.207,0.037 -6.257,0.034 -6.303,0.028 -6.356,0.025 c -0.83,-0.072 -1.949,0.012 -2.475,0.14 -0.771,0.19 -3.021,0.614 -3.348,0.518 M 0.701,1.518 C 0.043,2.032 -1.322,1.764 -3.797,1.278 -4.04,1.231 -4.293,1.181 -4.555,1.131 c -2.39,-0.464 -5.249,0.231 -5.583,0.381 -0.286,0.143 -1.554,0.396 -2.409,0.099 -0.48,-0.168 -0.695,-0.458 -0.795,-0.67 -0.159,-0.346 -0.143,-0.717 0.044,-1.044 0.283,-0.493 0.923,-0.838 1.636,-1.051 -0.228,-0.268 -0.377,-0.614 -0.377,-1.05 0,-0.253 0.091,-0.614 0.533,-0.926 0.402,-0.284 1.028,-0.455 1.671,-0.549 0.199,-0.464 0.542,-1.262 0.633,-1.483 l 0.162,-0.387 0.414,-0.04 c 0.147,-0.013 0.313,-0.019 0.49,-0.019 0.299,0 0.536,0.019 0.536,0.019 l 0.733,0.059 -0.003,0.009 c -0.031,0.016 -0.057,0.041 -0.063,0.081 -0.015,0.087 -0.028,0.178 -0.041,0.265 -0.068,-0.022 -0.149,0 -0.168,0.084 -0.021,-0.071 -0.099,-0.127 -0.183,-0.077 -0.203,0.118 -0.334,0.283 -0.428,0.486 -0.065,-0.072 -0.202,-0.06 -0.221,0.053 h -0.015 c -0.034,0.003 -0.07,0.019 -0.094,0.04 -0.003,0 -0.01,-0.003 -0.013,-0.003 -0.074,-0.012 -0.168,0.034 -0.162,0.125 0.01,0.134 0.044,0.202 0.125,0.308 0.022,0.034 0.05,0.054 0.084,0.059 0.037,0.044 0.084,0.079 0.165,0.107 0.078,0.028 0.159,-0.047 0.159,-0.125 0,-0.022 0,-0.041 -0.003,-0.062 0.003,-0.004 0.006,-0.004 0.009,-0.007 0.01,0.035 0.016,0.069 0.023,0.1 0.015,0.109 0.136,0.115 0.209,0.059 0.046,0.047 0.139,0.047 0.183,-0.003 0.029,0.007 0.06,0.003 0.087,-0.009 l 0.003,0.003 v 0.022 c 0,0.056 0.026,0.09 0.063,0.109 -0.032,0.115 -0.059,0.234 -0.1,0.355 0.05,0.016 0.103,0.034 0.159,0.053 l 0.013,0.003 c 0.835,0.271 2.191,0.711 2.936,1.381 1.524,-0.072 3.956,-0.015 4.654,1.01 0.334,0.493 1.231,1.805 0.19,2.622" /></g><g
           transform="translate(153.7451,48.2589)"
           id="g40"><path
             id="path42"
             style="fill:#000000;fill-opacity:1;fill-rule:nonzero;stroke:none"
             d="m 0,0 c -3.65,0 -6.478,-0.933 -8.214,-1.715 -0.044,-0.018 -0.091,-0.037 -0.138,-0.059 0.029,-0.119 0.047,-0.237 0.066,-0.356 0.018,-0.065 0.034,-0.137 0.044,-0.208 0.028,-0.062 0.059,-0.122 0.084,-0.187 0.041,-0.006 0.075,-0.032 0.087,-0.087 0.053,-0.197 0.096,-0.4 0.146,-0.599 0.051,-0.181 0.091,-0.365 0.135,-0.549 0.034,-0.162 -0.209,-0.227 -0.25,-0.068 -0.019,0.065 -0.034,0.131 -0.05,0.199 0.007,-0.125 0.016,-0.246 0.026,-0.374 0.005,-0.084 -0.069,-0.128 -0.144,-0.121 0,-0.031 0.003,-0.06 0.003,-0.088 0.003,-0.124 -0.181,-0.168 -0.236,-0.074 -0.004,-0.035 -0.004,-0.066 -0.007,-0.097 -0.009,-0.099 -0.1,-0.143 -0.175,-0.115 v -0.097 c 0,-0.088 -0.065,-0.128 -0.134,-0.122 -0.003,-0.152 -0.013,-0.314 -0.028,-0.473 0.015,-0.06 0.035,-0.113 0.054,-0.168 0.005,-0.016 0.005,-0.032 0.005,-0.044 1.316,0.832 4.362,2.39 8.747,2.39 8.554,0 18.121,-7.733 18.121,-18.083 0,-10.224 -8.045,-18.235 -18.314,-18.235 -9.679,0 -17.556,8.226 -17.556,18.342 0,5.096 2.226,8.905 4.096,11.203 1.571,1.935 3.161,3.157 3.816,3.622 -0.091,0.303 -0.147,0.586 -0.138,0.91 v 0.003 c -0.124,-0.168 -0.255,-0.34 -0.293,-0.38 0.047,-0.01 0.212,-0.143 0.237,-0.128 -0.261,-1.194 -0.256,-0.361 -0.249,0.121 v 0.004 c 0.003,0.153 0.006,0.268 0,0.278 -0.062,-0.01 -0.206,0.277 -0.227,0.348 -0.032,0.11 -0.119,0.34 -0.141,0.449 -0.159,0.356 -0.526,0.723 -0.512,1.122 -0.273,-0.171 -2.549,-1.689 -4.778,-4.422 -2.191,-2.688 -4.797,-7.139 -4.797,-13.112 0,-1.789 0.215,-3.569 0.639,-5.296 0.842,-3.376 2.5,-6.534 4.794,-9.136 2.298,-2.61 5.187,-4.605 8.351,-5.764 2.16,-0.782 4.417,-1.179 6.714,-1.179 1.415,0 2.824,0.135 4.196,0.397 5.786,1.137 10.874,4.613 13.962,9.538 l 0.022,0.031 c 0.034,0.063 0.072,0.122 0.109,0.181 l 0.037,0.059 c 1.974,3.295 3.021,7.117 3.021,11.054 C 21.131,-9.019 9.975,0 0,0" /></g><g
           transform="translate(142.0645,47.0899)"
           id="g44"><path
             id="path46"
             style="fill:#000000;fill-opacity:1;fill-rule:nonzero;stroke:none"
             d="M 0,0 C 0.074,-0.047 0.205,-0.169 0.324,-0.228 0.439,-0.287 0.542,-0.293 0.592,-0.144 0.664,0.059 0.963,0.526 1.187,0.863 1.24,0.947 1.29,1.022 1.331,1.084 1.396,1.181 1.439,1.24 1.439,1.24 1.439,1.24 1.428,1.187 1.415,1.081 1.409,1.019 1.402,0.941 1.399,0.848 1.374,0.137 1.505,-1.506 2.864,-3.838 2.385,-3.491 1.711,-2.413 1.711,-2.413 1.92,-2.896 2.15,-3.551 2.307,-3.741 c -0.424,0.094 -0.855,1.309 -0.908,1.634 0.137,-0.094 0.253,-0.157 0.253,-0.157 0,0 -0.673,1.852 -0.655,2.102 -0.23,-0.617 -0.23,-0.907 -0.405,-0.711 -0.04,0.044 -0.1,0.1 -0.159,0.159 -0.103,0.097 -0.218,0.209 -0.305,0.333 -0.088,0.122 -0.15,0.256 -0.15,0.39 C -0.016,0.009 -0.01,0.003 0,0 m -0.474,1.175 0.15,0.246 0.112,0.187 -2.183,5.626 -0.984,2.544 -0.004,0.01 -0.09,0.236 -0.012,0.032 c 0.072,0.109 0.137,0.155 0.18,0.177 0.057,0.025 0.088,0.013 0.088,0.013 L -1.827,6.68 0.112,1.705 0.215,1.683 0.489,1.627 0.592,1.608 0.518,1.57 0.312,1.468 -0.234,1.193 -0.443,1.091 -0.562,1.031 Z M 1.864,0.72 H 2.11 2.478 2.574 l 0.222,-0.733 0.645,-2.129 c 0,0 -0.589,1.805 -0.972,2.335 L 2.459,0.202 C 2.516,0.074 3.136,-1.637 3.267,-2.46 3.279,-2.522 3.285,-2.575 3.288,-2.628 3.026,-1.874 2.176,0.027 1.93,0.573 1.886,0.667 1.864,0.72 1.864,0.72 m -6.26,10.844 c -0.028,0.032 -0.059,0.06 -0.09,0.088 0.009,-0.031 0.019,-0.078 0.031,-0.131 0.022,-0.097 0.041,-0.218 0.047,-0.333 0.01,-0.097 0.007,-0.194 -0.013,-0.263 -0.012,-0.056 -0.034,-0.099 -0.065,-0.118 0,0.037 -0.009,0.075 -0.019,0.112 -0.024,0.072 -0.062,0.144 -0.105,0.209 -0.044,0.062 -0.094,0.122 -0.144,0.175 -0.062,0.059 -0.122,0.112 -0.175,0.153 -0.084,0.062 -0.146,0.099 -0.146,0.099 l 0.334,0.312 0.078,0.019 0.445,0.131 c 0,0 0.04,-0.019 0.103,-0.06 0.075,-0.056 0.18,-0.146 0.287,-0.287 0,-0.003 0.003,-0.003 0.006,-0.006 0,-0.006 0.007,-0.009 0.007,-0.012 0.049,-0.066 0.078,-0.144 0.086,-0.215 0.01,-0.084 -0.002,-0.175 -0.037,-0.253 -0.028,-0.078 -0.068,-0.143 -0.125,-0.196 -0.04,-0.034 -0.084,-0.066 -0.133,-0.088 -0.103,0 -0.116,0.378 -0.372,0.664 m -0.33,-2.347 c 0.116,-0.003 0.2,-0.006 0.252,-0.006 0.047,-0.003 0.076,-0.003 0.076,-0.003 V 9.148 9.027 8.915 8.709 c 0,0 -0.044,0 -0.123,0.003 -0.061,0.003 -0.146,0.003 -0.251,0.006 -0.169,0.007 -0.393,0.016 -0.667,0.022 -1.413,0.041 -4.137,0.125 -7.398,0.225 -8.828,0.271 -16.677,0.658 -17.799,0.698 -1.733,0.056 -2.306,0.025 -2.366,0.199 -0.021,0.06 -0.068,0.1 -0.125,0.131 -0.112,0.06 -0.252,0.072 -0.252,0.072 0.935,-0.016 2.777,-0.059 5.137,-0.118 4.701,-0.116 6.568,-0.287 12.35,-0.437 3.738,-0.096 7.064,-0.184 9.164,-0.24 0.755,-0.019 1.351,-0.034 1.749,-0.046 0.1,-0.004 0.181,-0.004 0.253,-0.007 m -6.459,7.301 -0.093,0.14 c 0.997,0.474 1.773,0.505 2.335,0.362 0.078,-0.022 0.155,-0.047 0.224,-0.072 0.063,-0.022 0.118,-0.047 0.174,-0.075 0.016,-0.009 0.028,-0.016 0.038,-0.022 0.059,-0.031 0.115,-0.059 0.162,-0.093 0.012,-0.009 0.025,-0.019 0.037,-0.025 0.06,-0.044 0.11,-0.081 0.157,-0.125 0.005,-0.006 0.018,-0.016 0.024,-0.022 0.028,-0.028 0.057,-0.056 0.081,-0.084 -0.04,0.013 -0.074,0.025 -0.112,0.038 -0.022,0.006 -0.043,0.015 -0.066,0.018 -0.052,0.016 -0.109,0.031 -0.159,0.047 -0.077,0.025 -0.155,0.047 -0.233,0.065 -0.075,0.019 -0.153,0.035 -0.231,0.05 -0.078,0.016 -0.159,0.031 -0.234,0.044 -1.415,0.218 -2.064,-0.303 -2.064,-0.303 l -0.021,0.032 z m -2.684,-1.908 c 0.755,0.355 2.015,0.988 2.254,1.325 0.003,0.003 0.007,0.006 0.007,0.009 0.058,-0.502 -1.154,-1.156 -2.828,-1.596 0,0 0.234,0.103 0.567,0.262 m 4.358,5.355 C -9.57,19.947 -9.645,19.925 -9.723,19.894 -9.744,19.887 -9.767,19.878 -9.785,19.872 -9.841,19.85 -9.9,19.828 -9.96,19.806 c -0.221,-0.087 -0.474,-0.19 -0.738,-0.305 -0.717,-0.315 -1.534,-0.698 -2.068,-0.954 -0.301,-0.143 -0.513,-0.246 -0.56,-0.271 l -0.013,-0.006 -0.115,0.155 c 0,0 1.571,1.272 3.37,1.506 0.1,0.009 0.199,0.019 0.296,0.025 0.097,0.006 0.186,0.009 0.277,0.009 m 4.427,-4.993 c -0.028,0.345 0.196,0.604 0.196,0.604 l -0.031,0.05 -0.106,0.178 c 0,0 0.044,0.065 0.112,0.165 0.044,0.072 0.1,0.159 0.159,0.256 0.137,0.231 0.275,0.508 0.287,0.682 0.212,-0.349 -0.137,-1.091 -0.193,-1.103 0.081,-0.022 0.112,-0.113 0.099,-0.243 -0.006,-0.06 -0.025,-0.128 -0.049,-0.2 -0.069,-0.193 -0.203,-0.414 -0.406,-0.62 l -0.009,-0.01 v 0.004 c -0.035,0.081 -0.053,0.162 -0.059,0.237 m -3.189,3.797 c 0.243,0.043 0.711,0.099 1.514,0.099 0.783,0 1.061,-0.583 1.155,-0.916 l 0.04,-0.178 c 0,-0.006 0,-0.013 0.002,-0.019 0,-0.009 0,-0.022 0.003,-0.025 l 0.05,-0.439 c 0.01,-0.281 -0.014,-0.552 -0.09,-0.689 -0.133,0.09 -0.305,0.206 -0.486,0.327 l 0.047,0.031 -0.954,0.546 -0.084,0.047 c -0.003,0 -0.003,0 -0.003,0.003 -0.044,0.025 -0.088,0.043 -0.131,0.065 -0.004,0.004 -0.013,0.006 -0.019,0.013 -0.558,0.274 -1.125,0.408 -1.662,0.451 0.33,0.259 0.512,0.487 0.618,0.684 m -4.745,-0.605 c 0.599,0.274 2.475,1.125 3.211,1.437 0.028,0.012 0.053,0.024 0.078,0.034 0.056,0.022 0.103,0.04 0.14,0.053 0.041,0.016 0.072,0.025 0.078,0.025 0.037,0 0.084,-0.019 0.115,-0.044 0.032,-0.031 0.05,-0.075 0.038,-0.118 -0.009,-0.031 -0.035,-0.066 -0.078,-0.1 -0.031,-0.022 -0.066,-0.037 -0.112,-0.059 -0.015,-0.006 -0.035,-0.016 -0.056,-0.022 -0.013,-0.006 -0.029,-0.013 -0.044,-0.019 -0.464,-0.187 -2.562,-1.222 -3.186,-1.53 l -0.178,-0.091 -0.189,0.35 c 0,0 0.068,0.034 0.183,0.084 m 3.008,0.458 c 0.222,0.106 0.412,0.287 0.546,0.445 0.063,0.076 0.112,0.144 0.147,0.197 0.037,0.05 0.058,0.084 0.058,0.084 0.081,-0.078 0.113,-0.159 0.11,-0.23 -0.003,-0.032 -0.009,-0.063 -0.025,-0.091 -0.031,-0.062 -0.088,-0.122 -0.162,-0.172 -0.062,-0.043 -0.135,-0.081 -0.216,-0.112 -0.134,-0.056 -0.293,-0.099 -0.458,-0.121 m 5.994,-0.197 c 0.016,-0.074 0.032,-0.149 0.041,-0.227 0.013,-0.072 0.019,-0.14 0.025,-0.212 v 0.003 c -0.028,0.053 -0.066,0.125 -0.112,0.202 -0.006,0.013 -0.012,0.026 -0.019,0.035 -0.027,0.059 -0.065,0.125 -0.108,0.19 -0.041,0.075 -0.088,0.15 -0.141,0.225 -0.418,0.638 -1.148,1.421 -2.313,1.421 -0.826,0 -1.346,-0.025 -1.652,-0.05 C -8.392,20.006 -8.473,19.997 -8.529,19.99 -8.604,19.981 -8.647,19.975 -8.672,19.972 -8.691,19.965 -8.7,19.965 -8.7,19.965 l -0.113,0.194 c 0,0 0.076,0.028 0.203,0.065 0.065,0.019 0.137,0.044 0.224,0.068 0.452,0.125 1.192,0.288 1.83,0.212 0.879,-0.099 2.07,-0.507 2.479,-1.851 0.021,-0.072 0.043,-0.147 0.061,-0.228 m -0.202,-6.156 c -0.094,-0.044 -0.168,-0.062 -0.23,-0.069 -0.169,-0.015 -0.231,0.069 -0.231,0.069 l -1.184,2.721 -0.007,0.013 -0.059,0.14 0.19,0.134 0.096,0.072 0.041,-0.088 0.035,-0.071 0.005,-0.013 0.163,-0.349 0.109,-0.24 1.047,-2.263 z m -11.007,2.905 0.006,0.003 c 0.119,0.059 2.482,1.25 3.46,1.284 -0.04,-0.027 -0.093,-0.056 -0.152,-0.09 -0.277,-0.156 -0.754,-0.383 -1.266,-0.623 -0.554,-0.262 -1.15,-0.54 -1.537,-0.745 -0.074,-0.038 -0.146,-0.078 -0.202,-0.112 -0.053,-0.029 -0.097,-0.057 -0.134,-0.081 -0.018,0.177 -0.153,0.336 -0.172,0.358 0,0.003 -0.003,0.006 -0.003,0.006 m 27.656,-35.552 c 0.066,0.206 0.103,0.425 0.056,0.577 -0.071,0.212 -0.452,0.58 -0.985,0.652 -0.074,0.009 -0.149,0.015 -0.231,0.012 -0.136,-0.003 0.309,0.212 0.602,0.234 0.384,0.015 0.823,-0.215 0.92,-0.811 0.097,-0.598 -0.287,-0.944 -0.48,-0.981 0.041,0.096 0.083,0.206 0.118,0.317 m -1.144,0.646 c 0.003,0.006 0.006,0.012 0.013,0.018 0.043,0.06 0.099,0.122 0.165,0.169 0.112,0.084 0.243,0.128 0.371,0.074 0.034,-0.015 0.062,-0.034 0.094,-0.065 0.034,-0.027 0.068,-0.068 0.096,-0.121 0.087,-0.138 0.1,-0.259 0.078,-0.362 -0.025,-0.112 -0.09,-0.203 -0.15,-0.268 -0.065,-0.063 -0.121,-0.1 -0.121,-0.1 0,0 0.034,0.032 0.047,0.116 0.006,0.046 0.006,0.109 -0.013,0.199 -0.01,0.034 -0.018,0.078 -0.034,0.128 -0.013,0.034 -0.028,0.062 -0.047,0.087 -0.162,0.218 -0.539,0.056 -0.539,0.056 0.009,0.022 0.024,0.044 0.04,0.069 M 3.191,-5.468 v 0.243 c 0,0 3.81,-8.812 4.349,-9.678 -0.33,0.421 -0.941,1.617 -1.605,3.013 -1.278,2.681 -2.744,6.088 -2.744,6.088 z m -6.667,16.1 -0.106,-0.174 H -3.98 -4.1 l 0.094,0.059 0.455,0.271 0.199,0.119 0.057,0.034 -0.037,-0.072 z M 1.991,-4.477 c 0.415,0.134 0.988,0.29 0.988,0.29 V -4.196 -4.474 L 2.74,-4.536 2.098,-4.707 1.967,-4.741 1.826,-4.67 1.671,-4.589 c 0.027,0.013 0.065,0.026 0.1,0.037 0.065,0.026 0.139,0.05 0.22,0.075 m 11.416,-14.246 c -0.25,0.325 -0.702,0.721 -1.443,0.777 -0.275,0.022 -0.505,-0.013 -0.695,-0.063 -0.895,0.867 -2.401,2.666 -2.893,3.538 -0.34,0.609 -1.88,4.14 -4.134,9.477 0.11,0.087 0.222,0.196 0.303,0.33 0.392,0.203 0.558,0.471 0.626,0.674 0.1,0.29 0.054,0.614 -0.134,0.882 -0.118,0.218 -0.72,1.754 -1.013,2.5 C 3.335,1.144 3.322,1.159 3.223,1.281 3.142,1.377 3.055,1.446 2.982,1.502 2.945,2.004 2.64,2.182 2.446,2.247 2.057,2.378 1.733,2.381 1.48,2.257 1.25,2.799 0.816,3.871 0.358,4.993 c -2.306,5.661 -2.68,6.518 -2.858,6.727 -0.146,0.169 -0.312,0.281 -0.452,0.356 -0.071,0.321 -0.237,0.817 -0.623,0.982 -0.029,0.009 -0.054,0.018 -0.075,0.027 -0.125,0.25 -0.356,0.746 -0.524,1.126 0.349,0.271 0.779,0.683 0.888,1.029 0.072,0.227 0.041,0.464 -0.084,0.657 -0.022,0.025 -0.047,0.062 -0.074,0.103 0.293,0.562 0.638,1.4 0.532,2.089 l -0.006,0.021 c -0.028,0.792 -0.38,2.151 -1.938,3.034 -1.818,1.028 -4.265,0.106 -4.827,-0.131 -1.944,0.115 -4.55,-1.759 -4.678,-1.855 l -0.411,-0.299 0.162,-0.484 c 0.186,-0.545 0.476,-1.081 0.685,-1.437 -0.436,-0.189 -0.886,-0.405 -1.312,-0.623 l -0.019,-0.009 c -0.075,-0.035 -0.134,-0.066 -0.168,-0.081 -0.543,-0.259 -0.761,-0.808 -0.745,-1.238 l 0.009,-0.121 0.047,-0.116 c 0.57,-1.35 0.708,-1.527 0.998,-1.643 0.099,-0.04 0.189,-0.056 0.286,-0.056 0.2,0 0.365,0.066 0.773,0.234 0.278,0.115 0.699,0.287 1.375,0.549 1.412,0.548 1.957,1.178 2.145,1.677 0.227,0.099 0.589,0.221 0.969,0.221 0.409,0 0.629,-0.081 0.708,-0.118 l 0.005,-0.007 c 0.01,-0.003 0.02,-0.009 0.029,-0.012 l 0.449,-0.384 0.103,0.091 c 0.52,-0.283 0.972,-0.564 1.134,-0.708 l 1.157,-2.587 c -0.325,-0.455 -0.406,-0.985 -0.2,-1.468 0.06,-0.146 0.141,-0.274 0.231,-0.384 -4.361,0.228 -13.694,0.711 -15.863,0.789 -2.88,0.097 -11.737,0.206 -11.877,0.209 h -0.022 c -0.601,0 -1.097,-0.172 -1.412,-0.48 -0.233,-0.231 -0.361,-0.539 -0.361,-0.867 0,-0.823 0.679,-1.34 1.134,-1.431 0.097,-0.018 0.325,-0.065 1.845,0.147 0.405,0.047 4.414,-0.178 6.812,-0.315 h 0.021 c 1.815,-0.103 3.383,-0.193 3.757,-0.193 0.798,0 13.544,-0.579 17.721,-0.72 0.692,-1.711 1.571,-3.884 2.229,-5.512 l 0.171,0.194 0.172,0.19 0.171,0.196 0.172,0.191 0.068,0.081 L -1.022,2.176 -1.104,2.122 -1.304,1.991 -1.5,1.863 -1.696,1.732 -1.893,1.605 c 0.471,-1.168 0.814,-2.017 0.861,-2.135 0.056,-0.141 0.081,-0.306 0.112,-0.496 0.047,-0.274 0.094,-0.586 0.24,-0.926 0.197,-0.461 3.825,-8.385 4.732,-10.215 0.028,-0.056 2.366,-4.747 5.012,-7.139 -4.202,-1.006 -15.719,-3.784 -18.157,-4.373 l -0.355,-0.087 -0.15,-0.243 c -0.156,-0.246 -0.393,-0.732 -0.274,-1.169 0.065,-0.23 0.212,-0.421 0.421,-0.533 0.065,-0.037 0.162,-0.075 0.314,-0.075 0.353,0 1.328,0.175 10.259,2.394 4.002,0.995 7.986,2.004 9.323,2.341 0.262,-0.308 0.683,-0.508 1.26,-0.598 1.075,-0.168 1.904,0.473 2.116,1.639 0.066,0.356 -0.105,0.886 -0.414,1.287" /></g><g
           transform="translate(120.8193,33.2413)"
           id="g48"><path
             id="path50"
             style="fill:#000000;fill-opacity:1;fill-rule:nonzero;stroke:none"
             d="m 0,0 c -0.321,-0.178 4.788,17.759 4.788,17.759 l 0.34,1.016 C 5.128,18.775 0.727,0.399 0,0 M 4.099,22.843 -3.023,-6.165 c 0,0 -0.288,-0.954 0.502,-1.466 1.426,-0.919 2,0.2 2,0.2 l 7.332,29.626 c -0.406,0.614 -2.712,0.648 -2.712,0.648" /></g><g
           transform="translate(70.0337,55.5826)"
           id="g52"><path
             id="path54"
             style="fill:#000000;fill-opacity:1;fill-rule:nonzero;stroke:none"
             d="m 0,0 -0.149,0.502 c 0,0 20.433,-19.657 20.433,-20.483 C 20.284,-20.346 0,0 0,0 M 31.169,-28.734 -0.234,1.409 C -0.969,1.353 -2.107,-0.655 -2.107,-0.655 L 28.12,-29.71 c 0,0 1.219,-1.032 2.161,-1.032 1.904,0 0.888,2.008 0.888,2.008" /></g><g
           transform="translate(103.8301,43.0411)"
           id="g56"><path
             id="path58"
             style="fill:#000000;fill-opacity:1;fill-rule:nonzero;stroke:none"
             d="m 0,0 0.717,-0.86 c 1.228,4.42 2.481,8.821 2.481,8.821 l 0.34,1.017 c 0,0 -1.257,-5.238 -2.534,-10.181 L 1.605,-1.927 5.162,12.721 C 4.757,13.335 2.896,14.414 2.896,14.414 L -0.59,0.309 C -0.365,0.277 -0.149,0.181 0,0" /></g><g
           transform="translate(104.3779,39.004)"
           id="g60"><path
             id="path62"
             style="fill:#000000;fill-opacity:1;fill-rule:nonzero;stroke:none"
             d="m 0,0 -0.219,0.265 c -0.872,-3.248 -1.651,-5.882 -1.92,-6.029 -0.131,-0.071 0.646,2.884 1.609,6.4 l -1.178,1.412 -3.451,-13.974 c 0,0 -0.649,-1.272 0.143,-1.78 1.428,-0.923 2.357,0.515 2.357,0.515 L 0.477,-0.283 C 0.293,-0.24 0.125,-0.149 0,0" /></g><g
           transform="translate(84.749,38.8673)"
           id="g64"><path
             id="path66"
             style="fill:#000000;fill-opacity:1;fill-rule:nonzero;stroke:none"
             d="m 0,0 c -0.829,-3.062 -1.552,-5.486 -1.811,-5.627 -0.125,-0.068 0.595,2.69 1.512,6.054 -0.116,0.169 -0.234,0.34 -0.355,0.509 -0.213,0.295 -0.465,0.675 -0.774,0.953 l -3.406,-13.678 c 0,0 0.676,0.52 1.467,0.009 1.428,-0.919 1.035,-1.275 1.035,-1.275 L 1.01,0.1 C 0.761,0.405 0.225,-0.321 0,0" /></g><g
           transform="translate(141.5957,46.9102)"
           id="g68"><path
             id="path70"
             style="fill:#000000;fill-opacity:1;fill-rule:nonzero;stroke:none"
             d="M 0,0 -0.253,0.293 -0.59,0.105 c -0.027,-0.015 -2.715,-1.501 -5.358,-4.65 -0.336,-0.399 -0.655,-0.808 -0.96,-1.222 -2.176,-2.771 -3.909,-5.876 -4.277,-11.396 -0.065,-0.745 -0.099,-1.5 -0.099,-2.261 0,-3.768 0.728,-6.405 1.34,-7.952 0.682,-1.729 1.383,-2.546 1.39,-2.556 l 0.078,-0.071 0.035,-0.022 c 0.031,-0.019 0.293,-0.171 0.623,-0.171 0.221,0 0.43,0.068 0.604,0.196 l 0.06,0.047 c 0.554,0.405 0.502,0.782 0.165,1.533 l -0.029,0.057 c -1.701,3.768 -2.056,7.022 -2.056,9.086 0,4.984 2.469,12.531 9.432,17.407 l 0.2,0.146 v 0.24 C 0.558,-0.658 0.021,-0.028 0,0" /></g><g
           transform="translate(127.6289,35.7657)"
           id="g72"><path
             id="path74"
             style="fill:#000000;fill-opacity:1;fill-rule:nonzero;stroke:none"
             d="m 0,0 c -0.596,-0.58 -6.112,-7.207 -6.63,-7.709 0.081,0.128 0.234,0.314 0.437,0.545 1.801,2.073 5.476,6.961 7.297,8.728 0.339,0.325 0.533,0.515 0.533,0.515 l 9.504,9.352 C 11.141,11.431 0.596,0.579 0,0 M 12.756,15.529 -7.743,-6.793 -9.276,-6.652 -8.339,-8.75 c 0.128,-0.128 -2.846,0.271 -2.459,-0.165 2.537,-2.868 4.202,-1.026 4.202,-1.026 l 20.785,22.017 0.207,0.199 -0.515,-0.096 z" /></g><g
           transform="translate(62.1372,46.0636)"
           id="g76"><path
             id="path78"
             style="fill:#000000;fill-opacity:1;fill-rule:nonzero;stroke:none"
             d="m 0,0 c -0.368,-0.502 -0.717,-1.016 -1.138,-1.468 -0.155,-0.284 -0.33,-0.549 -0.561,-0.77 5.056,-3.295 8.417,-9.093 8.417,-15.68 0,-0.361 -0.013,-0.723 -0.029,-1.081 0.905,-0.025 1.809,-0.106 2.7,-0.274 0.059,-0.013 0.093,-0.076 0.09,-0.134 0.003,0 0.007,-0.004 0.01,-0.004 0.056,0.062 0.159,0.062 0.205,-0.012 0.016,-0.025 0.025,-0.05 0.032,-0.075 0.012,-0.016 0.024,-0.034 0.028,-0.053 h 0.003 c 0.015,-0.003 0.028,-0.01 0.037,-0.015 0.041,0.542 0.062,1.09 0.062,1.648 C 9.856,-10.393 5.919,-3.769 0,0" /></g><g
           transform="translate(71.6807,25.9786)"
           id="g80"><path
             id="path82"
             style="fill:#000000;fill-opacity:1;fill-rule:nonzero;stroke:none"
             d="m 0,0 c -0.056,-0.065 -0.171,-0.047 -0.209,0.027 -0.767,-0.196 -1.559,-0.084 -2.313,0.151 -0.016,0 -0.034,0 -0.053,-0.004 C -2.594,0.131 -2.631,0.093 -2.69,0.093 h -0.247 c -1.009,-9.264 -8.687,-16.496 -17.98,-16.496 -9.055,0 -16.577,6.867 -17.883,15.798 -0.044,0.041 -0.05,0.106 -0.025,0.156 -0.115,0.857 -0.181,1.726 -0.181,2.615 0,10.24 8.117,18.569 18.089,18.569 3.189,0 6.182,-0.85 8.785,-2.34 0.346,0.489 0.745,0.922 1.191,1.302 0.218,0.284 0.458,0.549 0.729,0.795 -3.145,1.846 -6.802,2.903 -10.705,2.903 -11.705,0 -21.228,-9.524 -21.228,-21.229 0,-11.705 9.523,-21.228 21.228,-21.228 10.998,0 20.069,8.404 21.125,19.127 C 0.193,0.053 0.184,0.04 0.165,0.027 0.118,0 0.059,-0.003 0,0" /></g><g
           transform="translate(73.3521,36.0001)"
           id="g84"><path
             id="path86"
             style="fill:#000000;fill-opacity:1;fill-rule:nonzero;stroke:none"
             d="m 0,0 c -0.464,1.617 -1.097,3.176 -1.883,4.626 -0.801,1.496 -1.767,2.883 -2.867,4.136 -2.077,2.357 -4.611,4.202 -7.525,5.483 -3.14,1.381 -6.678,2.079 -10.512,2.079 -3.74,0 -7.232,-0.754 -10.377,-2.238 -2.516,-1.19 -4.813,-2.849 -6.83,-4.928 -3.423,-3.529 -4.881,-7.141 -4.894,-7.182 l -0.09,-0.231 0.137,-0.202 c 0.143,-0.215 0.359,-0.3 0.573,-0.377 0.166,-0.062 0.334,-0.128 0.499,-0.256 0.281,-0.215 0.54,-0.222 0.711,-0.19 0.477,0.096 0.745,0.564 1.054,1.106 0.043,0.072 0.106,0.185 0.184,0.321 0.439,0.786 1.683,3.015 2.503,3.925 1.527,-1.334 8.628,-7.942 15.093,-13.993 l 0.406,-0.387 0.832,1.122 -15.29,14.383 c 0.546,0.605 1.833,1.927 3.784,3.248 2.419,1.64 6.362,3.595 11.406,3.595 10.676,0 22.169,-7.466 22.169,-23.853 v -0.44 l 1.618,-0.137 0.056,0.452 C 1.181,-6.621 0.919,-3.183 0,0" /></g><g
           transform="translate(49.7964,26.2188)"
           id="g88"><path
             id="path90"
             style="fill:#000000;fill-opacity:1;fill-rule:nonzero;stroke:none"
             d="M 0,0 C -0.146,0.094 -0.293,0.212 -0.439,0.365 0.383,0.193 0.857,-0.097 1.203,0.125 L 1.222,0.134 C 1.225,0.138 1.225,0.141 1.228,0.141 1.384,0.256 1.446,0.442 1.465,0.604 V 0.62 c 0,0.004 0,0.01 0.003,0.016 C 1.48,0.805 1.453,0.944 1.453,0.944 L 2.116,1.057 2.157,0.811 2.16,0.795 V 0.779 L 2.216,0.465 H 2.001 L 2.066,0.265 2.07,0.253 2.11,0.134 c 0,0 -0.199,-0.153 -0.508,-0.271 C 1.537,-0.162 1.471,-0.187 1.396,-0.202 1.05,-0.299 0.604,-0.321 0.149,-0.084 0.1,-0.06 0.05,-0.031 0,0 m 3.604,1.927 c 0.005,0 0.009,0 0.015,-0.003 0.14,-0.016 0.29,-0.031 0.445,-0.047 0.007,0 0.013,-0.003 0.016,-0.003 3.934,-0.449 12.292,-1.394 17.014,-1.668 4.476,-0.259 5.717,-0.399 6.06,-0.455 0.056,-0.01 0.087,-0.019 0.106,-0.022 0.025,-0.009 0.025,-0.012 0.025,-0.012 0,0 -1.659,-0.247 -3.361,0 C 22.219,-0.037 11.106,0.643 8.566,0.87 7.235,0.991 5.439,1.2 4.03,1.368 4.024,1.372 4.021,1.372 4.015,1.372 3.862,1.391 3.712,1.409 3.572,1.428 H 3.557 L 3.544,1.431 C 3.388,1.449 3.239,1.469 3.098,1.487 c -0.006,0 -0.012,0 -0.015,0.003 -0.783,0.094 -1.3,0.159 -1.3,0.159 0,0 -0.2,-0.389 -0.895,-0.389 -0.692,0 -0.33,0.926 -0.33,0.926 0,0 -0.013,-0.549 0.411,-0.652 C 0.857,1.896 0.845,2.272 1.119,2.345 1.393,2.416 1.767,2.329 1.926,2.113 1.939,2.113 1.964,2.11 1.989,2.107 H 2.004 C 2.167,2.092 2.556,2.045 3.126,1.982 3.129,1.982 3.136,1.979 3.142,1.979 3.282,1.964 3.432,1.948 3.588,1.93 3.594,1.927 3.6,1.927 3.604,1.927 M 3.086,2.746 C 3.148,2.587 3.195,2.426 3.229,2.275 V 2.264 C 3.232,2.26 3.232,2.254 3.235,2.251 3.242,2.201 3.251,2.154 3.254,2.113 3.214,2.113 3.173,2.116 3.133,2.12 H 3.117 C 2.519,2.145 2.216,2.17 2.216,2.17 L 2.132,2.476 2.288,2.584 2.3,2.594 2.313,2.6 2.687,2.861 2.696,2.868 2.793,2.934 2.668,2.921 H 2.656 L 2.157,2.865 H 2.142 L 2.129,2.861 2.001,2.85 1.783,3.052 c 0,0 0.05,0.031 0.118,0.081 0.007,0.003 0.01,0.006 0.016,0.01 0.003,0.003 0.006,0.003 0.009,0.005 0.103,0.069 0.246,0.165 0.377,0.253 0.007,0.003 0.01,0.006 0.013,0.009 0.05,0.031 0.09,0.057 0.131,0.084 0.006,0.004 0.009,0.007 0.012,0.01 0.057,0.034 0.1,0.065 0.131,0.078 C 2.721,3.51 2.93,3.151 3.08,2.759 3.083,2.756 3.086,2.749 3.086,2.746 M 29.108,0.555 C 29.018,0.562 19.884,1.21 17.515,1.284 15.676,1.344 7.444,2.267 3.993,2.656 3.666,4.021 2.435,5.037 0.969,5.037 c -1.714,0 -3.111,-1.396 -3.111,-3.11 0,-1.718 1.397,-3.112 3.111,-3.112 1.151,0 2.151,0.624 2.694,1.553 4.916,-0.486 22.213,-2.185 24.906,-2.185 0.084,0 0.156,0.003 0.222,0.006 l 0.352,0.019 -0.035,2.304 z" /></g><g
           transform="translate(68.7886,56.0694)"
           id="g92"><path
             id="path94"
             style="fill:#000000;fill-opacity:1;fill-rule:nonzero;stroke:none"
             d="m 0,0 h -0.146 c 0.034,-0.041 0.14,-0.165 0.339,-0.496 z" /></g><g
           transform="translate(78.4873,31.5733)"
           id="g96"><path
             id="path98"
             style="fill:#000000;fill-opacity:1;fill-rule:nonzero;stroke:none"
             d="m 0,0 c 0.835,-2.375 1.34,-3.996 1.34,-3.996 0,0 -0.215,0.468 -0.991,1.826 l 0.87,-2.182 0.421,0.097 z" /></g><g
           transform="translate(68.6274,56.0851)"
           id="g100"><path
             id="path102"
             style="fill:#000000;fill-opacity:1;fill-rule:nonzero;stroke:none"
             d="M 0,0 0.006,-0.016 H 0.015 Z" /></g><g
           transform="translate(73.4766,41.5763)"
           id="g104"><path
             id="path106"
             style="fill:#000000;fill-opacity:1;fill-rule:nonzero;stroke:none"
             d="m 0,0 c -0.863,2.438 -1.499,4.246 -1.499,4.246 0,0 0.043,-0.103 0.124,-0.287 C -0.991,3.07 0.215,0.266 1.4,-2.59 2.073,-4.218 2.737,-5.854 3.232,-7.166 3.703,-8.403 4.13,-9.572 4.492,-10.604 l 1.643,-4.255 -0.424,-0.097 -0.87,2.179 c -0.034,0.062 -0.069,0.122 -0.106,0.187 -0.324,0.564 -1.29,3.086 -2.362,6.016 C 1.571,-4.396 0.708,-1.988 0,0 m -2.334,7.089 c -0.032,-0.125 -0.153,-0.05 -0.269,0.053 -0.115,0.102 -0.224,0.24 -0.224,0.24 l -2.534,6.512 -0.007,0.012 0.013,-0.012 h 0.147 l 0.192,-0.499 c 0.213,-0.352 0.531,-0.948 0.989,-1.915 0.243,-0.52 0.527,-1.146 0.854,-1.904 0.72,-1.661 0.885,-2.297 0.839,-2.487 m -1.924,8.189 -1.577,-0.552 -1.044,-1.201 11.882,-29.828 1.684,2.479 z" /></g><g
           transform="translate(85.0078,29.878)"
           id="g108"><path
             id="path110"
             style="fill:#000000;fill-opacity:1;fill-rule:nonzero;stroke:none"
             d="m 0,0 c 0,0 -1.075,1.062 -1.091,1.075 l 0.006,0.031 0.019,0.125 C 0.648,0.137 1.892,-1.462 2.142,-3.778 1.892,-2.176 0,0 0,0 m -1.593,-9.829 c 0.305,0.964 -0.299,2.292 -0.299,2.292 0,0 0.299,0.361 0.692,0.795 1.256,-0.216 2.282,0.389 2.509,0.461 -1.1,-3.039 -2.496,-3.548 -2.902,-3.548 m -0.891,2.956 c -0.281,0.262 -0.602,0.464 -0.933,0.613 0.259,0.206 0.478,0.465 0.627,0.755 0.006,-0.01 0.013,-0.018 0.022,-0.031 0.215,-0.334 0.496,-0.593 0.82,-0.767 -0.19,-0.2 -0.384,-0.405 -0.536,-0.57 m -2.36,1.271 c -0.642,0 -1.163,0.521 -1.163,1.163 0,0.639 0.521,1.16 1.163,1.16 0.639,0 1.159,-0.521 1.159,-1.16 0,-0.642 -0.52,-1.163 -1.159,-1.163 m -2.266,1.64 -0.381,-0.193 c -0.352,-0.178 -1.212,-0.474 -1.63,-0.281 -0.09,0.043 -0.199,0.124 -0.265,0.399 -0.265,1.163 -0.202,1.998 0.19,2.557 0.374,0.536 1.101,0.876 2.154,1.006 l 0.739,0.09 -0.371,1.297 0.633,-0.034 C -5.683,0.857 -5.368,0.835 -5.081,0.804 -5.119,0.607 -5.146,0.434 -5.174,0.29 l -1.247,0.558 0.068,-0.113 -0.046,0.019 0.395,-0.61 0.356,-0.593 c 0.068,-0.118 0.361,-0.576 0.792,-0.832 l 0.482,-0.234 0.574,-0.462 0.203,0.403 c 0.143,0.252 1.15,0.97 1.808,1.325 l -1.204,-2.688 c -0.012,-0.025 -0.021,-0.052 -0.03,-0.078 -0.421,0.543 -1.082,0.892 -1.821,0.892 -1.113,0 -2.045,-0.792 -2.266,-1.839 m -0.858,-2.559 c 0.007,0.109 0.016,0.209 0.019,0.29 0.324,0.18 0.723,0.446 1.019,0.789 0.078,-0.16 0.169,-0.306 0.275,-0.44 -0.477,-0.085 -0.967,-0.268 -1.313,-0.639 m 1.191,-4.978 c -0.573,0.158 -1.116,0.393 -1.621,0.688 l 0.006,0.06 c 0.178,-0.119 0.431,-0.256 0.789,-0.421 0.243,-0.112 0.533,-0.23 0.826,-0.327 m -2.836,4.386 c -0.144,0.299 -0.278,0.657 -0.384,1.072 0.141,-0.104 0.293,-0.2 0.449,-0.287 -0.022,-0.296 -0.044,-0.555 -0.065,-0.785 m -1.437,5.498 c -0.253,-0.571 -0.387,-1.128 -0.406,-1.656 -0.006,-0.239 0.01,-0.476 0.057,-0.704 l -0.182,-0.068 -0.034,-0.013 -0.018,-0.418 c -0.007,-0.099 -0.072,-1.58 0.473,-3.123 0.14,-0.399 0.322,-0.804 0.558,-1.187 -0.813,1.146 -1.29,2.55 -1.29,4.061 0,2.382 1.178,4.486 2.986,5.761 l 0.178,-0.01 0.24,-0.011 C -8.712,0.941 -8.949,0.832 -9.192,0.683 -9.642,0.411 -10.1,0 -10.508,-0.62 c -0.215,-0.337 -0.399,-0.667 -0.542,-0.995 m 6.206,3.943 h 0.006 C -4.841,2.316 -4.844,2.301 -4.844,2.288 -5.549,2.26 -6.11,2.142 -6.141,2.135 L -7.332,1.88 c 0.773,0.286 1.612,0.448 2.488,0.448 m 0.474,-2.752 v 0.019 l 0.009,0.059 0.122,1.038 0.018,0.171 0.034,0.287 0.02,0.175 0.04,0.321 0.019,0.174 0.022,0.184 0.012,0.103 0.009,0.069 0.009,0.099 v 0.006 l 0.025,0.182 0.019,0.171 0.022,0.172 0.031,0.286 0.019,0.172 0.112,0.935 h 0.324 L -3.625,3.223 -3.647,3.052 -3.685,2.768 -3.703,2.594 -3.725,2.422 -3.747,2.244 -3.762,2.139 -3.769,2.073 -3.784,1.964 -3.806,1.783 -3.828,1.614 -3.847,1.443 -3.85,1.44 -3.869,1.266 -3.894,1.098 -3.931,0.811 -3.953,0.636 -4.037,-0.047 -4.074,-0.337 -4.09,-0.452 h -0.284 z m 0.835,5.866 c 0.01,0 0.013,-0.003 0.022,-0.003 0.025,-0.002 0.056,-0.005 0.084,-0.009 0.006,-0.003 0.01,-0.003 0.016,-0.003 0.134,-0.019 0.309,-0.043 0.424,-0.074 0.215,-0.06 0.791,-0.128 0.791,-0.128 0,0 0,-0.003 -0.031,-0.253 C -2.235,4.935 -2.238,4.894 -2.244,4.851 -2.254,4.794 -2.26,4.731 -2.27,4.66 -2.356,5.149 -2.846,5.062 -2.846,5.062 L -3.005,4.66 c -0.009,0.199 -0.094,0.353 -0.196,0.474 -0.004,0.007 -0.007,0.01 -0.01,0.015 -0.071,0.079 -0.143,0.138 -0.212,0.188 -0.003,0.003 -0.009,0.006 -0.012,0.009 -0.041,0.028 -0.078,0.05 -0.112,0.065 -0.003,0.003 -0.01,0.007 -0.013,0.01 -0.037,0.021 -0.065,0.031 -0.065,0.031 0,0 0.037,-0.003 0.09,-0.01 m 2.952,-5.327 0.729,-2.178 c 0.122,-0.372 0.403,-1.21 0.605,-2.345 -0.287,-0.299 -0.813,-0.552 -1.306,-0.613 -0.368,-0.047 -0.67,0.015 -0.826,0.165 -0.549,0.529 -0.405,1.551 -0.405,1.558 l 0.52,3.261 z M -1.116,1.259 -1.163,1.159 -1.172,1.138 C -1.263,1.209 -1.39,1.29 -1.54,1.381 c -0.377,0.23 -0.904,0.499 -1.462,0.68 0.003,0.008 0.003,0.015 0.003,0.021 0.674,-0.184 1.306,-0.458 1.883,-0.823 m -1.767,1.814 c 0.018,0.175 0.037,0.309 0.047,0.387 0.401,-0.05 0.953,-0.112 1.115,-0.065 0.421,0.118 0.424,0.526 0.428,1.346 0.002,0.134 0.002,0.265 0.005,0.38 0.007,0.225 -0.077,0.437 -0.243,0.596 C -1.799,5.981 -2.238,6.069 -2.563,6.094 -2.684,6.337 -2.896,6.533 -3.102,6.63 -3.373,6.755 -3.656,6.715 -3.847,6.527 -3.931,6.44 -4,6.347 -4.065,6.263 -4.077,6.244 -4.093,6.222 -4.108,6.2 -4.479,6.163 -5.315,6.013 -5.442,5.549 -5.48,5.408 -5.63,4.33 -5.539,4.033 c 0.137,-0.451 0.62,-0.383 0.854,-0.351 0.006,0 0.018,0.003 0.028,0.003 -0.012,-0.107 -0.028,-0.235 -0.044,-0.372 -0.047,0 -0.096,0.003 -0.143,0.003 -2.064,0 -3.947,-0.782 -5.371,-2.063 l -0.511,-0.112 0.368,-0.022 c -1.553,-1.462 -2.525,-3.541 -2.525,-5.842 0,-3.977 2.905,-7.288 6.702,-7.926 -0.191,0.155 -0.299,0.401 -0.215,0.707 0.174,0.642 0.115,1.306 0.112,1.963 0,0.026 0.003,0.047 0.003,0.073 -0.418,0.118 -0.767,0.23 -0.976,0.311 0.041,0.602 0.215,1.606 0.408,1.789 0.455,0.447 1.092,0.471 1.547,0.421 l 0.52,-0.065 c 1.082,-0.306 1.35,-0.929 1.512,-1.49 0.1,-0.352 -0.415,-1.085 -0.695,-1.374 -0.172,0.005 -0.505,0.043 -0.891,0.108 0.005,-0.489 0.012,-0.976 -0.044,-1.455 l 0.832,-0.069 c -0.256,-0.025 -0.514,-0.041 -0.776,-0.041 -0.025,0 -0.047,0.003 -0.069,0.003 -0.024,-0.186 -0.062,-0.371 -0.109,-0.551 -0.059,-0.209 -0.174,-0.343 -0.318,-0.424 0.162,-0.013 0.331,-0.019 0.496,-0.019 4.429,0 8.036,3.607 8.036,8.039 0,3.756 -2.59,6.92 -6.075,7.796" /></g><g
           transform="translate(79.854,16.5841)"
           id="g112"><path
             id="path114"
             style="fill:#000000;fill-opacity:1;fill-rule:nonzero;stroke:none"
             d="m 0,0 c 0.013,0.128 -0.29,0.461 -0.29,0.461 0,0 0.633,-0.103 0.967,-0.093 C 0.533,0.233 0.374,0.084 0,0 m -0.982,0.071 c -0.187,-0.043 -0.692,-0.345 -0.739,-0.838 -0.04,-0.489 -0.158,-0.517 -0.158,-0.517 0,0 -0.49,0.131 -0.462,0.445 0.031,0.318 0.218,1.054 0.306,1.054 0.087,0 0.156,-0.231 0.156,-0.231 l 0.81,0.231 c 0,0 0.418,0.405 0.664,-0.1 -0.131,0.029 -0.39,0 -0.577,-0.044 m 0.25,-1.025 c 0.093,0.203 0.009,0.502 -0.25,0.499 -0.361,-0.013 -0.289,-0.296 -0.218,-0.614 -0.084,0.028 -0.446,0.115 -0.29,0.614 0.159,0.492 0.811,0.483 0.926,0.28 0.115,-0.199 0.174,-0.636 -0.168,-0.779 M 0,7.403 l 0.144,0.1 0.258,-0.1 c 0,0 -0.692,-5.371 -0.851,-6.524 -0.171,0.091 -0.533,0 -0.533,0 z M 1.736,0.727 C 1.63,1.041 1.328,1.244 1.234,1.303 L 1.054,1.409 0.854,1.353 C 0.789,1.331 0.624,1.271 0.49,1.147 0.452,1.15 0.402,1.153 0.349,1.156 0.44,1.93 0.767,4.688 1.091,7.366 L 1.128,7.709 0.586,7.479 0.318,7.631 0.312,7.634 -0.159,7.575 -0.561,7.979 -0.614,7.641 c 0,0 -0.003,-0.004 -0.003,-0.007 L -0.929,7.584 -0.654,7.416 C -0.816,6.44 -1.462,2.605 -1.696,1.284 h -0.293 c -0.134,0.1 -0.271,0.15 -0.411,0.15 H -2.406 C -2.562,1.431 -2.706,1.362 -2.805,1.24 -3.033,0.973 -3.26,-0.614 -3.248,-1.135 c 0.006,-0.287 0.115,-0.53 0.321,-0.711 0.33,-0.293 0.823,-0.33 1.163,-0.311 0.262,-0.128 0.586,-0.199 0.919,-0.199 0.446,0 0.889,0.121 1.288,0.348 0.542,0.003 1.315,0.054 1.315,0.693 0,0.034 0.003,0.121 0.007,0.24 0.037,1.365 0.021,1.651 -0.029,1.802" /></g><g
           transform="translate(89.7568,55.9117)"
           id="g116"><path
             id="path118"
             style="fill:#000000;fill-opacity:1;fill-rule:nonzero;stroke:none"
             d="m 0,0 c 0.016,0.075 0.047,0.149 0.047,0.23 0,0.727 -0.589,1.313 -1.313,1.313 -0.632,0 -1.137,-0.452 -1.265,-1.047 h -0.007 l -3.347,-13.429 c 0.511,-0.25 0.932,-0.621 1.306,-1.045 1.25,4.502 2.55,9.068 2.55,9.068 l 0.34,1.017 c 0,0 -1.3,-5.418 -2.603,-10.437 0.233,-0.302 0.455,-0.624 0.67,-0.938 L 0.171,-0.15 C 0.134,-0.094 0.065,-0.05 0,0" /></g><g
           transform="translate(61.915,46.2403)"
           id="g120"><path
             id="path122"
             style="fill:#000000;fill-opacity:1;fill-rule:nonzero;stroke:none"
             d="m 0,0 -1.581,-2.295 -0.461,-0.67 -8.915,-12.939 -0.343,0.028 L 0.624,1.593 C 0.626,1.59 0.626,1.587 0.626,1.583 0.63,1.574 0.63,1.567 0.63,1.562 0.705,1.172 0,0 0,0 m 8.18,9.987 c 0,0.73 -0.587,1.316 -1.313,1.316 -0.23,0 -0.446,-0.059 -0.636,-0.165 -0.237,0 -0.632,-0.05 -0.969,-0.344 C 4.897,10.477 4.71,9.987 4.704,9.336 3.279,7.145 -12.123,-15.604 -12.232,-15.764 l -0.293,-0.405 0.034,-0.018 -0.009,-0.019 0.178,-0.094 0.215,-0.137 c 0.053,-0.038 0.165,-0.113 0.966,-0.328 l 0.324,-0.074 0.212,0.289 c 5.371,7.513 17.874,24.985 17.94,25.081 0.037,0.06 0.093,0.172 0.149,0.3 0.415,0.221 0.696,0.658 0.696,1.156" /></g><g
           transform="translate(89.623,55.5826)"
           id="g124"><path
             id="path126"
             style="fill:#000000;fill-opacity:1;fill-rule:nonzero;stroke:none"
             d="m 0,0 -0.153,0.502 c 0,0 20.436,-19.657 20.436,-20.483 C 20.283,-20.346 0,0 0,0 M 30.433,-28.124 -0.234,1.409 C -0.97,1.353 -2.107,-0.655 -2.107,-0.655 L 28.12,-29.71 c 0,0 0.689,-0.733 1.63,-0.733 1.905,0 0.683,2.319 0.683,2.319" /></g><g
           transform="translate(147.7109,77.9356)"
           id="g128"><path
             id="path130"
             style="fill:#000000;fill-opacity:1;fill-rule:nonzero;stroke:none"
             d="m 0,0 c -0.112,-0.287 -0.255,-0.58 -0.34,-0.882 -0.146,-0.524 0.078,-0.748 0.603,-0.545 0.589,0.23 1.19,0.495 1.708,0.854 2.77,1.907 6.358,5.093 9.242,6.829 0.68,0.403 0.891,1.441 0.449,2.207 C 11.375,8.965 10.633,9.224 9.785,8.903 8.65,8.482 7.522,7.983 6.534,7.326 4.236,5.798 1.354,2.425 0,0 m -38.553,8.601 c -0.028,-0.212 -0.091,-0.434 -0.069,-0.63 0.034,-0.293 0.135,-0.574 0.206,-0.857 0.259,0.137 0.58,0.209 0.761,0.417 0.645,0.755 1.312,1.512 1.883,2.335 1.72,2.453 4.111,5.705 5.957,8.074 0.588,0.742 0.567,1.802 -0.113,2.465 -0.43,0.425 -1.103,0.353 -1.945,-0.224 -0.178,-0.125 -0.377,-0.243 -0.515,-0.399 -0.925,-1.073 -1.951,-2.195 -2.693,-3.391 -1.346,-2.17 -2.886,-5.247 -3.472,-7.79 m 10.782,11.627 c 0.798,0.829 1.674,0.514 2.431,0.143 0.671,-0.324 1.236,-0.835 1.787,-1.322 0.106,-0.09 0.069,-0.517 -0.051,-0.601 -1.324,-0.957 -6.234,-8.594 -6.754,-10.864 -0.09,-0.383 0.038,-0.807 0.062,-1.209 0.365,0.193 0.836,0.296 1.088,0.589 1.412,1.652 2.847,3.292 4.246,4.956 1.786,2.301 4.236,5.446 5.333,8.149 0.165,0.405 0.446,0.558 0.86,0.455 1.192,-0.293 2.289,-0.77 3.086,-1.64 0.45,-0.495 0.403,-1.016 -0.005,-1.546 -1.438,-1.914 -3.85,-4.557 -5.184,-6.53 -0.543,-0.798 -1.029,-1.643 -1.438,-2.535 0.755,0.879 1.512,1.768 2.307,2.603 2.139,2.251 5.408,4.957 8.043,6.659 1.798,1.081 3.734,0.542 5.081,-0.942 0.536,-0.589 0.424,-0.729 -0.2,-1.231 -0.991,-0.767 -2.998,-2.382 -3.775,-3.361 -1.328,-1.736 -2.556,-3.525 -3.768,-5.336 -0.115,-0.172 -0.193,-0.365 -0.193,-0.643 0.174,0.147 0.358,0.281 0.526,0.437 2.478,2.288 6.025,5.193 8.685,7.27 0.735,0.561 1.589,0.981 2.406,1.43 1.06,0.586 2.12,0.539 3.164,-0.175 C 0.802,14.411 1.571,13.81 1.749,12.831 -1.125,12.029 -5.913,5.68 -7.166,3.947 -7.59,3.351 -7.833,2.634 -8.079,1.955 -8.26,1.45 -7.967,1.175 -7.48,1.422 c 0.713,0.358 1.442,0.76 2.056,1.268 2.51,2.104 5.836,5.508 8.476,7.451 1.427,1.053 3.114,1.761 4.907,1.789 2.388,0.003 5.433,-1.581 5.67,-4.227 0.003,-0.037 0.04,-0.072 0.081,-0.143 0.604,0.187 1.172,0.158 1.776,-0.281 C 16.369,6.634 17.148,5.932 17.46,4.944 17.507,4.788 17.385,4.474 17.251,4.436 15.471,3.934 8.738,-2.182 7.774,-3.946 7.615,-4.242 7.622,-4.625 7.55,-4.969 c 0.396,0.032 0.864,-0.059 1.173,0.106 1.792,0.957 3.588,1.902 5.345,2.925 1.369,0.935 2.694,1.979 4.037,2.889 2.213,1.503 5.586,2.809 4.789,2.431 0.623,0.297 1.299,0.172 1.844,-0.433 0.59,-0.655 1.198,-1.319 1.656,-2.042 0.383,-0.608 0.171,-0.704 -0.415,-0.935 -1.066,-0.421 -2.107,-0.926 -3.07,-1.527 -2.148,-1.428 -5.577,-3.678 -7.279,-5.627 -0.293,-0.361 -0.552,-0.757 -0.757,-1.169 -0.24,-0.483 0.006,-0.801 0.566,-0.717 0.478,0.072 0.967,0.2 1.388,0.409 2.154,1.041 5.929,2.715 8.076,3.768 1.173,0.611 2.201,1.44 3.342,2.104 0.789,0.431 1.69,0.708 2.557,0.992 0.51,0.165 1.012,-0.028 1.486,-0.477 0.748,-0.708 1.397,-1.468 1.731,-2.394 0.174,-0.486 0.183,-0.749 -0.462,-0.855 -0.96,-0.162 -1.852,-0.576 -2.697,-1.019 -2.369,-1.318 -5.994,-3.479 -7.892,-5.433 -0.237,-0.271 -0.477,-0.548 -0.636,-0.866 -0.106,-0.216 -0.071,-0.509 -0.1,-0.767 0.256,-0.057 0.552,-0.203 0.764,-0.15 0.858,0.218 1.733,0.424 2.544,0.742 1.982,0.788 3.965,1.571 5.969,2.297 0.408,0.144 0.851,0.228 1.278,0.331 0.05,-0.066 0.103,-0.125 0.156,-0.191 -0.119,-0.155 -0.196,-0.364 -0.358,-0.464 -1.331,-0.851 -2.65,-1.699 -4.013,-2.503 -1.867,-0.951 -3.69,-1.699 -5.698,-2.079 -0.411,-0.078 -0.872,-0.122 -1.318,-0.078 -1.83,0.097 -3.133,1.88 -3.005,3.616 0.081,0.639 0.349,1.244 0.567,1.861 0.091,0.262 0.259,0.492 0.296,0.841 -0.243,-0.109 -0.477,-0.24 -0.729,-0.324 -1.262,-0.458 -2.525,-0.981 -3.834,-1.296 -1.787,-0.487 -3.445,1.041 -3.685,2.711 -0.084,0.926 0.199,1.759 0.552,2.591 0.05,0.118 0.094,0.237 0.18,0.461 C 11.029,-5.658 10.281,-6.066 9.502,-6.415 8.953,-6.661 8.373,-6.848 7.79,-7.029 5.64,-7.724 3.623,-5.997 3.838,-3.812 3.99,-2.805 4.38,-1.82 4.67,-0.804 4.358,-1.003 4.013,-1.265 3.632,-1.474 2.522,-2.11 1.388,-2.771 0.253,-3.329 -1.898,-4.395 -4.51,-2.69 -4.046,-0.23 c 0.118,0.748 0.34,1.493 0.512,2.238 -0.889,-0.612 -1.771,-1.281 -2.694,-1.874 -0.564,-0.364 -1.207,-0.66 -1.804,-0.91 -1.603,-0.661 -3.321,0.533 -3.673,2.11 -0.037,1.874 0.24,2.956 1.051,4.583 0.604,1.225 1.462,2.425 2.238,3.597 l 0.246,0.393 c -0.044,0.034 -0.084,0.072 -0.125,0.109 -1.337,-1.166 -2.643,-2.344 -3.924,-3.573 -1.427,-1.459 -2.805,-2.961 -4.177,-4.479 -0.841,-0.932 -1.235,-0.913 -2.041,-0.143 -0.821,0.782 -1.192,2.363 -0.758,3.435 0.751,2.306 1.861,4.511 3.157,6.543 0.19,0.299 0.371,0.605 0.552,0.904 l -0.116,0.112 c -0.502,-0.402 -1.044,-0.77 -1.483,-1.225 -2.21,-2.341 -4.327,-4.757 -6.388,-7.229 -0.304,-0.371 -0.589,-0.754 -0.879,-1.128 -0.367,-0.465 -0.772,-0.54 -1.25,-0.296 -1.436,0.679 -1.841,2.266 -1.539,3.728 -0.2,-0.19 -0.331,-0.324 -0.464,-0.449 -0.667,-0.605 -1.294,-1.262 -1.983,-1.808 -1.678,-1.602 -4.074,-0.215 -4.392,1.705 -0.174,1.057 -0.066,2.251 -0.09,3.364 -0.34,-0.465 -0.717,-1.057 -1.158,-1.572 -0.803,-0.947 -1.692,-1.939 -2.508,-2.805 -1.407,-1.49 -3.641,-0.455 -4.255,1.153 -0.462,1.216 -0.418,2.937 -0.156,4.19 0.583,2.752 2.235,6.49 3.88,8.849 0.952,1.369 2.223,2.582 3.753,3.233 2.516,1.073 5.331,0.01 6.743,-2.297" /></g><g
           transform="translate(38.4268,60.3927)"
           id="g132"><path
             id="path134"
             style="fill:#000000;fill-opacity:1;fill-rule:nonzero;stroke:none"
             d="m 0,0 c -0.418,-0.973 -1.337,-1.125 -1.337,0.106 0,0.097 0.691,3.095 1.614,3.762 C 0.299,3.887 0.343,3.877 0.439,3.884 0.551,2.942 0.355,0.838 0,0 m 42.917,34.414 c -0.33,-0.306 -0.529,-0.618 -0.676,-0.957 -0.418,-0.979 -0.789,-1.983 -1.184,-2.965 -0.849,-2.079 -1.656,-4.186 -2.479,-6.275 -0.162,-0.408 -0.62,-0.985 -0.876,-0.947 -0.511,0.075 -0.473,0.798 -0.486,1.303 -0.056,2.562 0.259,5.106 0.817,7.618 0.458,2.076 1.01,3.937 2.057,5.823 -0.237,0.212 -0.445,0.527 -0.733,0.627 -0.76,0.255 -1.549,0.442 -2.343,0.589 -0.693,0.124 -1.232,-0.234 -1.466,-0.904 -0.523,-1.487 -1.004,-2.996 -1.415,-4.508 -0.243,-0.898 -0.243,-1.895 -0.508,-2.783 -0.629,-2.123 -1.281,-4.246 -1.933,-6.366 -0.271,-0.891 -0.67,-1.727 -1.038,-2.553 -0.074,-0.171 -0.342,-0.355 -0.486,-0.318 -0.147,0.038 -0.312,0.318 -0.358,0.524 -0.109,0.508 -0.185,1.041 -0.225,1.571 -0.212,2.94 0.175,5.892 0.698,8.788 0.213,1.178 0.574,2.425 1.054,3.519 0.265,0.608 0.178,0.935 -0.284,1.088 -0.795,0.265 -1.63,0.433 -2.459,0.561 -0.776,0.118 -1.3,-0.34 -1.531,-1.098 -0.352,-1.143 -0.723,-2.334 -0.897,-3.503 -0.219,-1.446 -0.287,-3.024 -0.549,-4.442 -0.393,-2.114 -1.016,-4.33 -1.543,-6.487 -0.181,-0.733 -0.474,-1.434 -0.785,-2.089 -0.225,-0.464 -0.562,-0.396 -0.739,0.122 -0.147,0.43 -0.259,0.898 -0.315,1.353 -0.349,2.799 -0.221,5.605 0.065,8.451 0.175,1.692 0.377,3.426 1.188,4.959 -0.265,0.197 -0.508,0.502 -0.798,0.558 -0.817,0.168 -1.655,0.274 -2.494,0.309 -0.595,0.025 -1.091,-0.328 -1.381,-0.892 -0.42,-0.823 -0.885,-1.652 -1.122,-2.549 -0.817,-3.099 -1.481,-6.26 -2.091,-9.415 -0.182,-0.922 -0.34,-1.842 -0.496,-2.755 -0.162,0.212 -0.218,0.405 -0.234,0.598 -0.296,2.987 -0.296,5.991 0.012,8.971 0.085,0.805 0.169,1.671 0.487,2.373 0.327,0.726 0.034,0.926 -0.421,1.159 -1.727,0.886 -3.669,-0.28 -4.439,-2.004 C 10.458,31.347 10.405,31.222 10.358,31.1 9.236,28.005 8.697,24.732 8.285,21.424 8.148,20.327 8.064,19.214 7.971,18.12 7.802,18.958 7.721,19.791 7.702,20.62 7.64,23.345 7.631,26.079 7.643,28.806 7.649,29.704 7.409,30.122 6.711,30.34 5.626,30.683 4.542,30.514 3.491,30.137 3.08,29.987 2.936,29.66 3.114,29.174 3.226,28.865 3.329,28.532 3.363,28.201 3.74,24.869 4.251,21.478 3.809,18.117 3.557,16.2 3.323,14.283 3.055,12.375 2.97,11.755 2.699,11.197 2.521,10.614 c -0.268,0.882 -0.439,1.73 -0.545,2.594 -0.446,3.475 -0.845,6.97 -1.125,10.455 -0.078,1.022 0.012,2.101 0.24,3.086 0.143,0.629 -0.003,0.816 -0.433,0.981 -0.927,0.368 -1.849,0.244 -2.772,-0.052 -0.52,-0.169 -0.869,-0.515 -0.928,-1.101 -0.088,-0.907 -0.15,-1.833 -0.119,-2.749 0.04,-1.107 0.321,-2.223 0.274,-3.314 -0.128,-3.07 -0.28,-6.156 -0.405,-9.23 -0.022,-0.655 -0.162,-1.306 -0.34,-1.908 -0.153,-0.52 -0.502,-0.533 -0.77,-0.043 -0.252,0.461 -0.464,0.976 -0.617,1.483 -0.901,3.012 -1.337,6.126 -1.49,9.281 -0.05,1.125 0.134,2.269 0.175,3.403 0.006,0.185 -0.209,0.483 -0.374,0.555 -1.104,0.459 -2.223,0.272 -3.18,-0.377 -0.736,-0.499 -0.549,-1.549 -0.62,-2.403 -0.007,-0.063 -0.007,-0.134 -0.003,-0.196 0.077,-3.511 0.595,-7.067 1.636,-10.322 0.53,-1.649 1.157,-2.964 2.316,-4.133 1.175,-1.185 3.922,-0.945 4.296,1.181 0.183,1.026 0.374,2.223 0.527,3.373 0.077,0.571 0.071,1.163 0.102,1.749 0.48,-1.821 0.892,-3.663 1.387,-5.477 0.169,-0.623 0.041,-0.988 -0.342,-1.341 -0.858,-0.791 -2.204,-2.225 -2.503,-4.401 -0.004,0 -0.007,0 -0.01,0.003 -0.109,-1.262 -0.196,-3.061 1.54,-3.753 0.929,-0.336 2.142,-0.262 3.02,0.256 0.986,0.577 1.565,1.627 1.619,3.669 0.03,1.072 0.187,3.519 0.052,4.741 -0.059,0.548 -0.074,1.029 0.206,1.521 0.318,0.561 0.586,1.191 0.767,1.846 0.365,1.284 0.664,2.59 0.991,3.886 0.019,-0.027 0.078,-0.086 0.103,-0.158 0.402,-1.247 1.49,-2.079 2.787,-2.185 0.854,-0.069 1.097,0.165 1.175,1.153 0.022,0.274 0.022,0.552 0.041,0.826 0.246,3.407 0.545,6.823 0.947,10.212 0.084,0.733 0.312,1.44 0.483,2.163 0.054,-0.012 0.1,-0.025 0.153,-0.04 0.031,-0.381 0.063,-0.767 0.088,-1.144 0.19,-2.625 0.532,-4.885 1.218,-7.413 0.384,-1.428 1.596,-2.709 3.133,-2.784 0.514,-0.022 0.782,0.237 0.845,0.802 0.068,0.567 0.118,1.14 0.19,1.714 0.421,3.385 0.91,6.773 1.477,10.131 0.038,0.212 0.125,0.417 0.184,0.623 0.109,-0.91 0.116,-1.774 0.169,-2.637 0.053,-0.885 0.1,-1.792 0.246,-2.634 0.277,-1.602 0.639,-2.967 1.443,-4.277 0.879,-1.431 3.641,-2.051 4.533,0.016 0.084,0.193 0.227,0.389 0.299,0.605 0.436,1.309 0.879,2.624 1.337,3.927 0.231,-0.651 0.433,-1.343 0.721,-1.982 0.536,-1.204 1.34,-1.964 2.502,-2.129 1.16,-0.163 1.952,0.486 2.457,1.593 0.564,1.246 1.028,2.559 1.54,3.827 0.078,0.2 0.14,0.415 0.262,0.78 0.218,-0.861 0.355,-1.555 0.57,-2.188 0.405,-1.182 1.25,-2.313 2.575,-2.5 1.293,-0.187 2.07,0.673 2.687,1.801 1.986,3.654 3.155,7.759 3.753,11.858 0.028,0.184 -0.062,0.387 -0.094,0.577" /></g><g
           transform="translate(33.105,61.8048)"
           id="g136"><path
             id="path138"
             style="fill:#000000;fill-opacity:1;fill-rule:nonzero;stroke:none"
             d="m 0,0 c 0.296,0.296 0.586,0.596 0.826,0.948 0.371,0.549 0.418,1.053 -0.137,1.54 -0.415,0.361 -2.793,0.872 -4.701,2.266 -2.618,1.917 -4.585,4.274 -6.745,6.68 -0.138,0.156 -0.209,0.521 -0.178,0.761 0.178,1.374 0.387,2.762 0.655,4.115 0.608,3.061 1.343,6.072 2.599,8.886 0.306,0.683 0.789,1.341 1.313,1.874 0.374,0.377 0.38,0.648 0.068,0.857 -0.576,0.39 -1.178,0.78 -1.839,0.954 -0.957,0.256 -1.661,-0.128 -2.207,-1.085 -0.418,-0.72 -0.804,-1.486 -1.075,-2.263 -1.316,-3.765 -1.952,-7.718 -2.348,-11.708 -0.112,-1.159 -0.187,-2.328 -0.265,-3.488 -0.264,1.1 -0.411,2.204 -0.576,3.295 -0.34,2.185 -0.655,4.358 -1.353,6.43 -0.935,2.778 -3.965,2.622 -5.661,0.593 -1.225,-1.462 -2.179,-3.186 -2.802,-4.997 -0.848,-2.475 -1.225,-5.406 -0.374,-7.908 0.62,-1.821 3.07,-3.311 4.912,-2.582 0.172,0.069 0.306,0.287 0.561,0.543 -1.153,0.271 -1.633,1.1 -1.988,2.092 -0.783,2.144 -0.914,4.594 -0.524,6.832 0.262,1.503 0.673,3.046 1.484,4.367 0.302,0.493 0.527,0.493 0.705,-0.005 0.158,-0.446 0.308,-0.908 0.392,-1.397 0.826,-4.695 1.633,-9.445 2.634,-14.058 0.474,-2.189 1.085,-4.387 1.686,-6.565 0.306,-1.085 1.057,-1.519 2.018,-1.578 0.489,-0.028 0.994,0.01 1.474,0.1 0.817,0.153 0.894,0.331 0.605,1.15 -0.602,1.705 -0.718,3.563 -0.73,5.365 -0.009,1.571 0.028,3.148 0.066,4.722 0.205,-0.19 0.315,-0.277 0.408,-0.377 0.926,-1.001 5.243,-5.63 7.466,-6.583 1.056,-0.455 2.699,-0.705 3.572,0.193 C -0.043,-0.016 -0.021,-0.006 0,0" /></g><g
           transform="translate(60.4966,100.1519)"
           id="g140"><path
             id="path142"
             style="fill:#000000;fill-opacity:1;fill-rule:nonzero;stroke:none"
             d="m 0,0 c -0.016,0.698 -0.047,1.412 -0.281,2.051 -0.34,0.932 -1.06,1.284 -2.157,1.184 -0.829,-0.077 -1.677,-0.199 -2.469,-0.426 -3.837,-1.092 -7.437,-2.85 -10.926,-4.823 -1.009,-0.573 -5.467,-3.765 -5.464,-4.015 0.009,-0.617 1.874,-1.256 2.805,-1.016 0.777,0.53 2.787,1.687 2.959,1.78 1.225,0.642 2.481,1.272 3.743,1.83 2.85,1.265 5.736,2.4 8.757,2.989 0.735,0.147 1.552,0.128 2.291,0.007 C -0.218,-0.527 0.006,-0.377 0,0" /></g><g
           transform="translate(150.917,94.773)"
           id="g144"><path
             id="path146"
             style="fill:#000000;fill-opacity:1;fill-rule:nonzero;stroke:none"
             d="M 0,0 C 0.402,0.57 0.804,1.163 0.991,1.82 1.269,2.774 0.9,3.482 -0.047,4.052 c -0.711,0.427 -1.465,0.833 -2.235,1.119 -3.74,1.394 -7.681,2.114 -11.664,2.591 -1.154,0.14 -6.634,0.209 -6.778,0.006 -0.361,-0.502 0.764,-2.12 1.659,-2.481 0.941,-0.031 3.242,-0.29 3.432,-0.321 1.371,-0.209 2.752,-0.446 4.106,-0.742 C -8.485,3.554 -5.489,2.756 -2.703,1.44 -2.026,1.119 -1.378,0.624 -0.854,0.087 -0.486,-0.293 -0.216,-0.309 0,0" /></g><g
           transform="translate(179.5801,79.3028)"
           id="g148"><path
             id="path150"
             style="fill:#000000;fill-opacity:1;fill-rule:nonzero;stroke:none"
             d="m 0,0 c 1.098,-0.82 4.059,-2.023 6.278,-1.434 0.293,0.075 0.356,0.427 0.1,0.577 C 4.579,0.199 3.601,0.471 1.739,2.126 1.098,2.693 0.583,3.55 0.334,4.052 0.141,4.455 -0.081,4.542 -0.358,4.37 -0.857,4.062 -1.362,3.728 -1.711,3.304 -2.219,2.678 -2.126,2.063 -1.515,1.403 -1.054,0.904 -0.552,0.412 0,0" /></g><g
           transform="translate(104.4688,79.5582)"
           id="g152"><path
             id="path154"
             style="fill:#000000;fill-opacity:1;fill-rule:nonzero;stroke:none"
             d="m 0,0 c 0.399,0.131 0.795,0.268 1.166,0.474 0.58,0.324 0.848,0.755 0.57,1.437 -0.208,0.511 -2.097,2.039 -3.17,4.143 -1.474,2.892 -2.166,5.882 -3.01,9.006 -0.054,0.202 0.049,0.561 0.183,0.757 0.78,1.144 1.593,2.291 2.441,3.379 1.924,2.456 3.937,4.813 6.325,6.758 0.58,0.474 1.309,0.841 2.019,1.082 0.502,0.168 0.63,0.405 0.447,0.732 -0.337,0.611 -0.701,1.229 -1.21,1.68 -0.741,0.661 -1.54,0.636 -2.459,0.031 -0.698,-0.458 -1.391,-0.966 -1.983,-1.536 -2.871,-2.768 -5.221,-6.01 -7.372,-9.396 -0.627,-0.978 -1.216,-1.988 -1.808,-2.989 0.258,1.101 0.626,2.154 0.966,3.201 0.686,2.105 1.381,4.184 1.696,6.347 0.418,2.902 -2.357,4.13 -4.791,3.083 -1.752,-0.751 -3.379,-1.864 -4.751,-3.195 -1.873,-1.827 -3.531,-4.274 -3.9,-6.889 -0.264,-1.908 1.25,-4.342 3.224,-4.523 0.181,-0.016 0.402,0.122 0.745,0.233 -0.911,0.764 -0.963,1.715 -0.836,2.763 0.272,2.269 1.259,4.513 2.616,6.337 0.91,1.222 1.976,2.413 3.294,3.226 0.493,0.302 0.693,0.203 0.624,-0.324 -0.056,-0.468 -0.134,-0.948 -0.275,-1.421 -1.386,-4.564 -2.805,-9.165 -3.992,-13.738 -0.562,-2.167 -1.008,-4.402 -1.453,-6.618 -0.218,-1.11 0.258,-1.833 1.091,-2.319 0.421,-0.243 0.888,-0.44 1.356,-0.577 0.798,-0.23 0.951,-0.106 1.06,0.754 0.23,1.796 0.969,3.504 1.77,5.119 0.699,1.409 1.44,2.796 2.186,4.19 0.099,-0.269 0.155,-0.39 0.196,-0.524 C -6.661,9.371 -4.894,3.295 -3.341,1.44 -2.603,0.561 -1.246,-0.408 -0.065,0 -0.046,0.006 -0.021,0.006 0,0" /></g></g></g></g></svg>