<svg width="80" height="47" viewBox="0 0 80 47" fill="none" xmlns="http://www.w3.org/2000/svg">
<g id="g14">
<g id="g56">
<path id="path58" d="M30.9104 40.8692L19.6004 37.8201C19.4433 38.1377 18.9092 37.8201 18.8464 37.9789L18.7207 38.0742L18.8464 38.1694C18.8778 38.233 18.9092 38.2647 18.972 38.2965C22.1137 39.4399 31.4759 41.6632 31.5701 41.6632L32.921 41.9809L31.256 40.9645L30.9104 40.8692Z" fill="#5567EA"/>
</g>
<g id="g60">
<path id="path62" d="M31.5702 35.4375L31.2246 34.7388L19.7575 35.3105L20.166 35.2787L19.2549 36.0092L31.5074 35.4375H31.5702Z" fill="#5567EA"/>
</g>
<g id="g64">
<path id="path66" d="M38.4189 22.2569C38.4189 22.2569 38.4503 22.2569 38.4503 22.2251C38.8273 22.098 39.5185 21.9075 39.4242 21.6534C39.33 21.3993 38.4503 21.6534 38.2304 21.7169C38.0105 21.7804 37.1936 21.8757 37.0051 21.9075C37.5392 21.971 38.2932 21.7804 38.2932 21.7804C38.2932 21.7804 37.7906 22.0663 37.1936 22.098C37.0994 22.098 37.0051 22.098 36.8795 22.098C36.6281 22.098 36.3454 22.0663 36.0626 22.0028C36.0312 22.0028 35.9998 22.0028 35.937 22.0028C35.6542 21.9392 35.4029 21.9075 35.3086 21.8439C35.1201 21.7487 34.4918 21.5263 34.3347 21.4946H34.3033C34.3033 21.4946 34.3033 21.4946 34.3347 21.4946C34.4604 21.5263 35.0573 21.5263 35.5914 21.7169C36.1883 21.9075 36.8166 21.9392 37.8848 21.5899C37.8848 21.5899 37.9162 21.5899 37.9162 21.5581C38.4817 21.3993 38.9844 21.304 39.2986 21.3358C39.2986 21.3358 39.2986 21.3358 39.33 21.3358C39.5813 21.3675 39.7384 21.4628 39.707 21.7169C39.6441 22.0028 39.2671 22.1298 38.953 22.1933C38.8901 22.1933 38.8587 22.2251 38.8273 22.2251C38.6074 22.2569 38.4189 22.2569 38.4189 22.2569ZM36.1255 22.8603C36.0626 22.8603 35.9998 22.8603 35.9056 22.8603C35.8113 22.8603 35.6856 22.8603 35.5914 22.8286C35.5286 22.8286 35.4657 22.7968 35.4029 22.7968C35.3715 22.765 35.3401 22.765 35.2772 22.7333C35.2772 22.7333 35.0573 22.5109 35.4343 22.4157C35.8113 22.3204 36.7538 22.5109 36.9423 22.5109C36.8166 22.5745 36.5339 22.7968 36.1255 22.8603ZM36.9109 21.6851C36.8795 21.6851 36.8795 21.6851 36.8481 21.6851C36.4711 21.7169 35.9684 21.6851 35.7485 21.6216C35.4029 21.5581 34.3661 21.3675 34.2405 21.3993C34.2405 21.3993 34.2719 21.3675 34.3347 21.3675C34.3347 21.3358 34.3661 21.3358 34.3661 21.3358C34.5232 21.304 34.806 21.2722 35.2458 21.3993C35.937 21.5899 36.9737 21.6851 37.2251 21.6216C37.1622 21.6534 37.068 21.6851 36.9109 21.6851ZM40.0211 21.0181C39.707 20.7958 39.1101 20.8911 38.0105 21.1134C37.8848 21.1452 37.7591 21.177 37.6649 21.2087C36.5967 21.3993 35.3086 21.0817 35.1516 21.0181C35.0259 20.9546 34.4604 20.8276 34.0834 20.9864C33.8635 21.0499 33.7692 21.177 33.7064 21.2722C33.6436 21.431 33.6436 21.5899 33.7378 21.7487C33.8635 21.971 34.1462 22.1298 34.4604 22.2251C34.3661 22.3521 34.3033 22.5109 34.3033 22.7015C34.3033 22.8286 34.3347 22.9874 34.5232 23.1144C34.7117 23.2415 34.9945 23.3367 35.2772 23.3685C35.3715 23.5908 35.5286 23.9402 35.56 24.0355L35.6542 24.2261H35.8427C35.9056 24.2578 35.9684 24.2578 36.0626 24.2578C36.1883 24.2578 36.2826 24.2578 36.2826 24.2578L36.6281 24.2261L36.5967 24.0355H36.7538L36.5653 23.9085V23.8767C36.5653 23.8449 36.5339 23.5908 36.4396 23.305C36.4711 23.305 36.5025 23.305 36.5025 23.305H36.5339C36.9109 23.1779 37.5078 22.9556 37.8534 22.6698C38.5131 22.7015 39.6127 22.6698 39.9269 22.1933C40.084 21.971 40.4924 21.3993 40.0211 21.0181Z" fill="#5567EA"/>
</g>
<g id="g68">
<path id="path70" d="M29.622 22.2569C29.6534 22.2569 29.6534 22.2569 29.6534 22.2251C30.0618 22.098 30.753 21.9075 30.6273 21.6534C30.5331 21.3993 29.6534 21.6534 29.4335 21.7169C29.2136 21.7804 28.4282 21.8757 28.2083 21.9075C28.7423 21.971 29.4963 21.7804 29.4963 21.7804C29.4963 21.7804 28.9937 22.0663 28.4282 22.098C28.3339 22.098 28.2083 22.098 28.114 22.098H28.0826C27.8313 22.098 27.5485 22.0663 27.2658 22.0028C27.2343 22.0028 27.2029 22.0028 27.1401 22.0028C26.8573 21.9392 26.6374 21.9075 26.5432 21.8439C26.3233 21.7487 25.6949 21.5263 25.5378 21.4946C25.6635 21.5263 26.2918 21.5263 26.7945 21.7169C27.3914 21.9075 28.0198 21.9392 29.0879 21.5899C29.1193 21.5899 29.1193 21.5899 29.1508 21.5581C29.6848 21.3993 30.1875 21.304 30.5017 21.3358H30.5331C30.8158 21.3675 30.9415 21.4628 30.9101 21.7169C30.8473 22.0028 30.4703 22.1298 30.1561 22.1933C30.1247 22.1933 30.0618 22.2251 30.0304 22.2251C29.8105 22.2569 29.6534 22.2569 29.622 22.2569ZM27.3286 22.8603C27.2658 22.8603 27.2029 22.8603 27.1087 22.8603C27.0144 22.8603 26.9202 22.8603 26.7945 22.8286C26.7317 22.8286 26.6688 22.7968 26.6374 22.7968C26.5746 22.765 26.5432 22.765 26.4803 22.7333C26.4803 22.7333 26.2604 22.5109 26.6374 22.4157C27.0144 22.3204 27.9569 22.5109 28.1454 22.5109C28.0512 22.5745 27.7684 22.7968 27.3286 22.8603ZM28.114 21.6851C28.114 21.6851 28.0826 21.6851 28.0512 21.6851C27.6742 21.7169 27.1715 21.6851 26.9516 21.6216C26.606 21.5581 25.6007 21.3675 25.4436 21.3993C25.4436 21.3993 25.475 21.3675 25.5378 21.3675C25.5693 21.3358 25.5693 21.3358 25.5693 21.3358C25.7263 21.304 26.0405 21.2722 26.4489 21.3993C27.1401 21.5899 28.1768 21.6851 28.4596 21.6216C28.3968 21.6534 28.2711 21.6851 28.114 21.6851ZM31.2243 21.0181C30.9415 20.7958 30.3132 20.8911 29.2136 21.1134C29.0879 21.1452 28.9937 21.177 28.868 21.2087C27.7998 21.3993 26.5118 21.0817 26.3547 21.0181C26.229 20.9546 25.6635 20.8276 25.2865 20.9864C25.0666 21.0499 24.9723 21.177 24.9095 21.2722C24.8467 21.431 24.8467 21.5899 24.9409 21.7487C25.0666 21.971 25.3493 22.1298 25.6635 22.2251C25.5693 22.3521 25.5064 22.5109 25.5064 22.7015C25.5064 22.8286 25.5378 22.9874 25.7578 23.1144C25.9148 23.2415 26.1976 23.3367 26.5118 23.3685C26.5746 23.5908 26.7317 23.9402 26.7945 24.0355L26.8573 24.2261H27.0458C27.1087 24.2578 27.1715 24.2578 27.2658 24.2578C27.3914 24.2578 27.4857 24.2578 27.4857 24.2578L27.8313 24.2261L27.7998 24.0355H27.9569L27.7998 23.9085L27.7684 23.8767C27.7684 23.8449 27.737 23.5908 27.6428 23.305C27.6742 23.305 27.7056 23.305 27.737 23.305C28.114 23.1779 28.7109 22.9556 29.0565 22.6698C29.7477 22.7015 30.8158 22.6698 31.13 22.1933C31.2871 21.971 31.6955 21.3993 31.2243 21.0181Z" fill="#5567EA"/>
</g>
<g id="g72">
<path id="path74" d="M49.0374 21.8435C49.006 22.1294 48.629 22.2564 48.2834 22.3199C48.252 22.3199 48.2206 22.3517 48.1578 22.3517C47.9379 22.3834 47.7808 22.3834 47.7494 22.3834H47.7808C48.1892 22.2246 48.8804 22.0341 48.7861 21.8117C48.6919 21.5576 47.7808 21.78 47.5609 21.8435C47.3409 21.907 46.5555 22.0023 46.367 22.0658C46.8697 22.0976 47.6551 21.907 47.6551 21.907C47.6551 21.907 47.121 22.1929 46.5555 22.2246C46.4613 22.2246 46.3356 22.2246 46.2414 22.2246C45.9586 22.2246 45.6759 22.1929 45.4245 22.1294C45.3617 22.1294 45.3303 22.1294 45.2989 22.1294C44.9847 22.0658 44.7648 22.0341 44.6705 21.9705C44.482 21.8753 43.8537 21.6529 43.6652 21.6212C43.7909 21.6529 44.4192 21.6847 44.9533 21.8435C45.5188 22.0341 46.1471 22.0658 47.2153 21.7164C47.2467 21.7164 47.2467 21.7164 47.2781 21.7164C47.8122 21.5259 48.3149 21.4306 48.629 21.4624C48.6604 21.4624 48.6604 21.4624 48.6604 21.4624C48.9432 21.4941 49.1003 21.6212 49.0374 21.8435ZM45.4874 22.9869C45.3931 22.9869 45.3303 22.9869 45.2674 22.9869C45.1418 22.9869 45.0475 22.9869 44.9219 22.9552C44.8904 22.9552 44.8276 22.9234 44.7648 22.9234C44.7019 22.9234 44.6705 22.8916 44.6391 22.8916C44.6391 22.8916 44.3878 22.6375 44.7648 22.5423C45.1732 22.447 46.0843 22.6375 46.2728 22.6375C46.1785 22.7328 45.8958 22.9234 45.4874 22.9869ZM43.5709 21.5259C43.5709 21.5259 43.6024 21.4941 43.6966 21.4941C43.6966 21.4941 43.6966 21.4624 43.728 21.4624C43.8851 21.4306 44.1679 21.3988 44.6077 21.5259C45.2674 21.7164 46.3042 21.8117 46.5869 21.7482C46.5241 21.78 46.3984 21.8117 46.2728 21.8117C46.2414 21.8117 46.2099 21.8117 46.2099 21.8117C45.8329 21.8435 45.3303 21.8117 45.0789 21.7482C44.7334 21.6847 43.728 21.4941 43.5709 21.5259ZM49.3516 21.1447C49.0689 20.9224 48.4405 21.0495 47.3409 21.2718C47.2467 21.2718 47.121 21.3035 46.9954 21.3353C45.9272 21.5259 44.6391 21.2083 44.5134 21.1447C44.3564 21.0812 43.7909 20.9859 43.4139 21.113C43.1939 21.1765 43.0997 21.3035 43.0683 21.3988C42.974 21.5576 43.0054 21.7482 43.0683 21.8753C43.1939 22.0976 43.5081 22.2564 43.8223 22.3517C43.6966 22.4787 43.6338 22.6375 43.6338 22.8281C43.6338 22.9552 43.6966 23.114 43.8851 23.241C44.0736 23.3998 44.3564 23.4633 44.6391 23.4951C44.7334 23.7174 44.8904 24.0668 44.9219 24.1621L44.9847 24.3527L45.1732 24.3844C45.236 24.3844 45.3303 24.3844 45.3931 24.3844C45.5188 24.3844 45.6444 24.3844 45.6444 24.3844L45.9586 24.3527C45.9586 24.3209 45.9272 24.3209 45.9272 24.2891C45.9272 24.2574 45.9272 24.2256 45.9272 24.1939C45.8958 24.1939 45.8644 24.1939 45.8329 24.1303C45.8329 24.1621 45.8015 24.1939 45.7701 24.1939C45.6759 24.1303 45.613 24.0668 45.5816 23.9715C45.5502 24.0033 45.4874 24.0033 45.4559 23.9398C45.4559 23.9398 45.4245 23.9398 45.4245 23.908C45.3931 23.9398 45.3303 23.908 45.3303 23.8762C45.3617 23.8127 45.3617 23.781 45.3931 23.7174L45.4245 23.6857C45.4559 23.6857 45.4874 23.6539 45.5188 23.6539C45.5502 23.6222 45.5816 23.6539 45.5816 23.7174C45.5816 23.7492 45.5816 23.7492 45.5816 23.7492C45.5816 23.7174 45.5816 23.7174 45.5816 23.6857C45.613 23.6539 45.6444 23.6539 45.6759 23.6539C45.7073 23.6539 45.7387 23.6539 45.7701 23.6539H45.8015C45.8015 23.6222 45.8329 23.6222 45.8329 23.6222C45.8329 23.5586 45.8015 23.4951 45.8015 23.4316C45.8015 23.4316 45.8329 23.4316 45.8644 23.4316C46.2414 23.3045 46.8697 23.114 47.1839 22.7963C47.875 22.8281 48.9746 22.7963 49.2888 22.3517C49.4144 22.0976 49.8229 21.5259 49.3516 21.1447Z" fill="#5567EA"/>
</g>
<g id="g76">
<path id="path78" d="M65.4683 27.7842C63.8346 27.7842 62.5779 28.1971 61.7925 28.5782C61.7611 28.5782 61.7611 28.5782 61.7297 28.5782C61.7297 28.6417 61.7611 28.7053 61.7611 28.737C61.7611 28.7688 61.7611 28.8006 61.7925 28.8323C61.7925 28.8641 61.7925 28.8958 61.8239 28.9276L61.8554 28.9594C61.8868 29.0546 61.8868 29.1499 61.9182 29.2452C61.9496 29.3087 61.9496 29.404 61.981 29.4993C62.0124 29.5628 61.8868 29.5946 61.8554 29.5311C61.8554 29.4993 61.8554 29.4675 61.8554 29.4358C61.8554 29.4993 61.8554 29.5311 61.8554 29.5946C61.8554 29.6264 61.8239 29.6581 61.7925 29.6581V29.6899C61.7925 29.7534 61.7297 29.7852 61.6983 29.7216C61.6983 29.7534 61.6983 29.7534 61.6983 29.7852C61.6983 29.8169 61.6354 29.8487 61.604 29.8169V29.8805C61.604 29.9122 61.5726 29.9122 61.5412 29.9122C61.5412 30.0075 61.5412 30.071 61.5412 30.1345C61.5412 30.1663 61.5412 30.1981 61.5726 30.2298C62.1381 29.8487 63.5204 29.1499 65.4997 29.1499C69.3325 29.1499 73.6052 32.6437 73.6052 37.3444C73.6052 41.9817 70.0237 45.6342 65.4055 45.6342C61.0699 45.6342 57.5199 41.8864 57.5199 37.3127C57.5199 34.9941 58.5252 33.279 59.3734 32.2308C60.0646 31.3415 60.7872 30.8015 61.0699 30.5792C61.0385 30.4522 61.0071 30.3251 61.0071 30.1663C60.9443 30.2298 60.8814 30.3251 60.8814 30.3251C60.9129 30.3569 60.9757 30.3886 60.9757 30.3886C60.8814 30.9286 60.8814 30.5474 60.8814 30.3569V30.3251C60.8814 30.2616 60.8814 30.2298 60.8814 30.2298C60.85 30.2298 60.7872 30.1028 60.7872 30.071C60.7558 30.0075 60.7244 29.9122 60.7244 29.8487C60.6301 29.6899 60.473 29.5311 60.473 29.3405C60.3474 29.4358 59.342 30.1028 58.3367 31.3415C57.3628 32.5802 56.1689 34.5812 56.1689 37.3127C56.1689 38.1067 56.2946 38.9325 56.4831 39.6948C56.8601 41.2194 57.5827 42.6804 58.6194 43.8556C59.6562 45.0308 60.9443 45.9201 62.358 46.4601C63.3319 46.8094 64.3373 47 65.374 47C66.0024 47 66.6621 46.9365 67.259 46.8094C69.8666 46.3012 72.1286 44.7132 73.5424 42.4898V42.4581C73.5424 42.4581 73.5738 42.4263 73.5738 42.3946L73.6052 42.3628C74.4849 40.87 74.9561 39.1231 74.9561 37.3444C74.9561 31.8814 69.9609 27.7842 65.4683 27.7842Z" fill="#5567EA"/>
</g>
<g id="g80">
<path id="path82" d="M60.222 28.3217C60.2849 28.3217 60.3163 28.3852 60.3791 28.417C60.4419 28.4487 60.4734 28.4487 60.5048 28.3852C60.5362 28.2899 60.6619 28.0676 60.7561 27.9088C60.7875 27.877 60.819 27.8453 60.819 27.8135C60.8504 27.7818 60.8818 27.75 60.8818 27.75C60.8818 27.75 60.8818 27.7818 60.8818 27.8135C60.8818 27.8453 60.8504 27.877 60.8504 27.9406C60.8504 28.2582 60.9132 28.9887 61.5101 30.0686C61.3216 29.9098 61.0074 29.4016 61.0074 29.4016C61.1017 29.6239 61.1959 29.9098 61.2588 30.0051C61.0703 29.9733 60.8818 29.4016 60.8504 29.2746C60.9132 29.3063 60.976 29.3381 60.976 29.3381C60.976 29.3381 60.6619 28.5123 60.6933 28.3852C60.5676 28.6711 60.5676 28.7981 60.5048 28.7028C60.4734 28.7028 60.4419 28.6711 60.4419 28.6393C60.3791 28.6076 60.3477 28.544 60.2849 28.4805C60.2535 28.417 60.222 28.3852 60.222 28.3217ZM60.0335 27.7818L60.0964 27.6547L60.1278 27.5912L59.1539 25.0185L58.714 23.8751L58.6826 23.7798V23.748C58.714 23.7163 58.7455 23.6845 58.7455 23.6845C58.7769 23.6527 58.8083 23.6527 58.8083 23.6527L59.4052 25.2726L60.2849 27.5277L60.3477 27.5594H60.4419L60.5048 27.5912H60.4734L60.3791 27.6547L60.1278 27.7818L60.0335 27.8135L59.9707 27.8453L60.0335 27.7818ZM61.0703 27.9723H61.196H61.353H61.3845L61.4787 28.3217L61.7929 29.2746C61.7929 29.2746 61.5101 28.4805 61.353 28.2264C61.353 28.2899 61.6358 29.0522 61.6986 29.4334C61.6986 29.4651 61.6986 29.4969 61.6986 29.4969C61.6044 29.1475 61.2274 28.2899 61.1017 28.0676C61.0703 28.0041 61.0703 27.9723 61.0703 27.9723ZM58.2742 23.081C58.2428 23.0493 58.2428 23.0493 58.2114 23.0175C58.2428 23.0493 58.2428 23.0493 58.2428 23.081C58.2428 23.1445 58.2428 23.1763 58.2742 23.2398C58.2742 23.2716 58.2742 23.3351 58.2428 23.3669C58.2428 23.3669 58.2428 23.3986 58.2114 23.3986V23.3669C58.2114 23.3351 58.18 23.3034 58.18 23.2716C58.1485 23.2398 58.1171 23.2081 58.1171 23.1763C58.0857 23.1445 58.0543 23.1445 58.0229 23.1128C57.9914 23.081 57.96 23.081 57.96 23.081L58.1171 22.9222H58.1485L58.337 22.8587C58.337 22.8587 58.3684 22.8587 58.3999 22.8905C58.4313 22.9222 58.4627 22.954 58.5255 23.0175C58.557 23.0493 58.5569 23.081 58.5569 23.1128C58.5569 23.1763 58.5569 23.2081 58.5569 23.2398C58.5255 23.2716 58.5255 23.3034 58.4941 23.3351C58.4627 23.3351 58.4627 23.3669 58.4313 23.3669C58.3999 23.3669 58.3684 23.2081 58.2742 23.081ZM58.1171 24.1292C58.18 24.1292 58.2114 24.1292 58.2428 24.1292H58.2742V24.1609V24.2244V24.2562V24.3515C58.2742 24.3515 58.2428 24.3515 58.2114 24.3515C58.18 24.3515 58.1485 24.3515 58.0857 24.3515C58.0229 24.3515 57.9286 24.3515 57.8029 24.3515C57.1746 24.3197 55.9494 24.288 54.4728 24.2562C50.5143 24.1292 46.9956 23.9386 46.4929 23.9386C45.7075 23.9068 45.4562 23.9068 45.4248 23.8433C45.4248 23.8115 45.3934 23.7798 45.3619 23.7798C45.3305 23.748 45.2677 23.748 45.2677 23.748C45.6761 23.748 46.4929 23.7798 47.5611 23.8115C49.666 23.8433 50.5143 23.9386 53.0904 24.0021C54.7869 24.0339 56.2635 24.0974 57.206 24.0974C57.5516 24.1292 57.8344 24.1292 57.9914 24.1292C58.0543 24.1292 58.0857 24.1292 58.1171 24.1292ZM55.2268 20.8259L55.164 20.7624C55.6352 20.5401 55.9808 20.5401 56.2321 20.6036C56.2635 20.6036 56.2949 20.6036 56.3264 20.6354C56.3578 20.6354 56.3892 20.6354 56.3892 20.6671C56.4206 20.6671 56.4206 20.6671 56.4206 20.6671C56.452 20.6671 56.4834 20.6989 56.4834 20.6989L56.5149 20.7307C56.5463 20.7307 56.5463 20.7624 56.5777 20.7942C56.6091 20.7942 56.6091 20.8259 56.6405 20.8259C56.6091 20.8259 56.5777 20.8259 56.5777 20.7942H56.5463C56.5149 20.7942 56.4834 20.7942 56.4834 20.7942C56.452 20.7624 56.4206 20.7624 56.3578 20.7624C56.3264 20.7307 56.2949 20.7307 56.2635 20.7307C56.2321 20.7307 56.2007 20.6989 56.1693 20.6989C55.541 20.6036 55.2268 20.8577 55.2268 20.8577V20.8259ZM54.0015 21.6835C54.3471 21.5247 54.9126 21.2388 55.0383 21.08C55.0383 21.3024 54.5042 21.62 53.7502 21.8106C53.7502 21.8106 53.8759 21.747 54.0015 21.6835ZM55.9808 19.2696C55.9494 19.2696 55.9179 19.2696 55.8865 19.3014C55.8551 19.3014 55.8551 19.3014 55.8551 19.3014C55.8237 19.3014 55.7923 19.3331 55.7609 19.3331C55.6666 19.3649 55.5409 19.4284 55.4467 19.4602C55.1011 19.619 54.7555 19.7778 54.5042 19.9049C54.3785 19.9684 54.2843 20.0001 54.2529 20.0319L54.19 19.9684C54.19 19.9684 54.9126 19.3649 55.698 19.2696C55.7609 19.2696 55.7923 19.2696 55.8551 19.2696C55.8865 19.2696 55.9179 19.2696 55.9808 19.2696ZM57.96 21.5247C57.9286 21.3659 58.0543 21.2388 58.0543 21.2388H58.0229L57.9914 21.1436C57.9914 21.1436 57.9914 21.1118 58.0229 21.08C58.0543 21.0483 58.0857 20.9848 58.1171 20.953C58.18 20.8577 58.2114 20.7307 58.2428 20.6354C58.337 20.7942 58.18 21.1436 58.1485 21.1436C58.18 21.1436 58.2114 21.2071 58.18 21.2388C58.18 21.2706 58.18 21.3024 58.18 21.3341C58.1485 21.4294 58.0857 21.5247 57.9914 21.62C57.96 21.5882 57.96 21.5565 57.96 21.5247ZM56.5149 19.8096C56.6405 19.7778 56.829 19.746 57.206 19.746C57.5516 19.746 57.6773 20.0319 57.7087 20.159L57.7401 20.2542L57.7715 20.4766C57.7715 20.6036 57.7715 20.7307 57.7087 20.7942C57.6773 20.7307 57.583 20.6989 57.5202 20.6354V20.6036L57.1118 20.3813L57.0489 20.3495C57.0489 20.3495 57.0175 20.3178 56.9861 20.3178C56.7348 20.1907 56.4834 20.1272 56.2321 20.0954C56.3892 20.0001 56.4834 19.8731 56.5149 19.8096ZM54.4099 20.0637C54.6613 19.9366 55.5095 19.5555 55.8237 19.4284C55.8551 19.4284 55.8551 19.3967 55.8865 19.3967C55.8865 19.3967 55.9179 19.3967 55.9494 19.3967C55.9494 19.3649 55.9808 19.3649 55.9808 19.3649C55.9808 19.3649 56.0122 19.3649 56.0122 19.3967C56.0436 19.3967 56.0436 19.4284 56.0436 19.4284C56.0436 19.4602 56.0122 19.4602 56.0122 19.492C55.9808 19.492 55.9808 19.492 55.9494 19.5237C55.9494 19.5237 55.9494 19.5237 55.9179 19.5237C55.698 19.619 54.7555 20.0954 54.4728 20.2225L54.4099 20.2542L54.3157 20.0954C54.3157 20.0954 54.3471 20.0954 54.4099 20.0637ZM55.7294 19.8731C55.8551 19.8096 55.9179 19.746 55.9808 19.6508C56.0122 19.619 56.0436 19.5872 56.0436 19.5872C56.075 19.5555 56.075 19.5237 56.075 19.5237C56.1065 19.5555 56.1379 19.619 56.1379 19.6508C56.1379 19.6508 56.1379 19.6825 56.1065 19.6825C56.1065 19.7143 56.075 19.746 56.0436 19.746C56.0122 19.7778 55.9808 19.8096 55.9494 19.8096C55.8865 19.8413 55.8237 19.8413 55.7294 19.8731ZM58.4313 19.9684C58.4313 20.0001 58.4627 20.0319 58.4627 20.0637C58.4627 20.0954 58.4627 20.1272 58.4627 20.159C58.4627 20.1272 58.4313 20.0954 58.3999 20.0637C58.3999 20.0637 58.3999 20.0637 58.3999 20.0319C58.3999 20.0319 58.3684 20.0001 58.3684 19.9684C58.337 19.9366 58.3056 19.9049 58.3056 19.8413C58.1171 19.5555 57.7715 19.2061 57.2689 19.2061C56.8919 19.2061 56.6405 19.2379 56.5149 19.2379C56.4834 19.2379 56.4206 19.2379 56.4206 19.2379C56.3892 19.2379 56.3578 19.2379 56.3578 19.2379C56.3264 19.2696 56.3264 19.2696 56.3264 19.2696L56.2949 19.1743C56.2949 19.1743 56.3264 19.1426 56.3578 19.1426C56.3892 19.1426 56.4206 19.1108 56.4834 19.1108C56.672 19.0473 57.0175 18.9838 57.3003 19.0155C57.6773 19.0473 58.2114 19.2379 58.3999 19.8413C58.4313 19.8731 58.4313 19.9049 58.4313 19.9684ZM58.337 22.7316C58.3056 22.7634 58.2742 22.7634 58.2428 22.7634C58.18 22.7952 58.1485 22.7316 58.1485 22.7316L57.6145 21.5247V21.4929L57.583 21.4294L57.6459 21.3977L57.7087 21.3341V21.3977L57.7401 21.4294L57.8029 21.5882L57.8658 21.6835L58.337 22.7316ZM53.4046 21.4294C53.4674 21.3977 54.5356 20.8577 54.9754 20.8577C54.944 20.8577 54.9126 20.8577 54.8812 20.8895C54.7555 20.953 54.567 21.0483 54.3157 21.1753C54.0644 21.3024 53.813 21.4294 53.6245 21.4929C53.5931 21.5247 53.5617 21.5565 53.5303 21.5565L53.4989 21.5882C53.4674 21.5247 53.4046 21.4294 53.4046 21.4294ZM65.8142 37.5643C65.8456 37.4691 65.8456 37.3738 65.8456 37.3103C65.8142 37.215 65.6257 37.0244 65.4058 36.9926C65.3744 36.9926 65.343 36.9926 65.2801 36.9926C65.2487 36.9926 65.4372 36.8974 65.5629 36.8974C65.7514 36.8974 65.9399 36.9926 65.9713 37.2467C66.0341 37.5326 65.8456 37.6914 65.7514 37.6914C65.7828 37.6596 65.8142 37.5961 65.8142 37.5643ZM65.3115 37.2785C65.3115 37.2467 65.3115 37.2467 65.3115 37.2467C65.3115 37.215 65.343 37.215 65.3744 37.1832C65.4372 37.1515 65.5 37.1197 65.5629 37.1515C65.5629 37.1515 65.5629 37.1515 65.5943 37.1832L65.6257 37.215C65.6571 37.2785 65.6885 37.342 65.6571 37.4055C65.6571 37.4373 65.6257 37.5008 65.5943 37.5008C65.5629 37.5326 65.5315 37.5643 65.5315 37.5643C65.5315 37.5643 65.5629 37.5326 65.5629 37.5008C65.5629 37.5008 65.5629 37.4691 65.5629 37.4055C65.5629 37.4055 65.5629 37.3738 65.5315 37.3738C65.5315 37.342 65.5315 37.342 65.5315 37.3103C65.4372 37.215 65.2801 37.3103 65.2801 37.3103C65.2801 37.2785 65.2801 37.2785 65.3115 37.2785ZM61.6672 30.7991V30.6721C61.6672 30.6721 63.3637 34.674 63.615 35.0869C63.458 34.8964 63.2066 34.3247 62.8925 33.7212C62.327 32.4825 61.6672 30.9579 61.6672 30.9579V30.7991ZM58.6826 23.4939L58.6198 23.5574H58.4627H58.3999H58.4313L58.6512 23.4304L58.7455 23.3669L58.6826 23.4939ZM61.1331 30.3545C61.3216 30.2909 61.5729 30.2274 61.5729 30.2274V30.3545L61.4787 30.3862L61.1645 30.4497H61.1331L61.0703 30.418L60.976 30.3862C61.0074 30.3862 61.0074 30.3862 61.0389 30.3862C61.0703 30.3545 61.1017 30.3545 61.1331 30.3545ZM66.254 36.8021C66.1284 36.675 65.9399 36.4844 65.5943 36.4527C65.4686 36.4527 65.3744 36.4527 65.2801 36.4844C64.9031 36.1033 64.2119 35.2775 63.992 34.8646C63.835 34.6105 63.1438 32.9907 62.1384 30.5768C62.2013 30.545 62.2327 30.4815 62.2641 30.418C62.4526 30.3227 62.5154 30.2274 62.5469 30.1321C62.6097 30.0051 62.5783 29.8463 62.484 29.7192C62.4526 29.6239 62.1699 28.9252 62.0442 28.5758C61.73 27.7818 61.73 27.7818 61.6986 27.7182C61.6358 27.6865 61.6044 27.6547 61.5729 27.6229C61.5729 27.4006 61.4159 27.3371 61.3216 27.3053C61.1645 27.2418 61.0074 27.2418 60.9132 27.2736C60.7875 27.0512 60.599 26.543 60.4105 26.0349C59.3738 23.4939 59.1853 23.081 59.1224 22.9857C59.0596 22.9222 58.9654 22.8587 58.9025 22.8269C58.8711 22.6999 58.8083 22.4776 58.6198 22.3823C58.6198 22.3823 58.6198 22.3823 58.5884 22.3823C58.5569 22.2552 58.4313 22.0329 58.3684 21.8741C58.5255 21.747 58.714 21.5565 58.7769 21.3977C58.8083 21.3024 58.7769 21.1753 58.714 21.1118C58.714 21.08 58.714 21.08 58.6826 21.0483C58.8083 20.7942 58.9654 20.413 58.9339 20.0954C58.9025 19.746 58.7455 19.1108 58.0543 18.7297C57.2375 18.2532 56.1379 18.6661 55.8865 18.7932C55.0069 18.7297 53.8444 19.5872 53.7816 19.619L53.5931 19.746L53.6874 19.9684C53.7502 20.2225 53.9073 20.4766 54.0015 20.6354C53.7816 20.6989 53.5931 20.8259 53.4046 20.9212C53.3418 20.9212 53.3418 20.953 53.3104 20.953C53.059 21.08 52.9648 21.3341 52.9962 21.5247V21.5565V21.62C53.2475 22.2235 53.3104 22.3187 53.4674 22.3823C53.4989 22.3823 53.5303 22.3823 53.5931 22.3823C53.6874 22.3823 53.7502 22.3505 53.9387 22.287C54.0644 22.2235 54.2529 22.1599 54.5356 22.0329C55.1954 21.7788 55.4153 21.4929 55.5095 21.2706C55.6038 21.2388 55.7609 21.1753 55.9494 21.1753C56.1379 21.1753 56.2321 21.2071 56.2635 21.2388L56.4834 21.3977L56.5149 21.3659C56.7662 21.4929 56.9547 21.62 57.0489 21.6835L57.5516 22.8587C57.3945 23.081 57.3631 23.3034 57.4574 23.5257C57.4888 23.5892 57.5202 23.6527 57.5516 23.7163C55.6038 23.5892 51.4254 23.3986 50.4515 23.3351C49.1634 23.3034 45.1734 23.2398 45.1106 23.2398C44.8279 23.2398 44.6079 23.3351 44.4823 23.4622C44.3566 23.5892 44.3252 23.7163 44.3252 23.8751C44.3252 24.2244 44.6079 24.4785 44.8279 24.5103C44.8593 24.5103 44.9535 24.5421 45.6447 24.4468C45.8332 24.415 47.6239 24.5421 48.6921 24.6056H48.7235C49.5404 24.6373 50.2315 24.6691 50.3886 24.6691C50.7656 24.6691 56.4834 24.955 58.3684 25.0185C58.6512 25.7808 59.0596 26.7654 59.3424 27.4959L59.4366 27.4324L59.4994 27.3371L59.5937 27.2418L59.6565 27.1465L59.688 27.1148L59.7822 27.3371H59.7508L59.6565 27.4006L59.5623 27.4641L59.468 27.5277L59.3738 27.5912C59.5937 28.0994 59.7508 28.5123 59.7822 28.544C59.8136 28.6076 59.8136 28.7028 59.8136 28.7664C59.845 28.8934 59.8765 29.0522 59.9393 29.211C60.0335 29.4016 61.6358 32.9907 62.0442 33.8482C62.0756 33.8482 63.1124 35.9763 64.3062 37.0562C62.4212 37.5326 57.2375 38.8031 56.1693 39.0572L56.0122 39.0889L55.9179 39.216C55.8551 39.3113 55.7609 39.5336 55.7923 39.7241C55.8237 39.8512 55.8865 39.9147 55.9808 39.9782C56.0122 39.9782 56.075 40.01 56.1379 40.01C56.2949 40.01 56.7348 39.9465 60.7247 38.9301C62.5469 38.4854 64.3376 38.009 64.9345 37.8502C65.0288 38.009 65.2173 38.1043 65.5 38.1361C65.9713 38.1996 66.3483 37.9137 66.4425 37.4055C66.474 37.215 66.3797 36.9926 66.254 36.8021Z" fill="#5567EA"/>
</g>
<g id="g84">
<path id="path86" d="M50.7028 34.6126C50.5457 34.6762 52.8391 26.5452 52.8391 26.5452L52.9962 26.0687C52.9962 26.0687 51.017 34.4221 50.7028 34.6126ZM52.5564 24.2266L49.3519 37.4077C49.3519 37.4077 49.2262 37.8206 49.5718 38.0747C50.2001 38.4876 50.4829 37.9794 50.4829 37.9794L53.7502 24.5442C53.5931 24.2583 52.5564 24.2266 52.5564 24.2266Z" fill="#5567EA"/>
</g>
<g id="g88">
<path id="path90" d="M27.9259 24.4475L27.8631 24.2252C27.8631 24.2252 37.0053 33.1502 37.0053 33.5313C37.0053 33.6901 27.9259 24.4475 27.9259 24.4475ZM41.9063 37.5015L27.8002 23.8123C27.4861 23.844 26.9834 24.7651 26.9834 24.7651L40.524 37.9462C40.524 37.9462 41.0895 38.4226 41.4979 38.4226C42.3462 38.4226 41.9063 37.5015 41.9063 37.5015Z" fill="#5567EA"/>
</g>
<g id="g92">
<path id="path94" d="M43.0687 30.1635L43.4143 30.5447C43.9484 28.5437 44.5139 26.5427 44.5139 26.5427L44.671 26.0663C44.671 26.0663 44.1055 28.4484 43.54 30.7035L43.7913 31.0211L45.3936 24.3829C45.2051 24.097 44.3882 23.6206 44.3882 23.6206L42.8174 30.0047C42.9116 30.0365 43.0059 30.0682 43.0687 30.1635Z" fill="#5567EA"/>
</g>
<g id="g96">
<path id="path98" d="M43.3195 31.9738L43.2252 31.8468C42.8482 33.3396 42.4712 34.5148 42.377 34.61C42.3141 34.6418 42.6597 33.2761 43.0995 31.688L42.5655 31.0527L41.026 37.4051C41.026 37.4051 40.7119 37.9768 41.0889 38.1991C41.7172 38.612 42.1256 37.9768 42.1256 37.9768L43.5394 32.1009C43.4451 32.1009 43.3823 32.0373 43.3195 31.9738Z" fill="#5567EA"/>
</g>
<g id="g100">
<path id="path102" d="M34.5232 32.0387C34.1462 33.4362 33.8321 34.5479 33.7064 34.6114C33.6436 34.6432 33.9577 33.3727 34.3976 31.8481C34.3347 31.7846 34.2719 31.6893 34.2091 31.6258C34.1148 31.4988 34.0206 31.3082 33.8635 31.1812L32.3555 37.4064C32.3555 37.4064 32.6382 37.1524 33.0152 37.3747C33.6436 37.8193 33.4865 37.9782 33.4865 37.9782L34.9631 32.007C34.8688 31.8481 34.6175 32.1975 34.5232 32.0387Z" fill="#5567EA"/>
</g>
<g id="g104">
<path id="path106" d="M60.0337 28.3873L59.908 28.2603L59.7509 28.3555C59.7509 28.3555 58.5571 29.0225 57.3633 30.4518C57.2062 30.6424 57.0491 30.833 56.9234 31.0235C55.9495 32.2622 55.1641 33.6915 55.007 36.1689C54.9756 36.5183 54.9756 36.8677 54.9756 37.2171C54.9756 38.9322 55.2898 40.1074 55.5725 40.8061C55.8553 41.6002 56.1694 41.9813 56.2008 41.9813L56.2323 42.0131C56.2637 42.0131 56.3579 42.1084 56.515 42.1084C56.6093 42.1084 56.7035 42.0766 56.7978 42.0131L56.8292 41.9813C57.0805 41.7907 57.0491 41.6319 56.892 41.2825V41.2508C56.1066 39.5674 55.9495 38.0746 55.9495 37.1535C55.9495 34.8667 57.0491 31.4682 60.1908 29.2449L60.285 29.1813V29.0543C60.285 28.7049 60.0337 28.4191 60.0337 28.3873Z" fill="#5567EA"/>
</g>
<g id="g108">
<path id="path110" d="M53.7506 33.4366C53.4992 33.7224 51.0173 36.708 50.7974 36.9621C50.8288 36.8986 50.8917 36.8033 50.9859 36.708C51.8027 35.7552 53.4364 33.5319 54.2533 32.7378C54.4103 32.579 54.5046 32.5155 54.5046 32.5155L58.7458 28.2594C58.7458 28.2594 54.0333 33.1825 53.7506 33.4366ZM59.4684 26.4172L50.2947 36.5492L49.6036 36.4539L50.012 37.4068C50.0748 37.4703 48.7553 37.3115 48.9124 37.5021C50.0434 38.8043 50.7974 37.9467 50.7974 37.9467L60.1282 27.9736L60.2224 27.8783L60.0025 27.9418L59.4684 26.4172Z" fill="#5567EA"/>
</g>
<g id="g112">
<path id="path114" d="M24.3756 28.7676C24.2185 29.0217 24.0614 29.244 23.8729 29.4346C23.7787 29.5616 23.7158 29.6887 23.6216 29.784C25.8836 31.2768 27.3916 33.913 27.3916 36.8986C27.3916 37.0574 27.3916 37.2479 27.3602 37.4068C27.7686 37.4068 28.177 37.4385 28.5854 37.5338C28.6168 37.5338 28.6168 37.5656 28.6168 37.5973C28.6483 37.5656 28.7111 37.5656 28.7111 37.5973C28.7425 37.5973 28.7425 37.6291 28.7425 37.6291C28.7425 37.6291 28.7425 37.6291 28.7425 37.6609H28.7739C28.7739 37.4068 28.8053 37.1527 28.8053 36.8986C28.8053 33.5001 27.0146 30.4827 24.3756 28.7676Z" fill="#5567EA"/>
</g>
<g id="g116">
<path id="path118" d="M28.6482 37.8823C28.6168 37.9141 28.5854 37.9141 28.5539 37.8823C28.2084 37.9776 27.8628 37.9141 27.5172 37.8188C27.5172 37.8188 27.5172 37.8188 27.4858 37.8188C27.4858 37.8188 27.4858 37.8506 27.4544 37.8506H27.3287C26.8889 42.0431 23.433 45.3463 19.2546 45.3463C15.2019 45.3463 11.8403 42.2019 11.2434 38.1682C11.2119 38.1364 11.2119 38.1047 11.2434 38.1047C11.1805 37.6918 11.1491 37.3106 11.1491 36.8977C11.1491 32.2605 14.7934 28.4809 19.2546 28.4809C20.6998 28.4809 22.0507 28.862 23.2131 29.5608C23.3702 29.3384 23.5587 29.1161 23.7472 28.9573C23.8414 28.8302 23.9357 28.7032 24.0614 28.6079C22.6476 27.7504 21.0139 27.2739 19.2546 27.2739C14.008 27.2739 9.73535 31.5935 9.73535 36.8977C9.73535 42.2337 14.008 46.5533 19.2546 46.5533C24.2184 46.5533 28.2712 42.7101 28.7424 37.8506C28.7424 37.8823 28.7424 37.8823 28.7424 37.8823C28.711 37.8823 28.6796 37.8823 28.6482 37.8823Z" fill="#5567EA"/>
</g>
<g id="g120">
<path id="path122" d="M29.4024 33.3416C29.1825 32.6111 28.8998 31.9124 28.5542 31.2454C28.2086 30.5784 27.7688 29.9431 27.2661 29.3714C26.355 28.2915 25.1926 27.4657 23.9045 26.894C22.4907 26.2588 20.8885 25.9412 19.192 25.9412C17.4955 25.9412 15.9247 26.2905 14.5109 26.9575C13.3799 27.4975 12.3746 28.2598 11.4635 29.1809C9.92408 30.8007 9.26433 32.4205 9.26433 32.4523L9.23291 32.5476L9.29574 32.6429C9.35858 32.7382 9.45283 32.7699 9.54708 32.8017C9.60991 32.8334 9.70416 32.8652 9.76699 32.9287C9.89266 33.024 10.0183 33.024 10.0812 33.024C10.3011 32.9605 10.4267 32.7699 10.5524 32.5158C10.5838 32.4841 10.6152 32.4205 10.6467 32.357C10.8352 32.0076 11.4007 30.9913 11.7462 30.5784C12.4374 31.1818 15.6419 34.1992 18.5322 36.9307L18.7207 37.1213L19.0977 36.6131L12.2175 30.0702C12.4688 29.8161 13.0657 29.2126 13.914 28.6091C15.0136 27.8786 16.7729 26.9893 19.0349 26.9893C23.8417 26.9893 28.994 30.356 28.994 37.7883V38.0106L29.7166 38.0741L29.748 37.8518C29.9365 36.359 29.8108 34.8027 29.4024 33.3416Z" fill="#5567EA"/>
</g>
<g id="g124">
<path id="path126" d="M18.8465 37.7878C18.7836 37.7243 18.6894 37.6925 18.6266 37.629C19.0036 37.6925 19.2235 37.8196 19.3806 37.7243C19.4434 37.6608 19.4748 37.5972 19.5062 37.502C19.5062 37.4067 19.4748 37.3432 19.4748 37.3432L19.789 37.3114V37.4067V37.4384L19.8204 37.5655H19.7261L19.7576 37.6608L19.789 37.7243C19.789 37.7243 19.6947 37.7878 19.5376 37.8513C19.5376 37.8513 19.5062 37.8831 19.4748 37.8831C19.3177 37.9149 19.0978 37.9149 18.9093 37.8196C18.8779 37.8196 18.8465 37.7878 18.8465 37.7878ZM20.4487 36.8985C20.5116 36.9303 20.5744 36.9303 20.6686 36.9303C22.428 37.1208 26.1666 37.5655 28.3029 37.6925C30.3136 37.8196 30.8791 37.8831 31.0047 37.8831C31.0361 37.9149 31.0676 37.9149 31.0676 37.9149C31.0676 37.9149 30.345 38.0102 29.5596 37.9149C28.8056 37.7878 23.8103 37.502 22.6793 37.3749C22.0824 37.3432 21.2656 37.2479 20.6372 37.1526C20.5744 37.1526 20.5116 37.1526 20.4487 37.1208H20.4173C20.3545 37.1208 20.2916 37.1208 20.2288 37.1208C19.8518 37.0573 19.6319 37.0255 19.6319 37.0255C19.6319 37.0255 19.5376 37.2161 19.2235 37.2161C18.9093 37.2161 19.0978 36.8032 19.0978 36.8032C19.0978 36.8032 19.0664 37.0255 19.2549 37.0891C19.2235 36.9303 19.2235 36.7397 19.3491 36.7079C19.4434 36.6762 19.6319 36.7397 19.6947 36.835H19.7261C19.8204 36.835 19.9775 36.8667 20.2288 36.8985C20.2916 36.8985 20.3859 36.8985 20.4487 36.8985ZM20.2288 36.5491C20.2602 36.6126 20.2602 36.6762 20.2916 36.7397C20.2916 36.7714 20.2916 36.7714 20.2916 36.7714C20.2916 36.7714 20.2916 36.8032 20.2916 36.835C20.2916 36.835 20.2602 36.835 20.2288 36.835C19.9775 36.8032 19.8204 36.8032 19.8204 36.8032L19.789 36.6444L19.8518 36.6126H19.8832L20.0403 36.4856L20.0717 36.4538H20.0403L19.789 36.4856H19.7261L19.6319 36.3903C19.6319 36.3903 19.6633 36.3903 19.6947 36.3585C19.7576 36.3268 19.8204 36.295 19.8518 36.2315C19.8832 36.2315 19.8832 36.2315 19.8832 36.2315C19.8832 36.2315 19.9146 36.1997 19.9461 36.1997C19.9775 36.168 19.9775 36.168 20.0089 36.168C20.0403 36.1997 20.1346 36.3585 20.2288 36.5174V36.5491ZM31.8844 37.5337C31.853 37.5337 27.7688 37.2479 26.7006 37.1843C25.8838 37.1843 22.1766 36.7397 20.6372 36.5809C20.4801 35.9456 19.9146 35.501 19.2549 35.501C18.5009 35.501 17.8726 36.1362 17.8726 36.8985C17.8726 37.6925 18.5009 38.3278 19.2549 38.3278C19.789 38.3278 20.2288 38.0419 20.4801 37.629C22.6793 37.8513 30.4392 38.6136 31.6645 38.6136C31.6959 38.6136 31.7273 38.6136 31.7587 38.6136L31.9158 38.5819L31.8844 37.5655V37.5337Z" fill="#5567EA"/>
</g>
<g id="g128">
<path id="path130" d="M27.3607 24.2266H27.2979C27.2979 24.2583 27.3607 24.3218 27.455 24.4807L27.3607 24.2266Z" fill="#5567EA"/>
</g>
<g id="g132">
<path id="path134" d="M31.6958 35.343C32.0728 36.4229 32.3241 37.1534 32.3241 37.1534C32.3241 37.1534 32.1985 36.9629 31.8529 36.3276L32.2613 37.344L32.4498 37.2805L31.6958 35.343Z" fill="#5567EA"/>
</g>
<g id="g140">
<path id="path142" d="M29.4651 30.8012C29.0881 29.7213 28.7739 28.8955 28.7739 28.8955C28.7739 28.8955 28.8053 28.9273 28.8367 29.0226C29.0252 29.4355 29.5593 30.706 30.0934 31.9764C30.3761 32.7387 30.6903 33.4692 30.9102 34.0727C31.1301 34.6126 31.3186 35.1526 31.4757 35.629L32.1983 37.5665L32.0098 37.5982L31.6328 36.6136C31.6014 36.5819 31.6014 36.5501 31.57 36.5184C31.4443 36.2643 31.0045 35.1208 30.5332 33.7868C30.1562 32.8022 29.7792 31.7223 29.4651 30.8012ZM28.3969 27.5933C28.3969 27.6568 28.3341 27.6251 28.3026 27.5616C28.2398 27.5298 28.177 27.4663 28.177 27.4663L27.046 24.5124H27.1088L27.2031 24.7348C27.2973 24.8936 27.4544 25.1794 27.6429 25.6241C27.7686 25.8464 27.8942 26.1323 28.0513 26.4817C28.3655 27.2122 28.4283 27.5298 28.3969 27.5933ZM27.5486 23.8772L26.8261 24.1313L26.3862 24.6712L31.6956 38.2017L32.4496 37.0901L27.5486 23.8772Z" fill="#5567EA"/>
</g>
<g id="g144">
<path id="path146" d="M34.6488 36.135L34.1462 35.6268V35.5633C34.9316 36.0715 35.4971 36.7702 35.5913 37.8501C35.4971 37.1196 34.6488 36.135 34.6488 36.135ZM33.9263 40.5816C34.0519 40.137 33.8006 39.5335 33.8006 39.5335C33.8006 39.5335 33.9263 39.3747 34.0833 39.1841C34.6488 39.2794 35.1201 38.9935 35.2143 38.9618C34.7431 40.3593 34.1148 40.5816 33.9263 40.5816ZM33.5178 39.2476C33.3922 39.1206 33.2351 39.0253 33.1094 38.9618C33.2037 38.8665 33.3293 38.7395 33.3922 38.6124C33.3922 38.6124 33.3922 38.6124 33.3922 38.6442C33.4864 38.7712 33.6121 38.8983 33.7692 38.9935C33.6749 39.0571 33.5807 39.1523 33.5178 39.2476ZM32.4497 38.6759C32.1669 38.6759 31.947 38.4218 31.947 38.136C31.947 37.8501 32.1669 37.596 32.4497 37.596C32.7324 37.596 32.9838 37.8501 32.9838 38.136C32.9838 38.4218 32.7324 38.6759 32.4497 38.6759ZM31.4443 37.9136L31.2873 38.0089C31.1302 38.0725 30.7217 38.2313 30.5333 38.136C30.5018 38.1042 30.439 38.0725 30.4076 37.9454C30.3133 37.4372 30.3448 37.0561 30.5018 36.802C30.6903 36.5479 31.0045 36.3891 31.4758 36.3256L31.8213 36.2938L31.6328 35.7221H31.9156C32.0727 35.7221 32.2297 35.7538 32.3554 35.7538C32.324 35.8491 32.324 35.9127 32.324 35.9762L31.7585 35.7221L31.7899 35.7856H31.7585L31.947 36.0715L32.1041 36.3256C32.1355 36.3891 32.2612 36.5797 32.4497 36.7067L32.6696 36.802L32.9209 37.0243L33.0152 36.8337C33.078 36.7067 33.5493 36.3891 33.832 36.2303L33.2979 37.469C33.2979 37.469 33.2665 37.469 33.2665 37.5008C33.078 37.2467 32.7952 37.0878 32.4497 37.0878C31.947 37.0878 31.5386 37.4372 31.4443 37.9136ZM31.0673 39.0888C31.0673 39.0253 31.0673 38.9935 31.0673 38.9618C31.2244 38.8665 31.3815 38.7395 31.5386 38.5806C31.57 38.6759 31.6014 38.7395 31.6328 38.803C31.4443 38.8347 31.2244 38.8983 31.0673 39.0888ZM31.6014 41.3439C31.3501 41.2804 31.0987 41.1533 30.8788 41.0263V40.9945C30.9417 41.0581 31.0673 41.1216 31.2244 41.1851C31.3187 41.2486 31.4758 41.2804 31.6014 41.3439ZM30.3133 39.3429C30.2505 39.2159 30.1877 39.0571 30.1563 38.8665C30.2191 38.8983 30.2819 38.9618 30.3448 38.9935C30.3448 39.1206 30.3448 39.2476 30.3133 39.3429ZM29.685 36.8655C29.5593 37.1196 29.4965 37.3737 29.4965 37.596C29.4965 37.7231 29.4965 37.8184 29.5279 37.9136L29.4337 37.9454L29.4022 38.136C29.4022 38.1995 29.3708 38.8665 29.6222 39.5653C29.685 39.7558 29.7793 39.9464 29.8735 40.1052C29.4965 39.597 29.308 38.9618 29.308 38.263C29.308 37.1831 29.8107 36.2303 30.6275 35.6586H30.7217H30.816C30.7217 35.6903 30.6275 35.7538 30.5018 35.8174C30.3133 35.9444 30.0934 36.135 29.9049 36.3891C29.8107 36.5479 29.7478 36.7067 29.685 36.8655ZM32.4497 35.0551V35.0869C32.1355 35.0869 31.8842 35.1504 31.8842 35.1504L31.3501 35.2774C31.6957 35.1504 32.0727 35.0551 32.4497 35.0551ZM32.6696 36.3256V36.2938L32.7324 35.8174V35.7221L32.7638 35.595V35.5315L32.7952 35.3727V35.3092V35.2139V35.1504V35.1186L32.8267 35.0869V34.9916V34.928L32.8581 34.8328V34.7057V34.6422L32.9209 34.2293H33.0466L33.0152 34.674L32.9838 34.7375V34.8645V34.9598L32.9523 35.0233V35.1186V35.1504V35.1821L32.9209 35.2457V35.3092V35.4045V35.468L32.8895 35.5315V35.6268L32.8581 35.7538V35.8174L32.8267 36.135L32.7952 36.262V36.3256H32.6696ZM33.0466 33.6576C33.078 33.6576 33.078 33.6576 33.1094 33.6576C33.1723 33.6576 33.2351 33.6893 33.2979 33.6893C33.3922 33.7211 33.6435 33.7529 33.6435 33.7529C33.6435 33.7529 33.6435 33.7529 33.6435 33.8799C33.6435 33.8799 33.6435 33.9117 33.6121 33.9117C33.6121 33.9434 33.6121 33.9752 33.6121 34.007C33.5807 33.7846 33.3608 33.8164 33.3608 33.8164L33.2979 34.007C33.2665 33.9117 33.2351 33.8482 33.2037 33.7846C33.1723 33.7529 33.1408 33.7211 33.1094 33.6893C33.1094 33.6893 33.1094 33.6893 33.078 33.6893L33.0466 33.6576ZM34.3661 36.0715L34.7117 37.0561C34.7431 37.2149 34.8688 37.596 34.963 38.136C34.8373 38.263 34.6174 38.3583 34.3975 38.3901C34.209 38.4218 34.0833 38.3901 34.0205 38.3266C33.7692 38.0725 33.832 37.6278 33.832 37.6278L34.0519 36.135L34.3661 36.0715ZM34.1462 35.5633L34.1148 35.595C34.0519 35.5633 34.0205 35.5315 33.9577 35.4998C33.7692 35.4045 33.5493 35.2774 33.2979 35.1821C33.5807 35.2457 33.8634 35.3727 34.1462 35.5633ZM33.3293 34.7375C33.3608 34.6422 33.3608 34.5787 33.3608 34.5469C33.5493 34.5787 33.8006 34.6104 33.8634 34.5787C34.0519 34.5151 34.0519 34.3563 34.0519 33.9752C34.0519 33.9117 34.0519 33.8482 34.0519 33.7846C34.0519 33.6893 34.0205 33.5941 33.9577 33.5305C33.832 33.4035 33.6435 33.3717 33.4864 33.3717C33.4236 33.2447 33.3293 33.1494 33.2351 33.1176C33.1094 33.0541 32.9838 33.0859 32.9209 33.1494C32.8581 33.2129 32.8267 33.2447 32.7952 33.2764V33.3082C32.6382 33.34 32.2612 33.4035 32.1983 33.5941C32.1669 33.6576 32.1041 34.1658 32.1355 34.2928C32.1983 34.4834 32.4183 34.4516 32.5439 34.4516C32.5439 34.4834 32.5439 34.5469 32.5125 34.6104C32.5125 34.6104 32.4811 34.6104 32.4497 34.6104C31.5386 34.6104 30.6903 34.9598 30.062 35.5633L29.8107 35.595L29.9992 35.6268C29.2766 36.262 28.8682 37.2149 28.8682 38.263C28.8682 40.0734 30.1563 41.5662 31.8528 41.8521C31.7899 41.7886 31.7271 41.6933 31.7585 41.5345C31.8528 41.2486 31.8213 40.931 31.8213 40.6452V40.6134C31.6328 40.5499 31.4758 40.5181 31.3815 40.4863C31.3815 40.2005 31.4758 39.7558 31.57 39.6605C31.7585 39.47 32.0413 39.4382 32.2612 39.47L32.4811 39.5017C32.9838 39.6288 33.1094 39.9146 33.1723 40.1687C33.2037 40.3275 32.9838 40.6769 32.8581 40.804C32.7638 40.804 32.6382 40.7722 32.4497 40.7404C32.4497 40.9628 32.4497 41.1851 32.4497 41.4074L32.7952 41.4392C32.701 41.4392 32.5753 41.471 32.4497 41.471C32.4497 41.471 32.4497 41.471 32.4183 41.471C32.4183 41.5345 32.3868 41.6298 32.3868 41.725C32.3554 41.8203 32.2926 41.8521 32.2297 41.9156C32.324 41.9156 32.3868 41.9156 32.4497 41.9156C34.4603 41.9156 36.0626 40.264 36.0626 38.263C36.0626 36.5479 34.9002 35.1186 33.3293 34.7375Z" fill="#5567EA"/>
</g>
<g id="g148">
<path id="path150" d="M32.3241 42.1396C32.3241 42.1079 32.1984 41.9491 32.1984 41.9491C32.1984 41.9491 32.4812 41.9808 32.6383 41.9808C32.5754 42.0443 32.4812 42.1079 32.3241 42.1396ZM31.8843 42.1079C31.79 42.1396 31.5701 42.2667 31.5387 42.489C31.5387 42.7113 31.4759 42.7431 31.4759 42.7431C31.4759 42.7431 31.2559 42.6796 31.2559 42.5208C31.2874 42.3937 31.3816 42.0443 31.413 42.0443C31.4444 42.0443 31.4759 42.1714 31.4759 42.1714L31.8529 42.0443C31.8529 42.0443 32.0414 41.8855 32.1356 42.1079C32.0728 42.0761 31.9785 42.1079 31.8843 42.1079ZM31.9785 42.5843C32.0414 42.489 32.0099 42.362 31.8843 42.362C31.7272 42.362 31.7586 42.489 31.79 42.6478C31.7586 42.6161 31.5701 42.5843 31.6644 42.362C31.7272 42.1396 32.0099 42.1396 32.0728 42.2349C32.1356 42.3302 32.1356 42.5208 31.9785 42.5843ZM32.3241 38.8047L32.3869 38.7411L32.5126 38.8047C32.5126 38.8047 32.1984 41.2185 32.1356 41.7585C32.0414 41.7267 31.8843 41.7585 31.8843 41.7585L32.3241 38.8047ZM33.1095 41.822C33.0467 41.695 32.921 41.5997 32.8896 41.5679L32.7954 41.5044L32.7011 41.5362C32.6697 41.5362 32.6069 41.5679 32.544 41.6314C32.5126 41.6314 32.5126 41.6314 32.4812 41.6314C32.5126 41.2821 32.6697 40.0116 32.7954 38.8047L32.8268 38.6458L32.5754 38.7729L32.4498 38.6776L32.2613 38.7094L32.0728 38.5188L32.0414 38.6776L31.9157 38.7094L32.0414 38.8047C31.9471 39.2176 31.6644 40.9644 31.5701 41.5679H31.4444C31.3816 41.5362 31.3188 41.5044 31.2559 41.5044C31.1617 41.5044 31.0989 41.5362 31.0674 41.5997C30.9732 41.7267 30.8475 42.4255 30.8789 42.6796C30.8789 42.8066 30.9104 42.9019 31.0046 42.9972C31.1617 43.1242 31.3816 43.156 31.5387 43.1242C31.6329 43.1878 31.79 43.2195 31.9471 43.2195C32.1356 43.2195 32.3555 43.156 32.5126 43.0607C32.7639 43.0607 33.1095 43.029 33.1095 42.7431C33.1095 42.7431 33.1095 42.6796 33.1095 42.6478C33.1409 42.0126 33.1095 41.8855 33.1095 41.822Z" fill="#5567EA"/>
</g>
<g id="g152">
<path id="path154" d="M36.7542 24.3194C36.7857 24.2876 36.7857 24.2558 36.7857 24.1923C36.7857 23.8747 36.5343 23.6206 36.1887 23.6206C35.906 23.6206 35.6861 23.8112 35.6232 24.097L34.1152 30.1635C34.3666 30.2906 34.5551 30.4494 34.7122 30.6399C35.2777 28.6072 35.8432 26.5427 35.8432 26.5427L36.0002 26.0663C36.0002 26.0663 35.4347 28.5437 34.8378 30.7987C34.9321 30.9576 35.0577 31.0846 35.152 31.2434L36.8485 24.3829C36.8171 24.3511 36.7857 24.3194 36.7542 24.3194Z" fill="#5567EA"/>
</g>
<g id="g156">
<path id="path158" d="M24.2813 28.7042L23.5587 29.7524L23.3702 30.0382L19.3489 35.9141H19.1918L24.5641 27.9737C24.5641 27.9737 24.5641 27.9737 24.5641 28.0055C24.5955 28.1643 24.2813 28.7042 24.2813 28.7042ZM27.9571 24.1623C27.9571 23.8447 27.6743 23.5588 27.3601 23.5588C27.2345 23.5588 27.1402 23.5906 27.0774 23.6541C26.9517 23.6541 26.7946 23.6541 26.6376 23.8129C26.4805 23.94 26.3862 24.1623 26.3862 24.4799C25.7579 25.4645 18.8462 35.7871 18.7834 35.8506L18.6577 36.0412L18.752 36.1047L18.8462 36.1682C18.8776 36.1682 18.909 36.2 19.286 36.2953L19.4117 36.327L19.506 36.2C21.925 32.8015 27.5486 24.8611 27.5486 24.8293C27.5801 24.7975 27.6115 24.7658 27.6429 24.7023C27.8314 24.607 27.9571 24.3846 27.9571 24.1623Z" fill="#5567EA"/>
</g>
<g id="g160">
<path id="path162" d="M36.6905 24.4475L36.6277 24.2252C36.6277 24.2252 45.8014 33.1502 45.8014 33.5313C45.8014 33.6901 36.6905 24.4475 36.6905 24.4475ZM50.3568 37.2157L36.5963 23.8123C36.2821 23.844 35.748 24.7651 35.748 24.7651L49.3201 37.9462C49.3201 37.9462 49.6342 38.2638 50.0426 38.2638C50.9223 38.2638 50.3568 37.2157 50.3568 37.2157Z" fill="#5567EA"/>
</g>
<g id="g164">
<path id="path166" d="M62.767 14.315C62.7356 14.442 62.6414 14.5691 62.6099 14.7279C62.5471 14.9502 62.6414 15.0455 62.8927 14.982C63.144 14.8549 63.4268 14.7279 63.6467 14.5691C64.9034 13.7115 66.5056 12.2822 67.7937 11.4882C68.1079 11.2976 68.2021 10.8212 68.0136 10.4718C67.8879 10.2495 67.5424 10.1224 67.1654 10.2812C66.6627 10.4718 66.16 10.6941 65.6888 11.0118C64.6834 11.6788 63.3639 13.2351 62.767 14.315ZM45.4564 10.4083C45.4564 10.5036 45.425 10.6306 45.425 10.6941C45.4564 10.8212 45.4879 10.98 45.5193 11.107C45.6449 11.0435 45.802 11.0118 45.8649 10.9165C46.179 10.5671 46.4618 10.2177 46.7131 9.83657C47.4985 8.72491 48.5667 7.26387 49.3835 6.18397C49.6663 5.8346 49.6349 5.35817 49.3521 5.07232C49.1636 4.88174 48.8494 4.9135 48.4724 5.1676C48.3782 5.23112 48.2839 5.26288 48.2525 5.35817C47.8127 5.8346 47.3728 6.34278 47.0273 6.88273C46.4304 7.86734 45.7392 9.26486 45.4564 10.4083ZM50.2946 5.13584C50.6716 4.7547 51.0486 4.9135 51.3942 5.07232C51.7084 5.23112 51.9597 5.45345 52.211 5.67578C52.2424 5.70755 52.2424 5.89812 52.1796 5.96164C51.5827 6.37455 49.3835 9.83657 49.1636 10.8847C49.1008 11.0435 49.1636 11.2341 49.1636 11.4247C49.3521 11.3294 49.5406 11.2976 49.6663 11.1706C50.2946 10.4083 50.9544 9.67776 51.5827 8.91548C52.3681 7.86734 53.4677 6.43806 53.9704 5.23112C54.0332 5.04055 54.1589 4.97703 54.3474 5.00879C54.8814 5.13584 55.3841 5.35817 55.7297 5.73931C55.9496 5.9934 55.9182 6.21573 55.7297 6.46983C55.1014 7.32739 54.0018 8.53434 53.4049 9.42367C53.1535 9.77305 52.9336 10.1542 52.7451 10.5671C53.0907 10.1542 53.4363 9.77305 53.7819 9.3919C54.7558 8.37553 56.2324 7.13682 57.3948 6.37455C58.2116 5.86636 59.0913 6.12045 59.6882 6.78744C59.9395 7.0733 59.8767 7.13682 59.5939 7.35916C59.1541 7.70854 58.243 8.43905 57.8974 8.88372C57.3005 9.67776 56.7664 10.4718 56.2009 11.2976C56.1695 11.3611 56.1381 11.4564 56.1381 11.5835C56.2009 11.5199 56.2952 11.4564 56.358 11.3929C57.4576 10.3448 59.0599 9.04253 60.2537 8.08967C60.5993 7.83558 60.9763 7.64501 61.3219 7.45444C61.8245 7.16859 62.2958 7.20035 62.767 7.51796C63.144 7.77206 63.4896 8.05791 63.5524 8.50258C62.2644 8.85195 60.128 11.7423 59.5625 12.5363C59.374 12.7904 59.2484 13.1398 59.1541 13.4256C59.0599 13.648 59.1855 13.775 59.4054 13.6797C59.7196 13.5209 60.0652 13.3304 60.3479 13.108C61.4789 12.1552 62.9555 10.5989 64.1494 9.70952C64.7777 9.2331 65.5317 8.91548 66.3485 8.91548C67.4167 8.91548 68.7676 9.61424 68.8933 10.8212C68.8933 10.8529 68.8933 10.8529 68.9247 10.8847C69.2074 10.8212 69.4588 10.8212 69.7101 11.0118C70.1185 11.2976 70.4641 11.6152 70.6212 12.0916C70.6212 12.1552 70.5584 12.2822 70.5269 12.314C69.7101 12.5363 66.6941 15.2996 66.2543 16.1254C66.1914 16.2524 66.1914 16.4112 66.16 16.57C66.3485 16.57 66.537 16.6018 66.6941 16.5383C67.4795 16.0936 68.2964 15.649 69.0818 15.2043C69.7101 14.7596 70.307 14.315 70.9039 13.9021C71.8779 13.2033 73.3859 12.5998 73.0403 12.7904C73.323 12.6634 73.6372 12.6951 73.8571 12.981C74.1399 13.2668 74.4226 13.5844 74.6111 13.9021C74.7996 14.1879 74.7054 14.2197 74.4226 14.3467C73.9514 14.5373 73.4801 14.7596 73.0403 15.0137C72.0978 15.6807 70.5584 16.6971 69.7729 17.5864C69.6473 17.7452 69.5216 17.9358 69.4588 18.0946C69.3331 18.3169 69.4588 18.4757 69.7101 18.444C69.8986 18.4122 70.1185 18.3487 70.307 18.2534C71.2809 17.777 72.9774 17.0147 73.9514 16.5383C74.4854 16.2524 74.9253 15.8713 75.4594 15.5854C75.805 15.3949 76.2134 15.2678 76.5904 15.1408C76.8103 15.0455 77.0616 15.1408 77.2501 15.3631C77.5957 15.6807 77.8785 16.0301 78.0355 16.443C78.1298 16.6653 78.1298 16.7924 77.8156 16.8241C77.4072 16.8877 76.9988 17.0782 76.6218 17.3006C75.5536 17.8723 73.9199 18.8569 73.0717 19.7462C72.9774 19.8733 72.8518 20.0003 72.7889 20.1591C72.7575 20.2544 72.7575 20.3815 72.7575 20.4767C72.8518 20.5085 73.0089 20.572 73.1031 20.572C73.4801 20.4767 73.8571 20.3815 74.2341 20.2226C75.1138 19.8733 76.0249 19.5239 76.9045 19.1745C77.093 19.111 77.2815 19.0792 77.47 19.0475C77.5014 19.0475 77.5329 19.0792 77.5643 19.111C77.5014 19.1745 77.47 19.2698 77.4072 19.3333C76.8103 19.7145 76.2134 20.0956 75.585 20.4767C74.7682 20.8896 73.9514 21.239 73.0403 21.3978C72.8518 21.4296 72.6319 21.4614 72.4434 21.4296C71.6265 21.3978 71.0296 20.6038 71.0925 19.8097C71.1239 19.5239 71.2495 19.238 71.3438 18.9522C71.3752 18.8251 71.4694 18.7298 71.4694 18.571C71.3752 18.6346 71.2809 18.6981 71.1553 18.7298C70.5898 18.9204 70.0243 19.1745 69.4274 19.3016C68.6419 19.5239 67.8879 18.8251 67.7937 18.0946C67.7309 17.6499 67.8565 17.2688 68.0136 16.9194C68.045 16.8559 68.0764 16.7924 68.1079 16.6971C67.7309 16.8877 67.3853 17.0782 67.0397 17.237C66.7884 17.3323 66.537 17.4276 66.2543 17.5229C65.3118 17.8088 64.4007 17.0465 64.4949 16.0619C64.5578 15.5854 64.7463 15.1408 64.8719 14.6961C64.7149 14.7596 64.5578 14.8867 64.4007 14.982C63.898 15.2678 63.3954 15.5854 62.8927 15.8395C61.9188 16.316 60.7564 15.5537 60.9449 14.4103C61.0077 14.0926 61.1019 13.7433 61.1962 13.3939C60.7878 13.6797 60.3794 13.9974 59.9709 14.2514C59.7196 14.4103 59.4369 14.5691 59.1541 14.6643C58.4629 14.982 57.6775 14.442 57.5204 13.7115C57.489 12.8539 57.6147 12.3775 57.9917 11.647C58.2744 11.0753 58.6514 10.5353 58.997 9.99538L59.0913 9.83657C59.0913 9.80481 59.0599 9.80481 59.0599 9.77305C58.4629 10.313 57.866 10.8529 57.3005 11.3929C56.6408 12.0599 56.0439 12.7269 55.4155 13.4256C55.0385 13.8385 54.85 13.8385 54.5044 13.4892C54.1274 13.1398 53.9704 12.4093 54.1589 11.9328C54.5044 10.8847 55.0071 9.90009 55.5726 8.979C55.6669 8.82019 55.7297 8.69315 55.8239 8.5661L55.7611 8.50258C55.5412 8.69315 55.2899 8.85195 55.1014 9.07429C54.1274 10.1224 53.1535 11.2341 52.2424 12.3457C52.1168 12.5046 51.9597 12.6951 51.834 12.8539C51.6769 13.0763 51.4884 13.108 51.2685 12.981C50.6402 12.6951 50.4517 11.9646 50.5774 11.2976C50.5145 11.3929 50.4517 11.4564 50.3889 11.4882C50.0747 11.774 49.7919 12.0599 49.5092 12.314C48.7552 13.0445 47.6556 12.4093 47.5299 11.5517C47.4357 11.0753 47.4985 10.5353 47.4671 10.0271C47.3414 10.2177 47.1529 10.5036 46.9644 10.7259C46.5874 11.1706 46.2104 11.6152 45.8334 11.9964C45.2051 12.6951 44.1998 12.2187 43.917 11.4882C43.7285 10.9165 43.7285 10.1542 43.8542 9.58248C44.1055 8.34377 44.8595 6.62864 45.6135 5.5805C46.0219 4.94527 46.5874 4.40532 47.2786 4.0877C48.4096 3.61128 49.6663 4.0877 50.2946 5.13584Z" fill="#5567EA"/>
</g>
<g id="g168">
<path id="path170" d="M13.7252 22.2881C13.5367 22.7328 13.1283 22.7963 13.1283 22.2246C13.1283 22.1929 13.4424 20.8271 13.8509 20.5095C13.8509 20.5095 13.8823 20.5095 13.9137 20.5095C13.9765 20.9541 13.8823 21.907 13.7252 22.2881ZM32.9836 6.66139C32.8265 6.82019 32.7637 6.94724 32.7009 7.10605C32.5124 7.55071 32.3239 7.99538 32.1668 8.44004C31.7898 9.39289 31.4128 10.3457 31.0358 11.2986C30.973 11.4892 30.753 11.7433 30.6588 11.7115C30.4075 11.6797 30.4389 11.3621 30.4389 11.1398C30.4075 9.9646 30.5331 8.82118 30.7845 7.67776C31.0044 6.72491 31.2557 5.89911 31.727 5.04154C31.6013 4.94625 31.507 4.78745 31.3814 4.75568C31.0358 4.62864 30.6902 4.53335 30.3446 4.46983C30.0305 4.43807 29.7791 4.59687 29.6849 4.88273C29.4335 5.58149 29.245 6.24848 29.0565 6.94724C28.9309 7.36014 28.9309 7.8048 28.8052 8.18595C28.5225 9.17056 28.2397 10.1234 27.957 11.0763C27.8313 11.4892 27.6428 11.8703 27.4857 12.2514C27.4543 12.315 27.3286 12.4103 27.2658 12.3785C27.203 12.3785 27.1401 12.2514 27.1087 12.1562C27.0459 11.9338 27.0145 11.6797 27.0145 11.4256C26.9202 10.0916 27.0773 8.75766 27.3286 7.45543C27.4229 6.91548 27.58 6.34377 27.7999 5.86734C27.9255 5.58149 27.8627 5.42268 27.6742 5.35916C27.2972 5.23211 26.9202 5.16858 26.5746 5.10506C26.229 5.04154 25.9777 5.26387 25.8835 5.61325C25.7264 6.12144 25.5379 6.66139 25.475 7.20134C25.3808 7.83657 25.3494 8.56708 25.2237 9.20232C25.0352 10.1552 24.7839 11.1715 24.5325 12.1562C24.4383 12.4738 24.3126 12.7914 24.187 13.109C24.0927 13.2996 23.9356 13.2678 23.8414 13.0455C23.7785 12.8549 23.7471 12.6326 23.7157 12.442C23.5586 11.1715 23.6215 9.90107 23.7471 8.59885C23.81 7.83657 23.9042 7.04252 24.2812 6.34377C24.1555 6.24848 24.0299 6.12144 23.9042 6.08968C23.5586 6.02615 23.1816 5.96263 22.8046 5.96263C22.5219 5.93086 22.302 6.08968 22.1763 6.37553C21.9878 6.72491 21.7679 7.10605 21.6736 7.51895C21.2966 8.91646 21.0139 10.3457 20.7311 11.775C20.6369 12.2197 20.574 12.6326 20.5112 13.0455C20.4484 12.9502 20.417 12.8549 20.417 12.7596C20.2599 11.4256 20.2599 10.0599 20.417 8.69413C20.4484 8.34475 20.4798 7.93185 20.6369 7.61423C20.7625 7.29662 20.6369 7.20134 20.4484 7.10605C19.663 6.69315 18.7833 7.23309 18.4377 7.99538C18.4377 8.0589 18.4063 8.12242 18.3749 8.18595C17.8722 9.58346 17.6209 11.0445 17.4638 12.5691C17.4009 13.0455 17.3381 13.5537 17.3067 14.0619C17.2439 13.6807 17.181 13.2996 17.181 12.9184C17.1496 11.6797 17.1496 10.441 17.1496 9.20232C17.1496 8.78942 17.0554 8.59885 16.7412 8.50356C16.27 8.34475 15.7673 8.44004 15.296 8.59885C15.1075 8.66237 15.0447 8.82118 15.139 9.04351C15.1704 9.17056 15.2332 9.32937 15.2332 9.48817C15.4217 11.0127 15.6416 12.5373 15.4531 14.0619C15.3274 14.9194 15.2332 15.8088 15.1075 16.6663C15.0761 16.9522 14.9505 17.2063 14.8562 17.4604C14.7305 17.0792 14.6677 16.6663 14.6049 16.2852C14.4164 14.6971 14.2279 13.1408 14.1022 11.5527C14.0708 11.0763 14.1336 10.5998 14.2279 10.1552C14.2907 9.86932 14.2279 9.77403 14.0394 9.71051C13.5995 9.51994 13.1911 9.58346 12.7827 9.71051C12.5628 9.80579 12.4057 9.9646 12.3743 10.2187C12.3429 10.6316 12.3115 11.0445 12.3115 11.4574C12.3429 11.9656 12.4685 12.4738 12.4371 12.982C12.3743 14.3795 12.3115 15.777 12.2486 17.1745C12.2486 17.4604 12.1858 17.7462 12.0915 18.0321C12.0287 18.2544 11.8716 18.2544 11.7459 18.0321C11.6517 17.8415 11.5575 17.5874 11.4946 17.3651C11.0862 15.9993 10.8663 14.6018 10.8034 13.1725C10.8034 12.6643 10.8663 12.1244 10.8977 11.6162C10.8977 11.5209 10.8034 11.3939 10.7092 11.3621C10.238 11.1715 9.73528 11.2351 9.29545 11.5527C8.94987 11.775 9.04411 12.2514 9.0127 12.6326C9.0127 12.6643 9.0127 12.6961 9.0127 12.7279C9.04411 14.316 9.29545 15.9358 9.73528 17.3968C9.98662 18.1591 10.2694 18.7308 10.8034 19.2708C11.3061 19.8107 12.5628 19.7154 12.7199 18.7308C12.7827 18.2862 12.877 17.7145 12.9398 17.2063C13.0026 16.9522 12.9712 16.6663 13.0026 16.4122C13.2225 17.238 13.411 18.0638 13.631 18.8896C13.6938 19.1755 13.631 19.3343 13.4739 19.4931C13.0969 19.8742 12.4685 20.5095 12.3429 21.4941C12.28 22.0658 12.2486 22.8916 13.034 23.2092C13.4424 23.368 13.9765 23.3363 14.385 23.0822C14.8248 22.8281 15.0761 22.3517 15.1075 21.4306C15.139 20.9541 15.2018 19.8425 15.139 19.2708C15.1075 19.0167 15.1075 18.7944 15.2332 18.572C15.3589 18.3179 15.4845 18.0321 15.5788 17.7462C15.7359 17.1745 15.8615 16.571 16.0186 15.9993C16.0186 15.9993 16.05 16.0311 16.05 16.0628C16.2385 16.6346 16.7412 16.9839 17.3067 17.0475C17.6837 17.0792 17.8094 16.9839 17.8408 16.5393C17.8408 16.4122 17.8408 16.2852 17.8722 16.1581C17.9665 14.6018 18.0921 13.0455 18.2806 11.5209C18.312 11.1715 18.4377 10.8539 18.5005 10.5363C18.532 10.5363 18.532 10.5363 18.5634 10.5681C18.5948 10.7269 18.5948 10.8857 18.5948 11.0763C18.689 12.2514 18.8461 13.2996 19.1603 14.443C19.3174 15.0782 19.8829 15.6499 20.574 15.7135C20.794 15.7135 20.9196 15.5864 20.951 15.3323C20.9825 15.0782 20.9825 14.8241 21.0139 14.57C21.2024 13.0137 21.4223 11.4892 21.6736 9.9646C21.705 9.86932 21.7365 9.77403 21.7679 9.67874C21.8307 10.0916 21.8307 10.4728 21.8621 10.8857C21.8621 11.2668 21.8935 11.6797 21.9564 12.0609C22.082 12.7914 22.2391 13.4266 22.6161 13.9983C22.9931 14.6653 24.2498 14.9512 24.6268 13.9983C24.6896 13.903 24.7525 13.8395 24.7839 13.7125C24.9724 13.1408 25.1609 12.5373 25.3808 11.9338C25.475 12.2514 25.5693 12.5691 25.695 12.8549C25.9463 13.3949 26.2919 13.7442 26.826 13.8078C27.3286 13.8713 27.7056 13.5854 27.9255 13.0772C28.1769 12.5373 28.3968 11.9338 28.6167 11.3621C28.6481 11.2668 28.6795 11.1715 28.7424 11.0127C28.8366 11.3939 28.8995 11.7115 28.9937 11.9973C29.1822 12.5373 29.5592 13.0455 30.1561 13.1408C30.7216 13.2043 31.0672 12.8232 31.35 12.315C32.2296 10.6634 32.7637 8.78942 33.0465 6.91548C33.0465 6.85195 33.015 6.75667 32.9836 6.66139Z" fill="#5567EA"/>
</g>
<g id="g172">
<path id="path174" d="M11.3377 21.6528C11.4633 21.494 11.6204 21.3669 11.7147 21.2081C11.8717 20.954 11.9032 20.7317 11.6518 20.5094C11.4633 20.3506 10.3952 20.1282 9.5469 19.493C8.35307 18.6037 7.4734 17.5555 6.5309 16.4439C6.46807 16.3804 6.43665 16.2215 6.43665 16.0945C6.5309 15.491 6.62515 14.8558 6.7194 14.2523C7.00215 12.8548 7.34773 11.4891 7.88182 10.2186C8.0389 9.90097 8.25882 9.61512 8.47873 9.36102C8.66723 9.20222 8.66723 9.07517 8.51015 8.97988C8.25882 8.78931 7.97607 8.63051 7.69332 8.53522C7.25348 8.40817 6.93932 8.59874 6.68798 9.04341C6.49948 9.36102 6.3424 9.7104 6.21673 10.0598C5.61982 11.7749 5.33707 13.5536 5.17998 15.364C5.11715 15.9039 5.08573 16.4121 5.05432 16.9521C4.92865 16.4439 4.86582 15.9357 4.80298 15.4593C4.6459 14.4747 4.48882 13.49 4.17465 12.5372C3.76623 11.2667 2.41531 11.362 1.6299 12.2831C1.09581 12.9183 0.65598 13.7124 0.37323 14.5382C-0.00376967 15.6498 -0.160854 16.9838 0.216147 18.1273C0.498897 18.9531 1.59848 19.6201 2.41531 19.3024C2.50956 19.2707 2.54098 19.1754 2.66665 19.0483C2.16398 18.9213 1.94406 18.5402 1.78698 18.0955C1.4414 17.1109 1.37856 15.9992 1.53565 15.0146C1.66131 14.3158 1.84981 13.6171 2.1954 13.0136C2.35248 12.7913 2.44673 12.7913 2.54098 13.0136C2.60381 13.2359 2.66665 13.4265 2.69806 13.6489C3.07506 15.7769 3.42065 17.9367 3.8919 20.033C4.11182 21.0176 4.36315 22.0339 4.6459 23.0186C4.77157 23.495 5.11715 23.6855 5.55698 23.7173C5.7769 23.7491 5.99682 23.7173 6.21673 23.6855C6.56232 23.622 6.59373 23.5267 6.46807 23.1456C6.21673 22.3833 6.1539 21.5575 6.1539 20.7317C6.1539 20.0012 6.1539 19.3024 6.18532 18.5719C6.27957 18.6672 6.31098 18.699 6.37382 18.7625C6.78223 19.2071 8.73007 21.3034 9.70399 21.7481C10.1752 21.9387 10.9292 22.0657 11.3062 21.6528C11.3377 21.6528 11.3377 21.6528 11.3377 21.6528Z" fill="#5567EA"/>
</g>
<g id="g176">
<path id="path178" d="M23.6215 4.24766C23.6215 3.93005 23.6215 3.61243 23.4958 3.32657C23.3701 2.88191 23.0246 2.7231 22.5533 2.78663C22.1763 2.81839 21.7993 2.85015 21.4223 2.9772C19.7258 3.45362 18.0921 4.24766 16.5213 5.16875C16.0815 5.42285 14.0708 6.85212 14.0708 6.97917C14.0708 7.26502 14.9191 7.55088 15.3275 7.42383C15.6731 7.2015 16.5841 6.66155 16.6784 6.62979C17.2125 6.34394 17.778 6.05808 18.3435 5.80399C19.6316 5.23228 20.9196 4.72409 22.2706 4.43823C22.6161 4.37471 22.9617 4.37471 23.3073 4.43823C23.5272 4.47 23.6529 4.40647 23.6215 4.24766Z" fill="#5567EA"/>
</g>
<g id="g180">
<path id="path182" d="M64.2116 6.69213C64.4001 6.43804 64.5572 6.15218 64.6515 5.86633C64.7771 5.42166 64.62 5.10405 64.1802 4.84995C63.866 4.65938 63.5205 4.46881 63.1749 4.34177C61.5098 3.70653 59.7505 3.38891 57.9597 3.16658C57.4256 3.10306 54.9751 3.0713 54.9123 3.16658C54.7552 3.38891 55.2579 4.11943 55.6663 4.27824C56.0747 4.31 57.1115 4.40529 57.2057 4.43705C57.8026 4.53234 58.431 4.62762 59.0279 4.75467C60.4102 5.07228 61.7611 5.42166 62.9864 6.02513C63.3005 6.18394 63.5833 6.40628 63.8346 6.62861C63.9917 6.81918 64.1174 6.81918 64.2116 6.69213Z" fill="#5567EA"/>
</g>
<g id="g184">
<path id="path186" d="M77.0609 13.7106C77.5636 14.06 78.8831 14.6317 79.8884 14.3459C80.0141 14.3141 80.0455 14.1553 79.9198 14.0918C79.1344 13.6154 78.6946 13.4883 77.8463 12.726C77.5636 12.4719 77.3437 12.0908 77.218 11.8685C77.1238 11.6779 77.0295 11.6461 76.9038 11.7097C76.6839 11.8685 76.464 11.9955 76.3069 12.1861C76.087 12.4719 76.1184 12.7578 76.4012 13.0754C76.5897 13.2977 76.8096 13.5201 77.0609 13.7106Z" fill="#5567EA"/>
</g>
<g id="g188">
<path id="path190" d="M43.3511 13.5861C43.5396 13.5225 43.7281 13.459 43.8852 13.3637C44.1365 13.2367 44.2622 13.0144 44.1365 12.7285C44.0423 12.4744 43.194 11.8074 42.7228 10.8546C42.063 9.52057 41.7489 8.18658 41.3719 6.7573C41.3405 6.66201 41.4033 6.50321 41.4661 6.40792C41.8117 5.89973 42.1573 5.35979 42.5343 4.88336C43.414 3.7717 44.325 2.6918 45.3932 1.80248C45.6445 1.61191 45.9901 1.42134 46.3043 1.32605C46.5242 1.23077 46.587 1.13548 46.4928 0.976672C46.3357 0.722578 46.1786 0.436724 45.9587 0.214392C45.6131 -0.0714639 45.2675 -0.0714639 44.8591 0.214392C44.545 0.404962 44.2308 0.659055 43.948 0.913149C42.66 2.15186 41.6232 3.64465 40.6493 5.16922C40.3665 5.61388 40.1152 6.05854 39.8325 6.53497C39.9581 6.02678 40.1152 5.55036 40.2723 5.07393C40.5865 4.12108 40.9006 3.16823 41.0263 2.18362C41.2148 0.881388 39.9895 0.309677 38.89 0.786102C38.1045 1.13548 37.382 1.64367 36.7536 2.24714C35.9054 3.07294 35.1828 4.1846 34.9943 5.35979C34.8686 6.24911 35.5598 7.32901 36.4395 7.4243C36.5337 7.4243 36.628 7.36077 36.785 7.32901C36.3766 6.97963 36.3452 6.53497 36.408 6.05854C36.5337 5.04217 36.9735 4.02579 37.5705 3.19999C37.9789 2.62828 38.4815 2.08833 39.047 1.73895C39.267 1.58014 39.3612 1.64367 39.3298 1.866C39.3298 2.08833 39.267 2.31066 39.2041 2.533C38.6072 4.59751 37.9475 6.66201 37.4134 8.75829C37.162 9.7429 36.9735 10.7593 36.785 11.7439C36.6594 12.2521 36.8793 12.5697 37.2563 12.792C37.4448 12.9191 37.6647 13.0144 37.8846 13.0779C38.2302 13.1732 38.293 13.1096 38.3559 12.7285C38.4501 11.9027 38.7957 11.1404 39.1413 10.4099C39.4555 9.77466 39.801 9.13943 40.1152 8.50419C40.178 8.63124 40.178 8.663 40.2095 8.72653C40.3665 9.33 41.1834 12.0933 41.8745 12.9191C42.1887 13.332 42.817 13.7766 43.3511 13.5861Z" fill="#5567EA"/>
</g>
</g>
</svg>
