<svg width="16" height="17" viewBox="0 0 16 17" fill="none" xmlns="http://www.w3.org/2000/svg">
<g id="Vector">
<path d="M14.3275 3.62196C14.7054 4.11069 15.0212 4.64616 15.2884 5.21367L8.0068 10.5883L4.94838 8.66548V6.36472L7.99061 8.27156L14.3275 3.62196Z" fill="#21A037"/>
<path d="M1.84369 8.50784C1.84369 8.39701 1.84369 8.30354 1.85989 8.1927L0.0161964 8.0979C0.0161964 8.22475 0 8.3663 0 8.49182C0 10.6991 0.898901 12.7008 2.34848 14.1509L3.65634 12.8423C2.53744 11.7393 1.84369 10.2104 1.84369 8.50784Z" fill="#21A037"/>
<path d="M7.99093 2.36021C8.10161 2.36021 8.19608 2.36021 8.30676 2.37624L8.40124 0.532154C8.27437 0.532154 8.13265 0.516131 8.00713 0.516131C5.80037 0.516131 3.79876 1.4148 2.34783 2.86496L3.65569 4.17358C4.75975 3.05458 6.3038 2.36021 7.99093 2.36021Z" fill="#21A037"/>
<path d="M7.99185 14.6557C7.88117 14.6557 7.78669 14.6557 7.67602 14.6397L7.58154 16.4838C7.70841 16.4838 7.85013 16.4998 7.97565 16.4998C10.1824 16.4998 12.1854 15.6011 13.6349 14.151L12.3271 12.8423C11.223 13.9774 9.69382 14.6557 7.99185 14.6557Z" fill="#21A037"/>
<path d="M11.4592 3.43237L13.0195 2.28132C11.6482 1.17834 9.89899 0.5 7.99187 0.5V2.34408C9.28488 2.36011 10.4821 2.75403 11.4592 3.43237Z" fill="#21A037"/>
<path d="M16 8.50807C16 8.01934 15.9528 7.54664 15.8731 7.07393L14.155 8.3505C14.155 8.39724 14.155 8.46133 14.155 8.50807C14.155 10.3214 13.3667 11.9452 12.1223 13.0642L13.3667 14.4356C14.9756 12.9854 16 10.8569 16 8.50807Z" fill="#21A037"/>
<path d="M7.99185 14.6557C6.1792 14.6557 4.55542 13.8681 3.43652 12.6222L2.06522 13.8681C3.531 15.4918 5.64328 16.5 7.99176 16.5L7.99185 14.6557Z" fill="#21A037"/>
<path d="M3.87769 3.9519L2.63192 2.58052C1.00823 4.04671 0 6.15919 0 8.50802L1.84369 8.50784C1.84369 6.7105 2.63192 5.07224 3.87769 3.9519Z" fill="#21A037"/>
</g>
</svg>
